<svg width="70" height="70" viewBox="0 0 70 70" fill="none" xmlns="http://www.w3.org/2000/svg">
<circle cx="35" cy="35" r="35" fill="#FF7028"/>
<path d="M44.8149 36.24C43.5349 36.24 42.5349 35.92 41.8149 35.28C41.0949 34.64 40.5829 33.68 40.2789 32.4C39.9909 31.12 39.8469 29.52 39.8469 27.6C39.8469 25.68 39.9909 24.08 40.2789 22.8C40.5829 21.504 41.0949 20.536 41.8149 19.896C42.5349 19.256 43.5349 18.936 44.8149 18.936C46.0949 18.936 47.0869 19.256 47.7909 19.896C48.5109 20.536 49.0149 21.504 49.3029 22.8C49.6069 24.08 49.7589 25.68 49.7589 27.6C49.7589 29.52 49.6069 31.12 49.3029 32.4C49.0149 33.68 48.5109 34.64 47.7909 35.28C47.0869 35.92 46.0949 36.24 44.8149 36.24ZM44.8149 33.792C45.4069 33.792 45.8709 33.608 46.2069 33.24C46.5589 32.856 46.8149 32.216 46.9749 31.32C47.1349 30.424 47.2149 29.184 47.2149 27.6C47.2149 26 47.1349 24.752 46.9749 23.856C46.8149 22.96 46.5589 22.328 46.2069 21.96C45.8709 21.576 45.4069 21.384 44.8149 21.384C44.2229 21.384 43.7509 21.576 43.3989 21.96C43.0469 22.328 42.7909 22.96 42.6309 23.856C42.4869 24.752 42.4149 26 42.4149 27.6C42.4149 29.184 42.4869 30.424 42.6309 31.32C42.7909 32.216 43.0469 32.856 43.3989 33.24C43.7509 33.608 44.2229 33.792 44.8149 33.792Z" fill="white"/>
<path d="M35.1953 36.2639C34.6993 36.2639 34.2673 36.0879 33.8993 35.7359C33.5473 35.3839 33.3713 34.9599 33.3713 34.4639C33.3713 33.9519 33.5473 33.5199 33.8993 33.1679C34.2673 32.8159 34.6993 32.6399 35.1953 32.6399C35.6913 32.6399 36.1153 32.8159 36.4673 33.1679C36.8353 33.5199 37.0193 33.9519 37.0193 34.4639C37.0193 34.9599 36.8353 35.3839 36.4673 35.7359C36.1153 36.0879 35.6913 36.2639 35.1953 36.2639Z" fill="white"/>
<path d="M26.576 35.9999V32.3279H20V30.3599L26.6 19.1279H29V30.0719H31.352V32.3279H29V35.9999H26.576ZM22.568 30.0719H26.576V23.2079L22.568 30.0719Z" fill="white"/>
<path d="M36.9822 52.9999V51.1599L41.6822 45.2199H37.2222V43.3799H44.3622V45.2199L39.6022 51.1399H44.5622V52.9999H36.9822Z" fill="white"/>
<path d="M30.64 53.2199C29.76 53.2199 28.9667 53.0132 28.26 52.5999C27.5667 52.1732 27.0133 51.5866 26.6 50.8399C26.2 50.0799 26 49.1932 26 48.1799C26 47.1666 26.2 46.2866 26.6 45.5399C27.0133 44.7799 27.5667 44.1932 28.26 43.7799C28.9667 43.3532 29.76 43.1399 30.64 43.1399C31.5467 43.1399 32.3467 43.3532 33.04 43.7799C33.7467 44.1932 34.3 44.7799 34.7 45.5399C35.1 46.2866 35.3 47.1666 35.3 48.1799C35.3 49.1932 35.1 50.0799 34.7 50.8399C34.3 51.5866 33.7467 52.1732 33.04 52.5999C32.3467 53.0132 31.5467 53.2199 30.64 53.2199ZM30.64 51.1799C31.3467 51.1799 31.92 50.9199 32.36 50.3999C32.8133 49.8799 33.04 49.1399 33.04 48.1799C33.04 47.2199 32.8133 46.4799 32.36 45.9599C31.92 45.4399 31.3467 45.1799 30.64 45.1799C29.9467 45.1799 29.38 45.4399 28.94 45.9599C28.5 46.4799 28.28 47.2199 28.28 48.1799C28.28 49.1399 28.5 49.8799 28.94 50.3999C29.38 50.9199 29.9467 51.1799 30.64 51.1799Z" fill="white"/>
</svg>
