<svg width="70" height="70" viewBox="0 0 70 70" fill="none" xmlns="http://www.w3.org/2000/svg">
<circle cx="35" cy="35" r="35" fill="#FF7028"/>
<path d="M44.1109 36V22.464L41.1829 24.384L39.8149 22.2L44.7109 19.176H46.6789V36H44.1109Z" fill="white"/>
<path d="M36.1953 36.2639C35.6993 36.2639 35.2673 36.0879 34.8993 35.7359C34.5473 35.3839 34.3713 34.9599 34.3713 34.4639C34.3713 33.9519 34.5473 33.5199 34.8993 33.1679C35.2673 32.8159 35.6993 32.6399 36.1953 32.6399C36.6913 32.6399 37.1153 32.8159 37.4673 33.1679C37.8353 33.5199 38.0193 33.9519 38.0193 34.4639C38.0193 34.9599 37.8353 35.3839 37.4673 35.7359C37.1153 36.0879 36.6913 36.2639 36.1953 36.2639Z" fill="white"/>
<path d="M27.576 35.9999V32.3279H21V30.3599L27.6 19.1279H30V30.0719H32.352V32.3279H30V35.9999H27.576ZM23.568 30.0719H27.576V23.2079L23.568 30.0719Z" fill="white"/>
<path d="M35.9822 52.9999V51.1599L40.6822 45.2199H36.2222V43.3799H43.3622V45.2199L38.6022 51.1399H43.5622V52.9999H35.9822Z" fill="white"/>
<path d="M29.64 53.2199C28.76 53.2199 27.9667 53.0132 27.26 52.5999C26.5667 52.1732 26.0133 51.5866 25.6 50.8399C25.2 50.0799 25 49.1932 25 48.1799C25 47.1666 25.2 46.2866 25.6 45.5399C26.0133 44.7799 26.5667 44.1932 27.26 43.7799C27.9667 43.3532 28.76 43.1399 29.64 43.1399C30.5467 43.1399 31.3467 43.3532 32.04 43.7799C32.7467 44.1932 33.3 44.7799 33.7 45.5399C34.1 46.2866 34.3 47.1666 34.3 48.1799C34.3 49.1932 34.1 50.0799 33.7 50.8399C33.3 51.5866 32.7467 52.1732 32.04 52.5999C31.3467 53.0132 30.5467 53.2199 29.64 53.2199ZM29.64 51.1799C30.3467 51.1799 30.92 50.9199 31.36 50.3999C31.8133 49.8799 32.04 49.1399 32.04 48.1799C32.04 47.2199 31.8133 46.4799 31.36 45.9599C30.92 45.4399 30.3467 45.1799 29.64 45.1799C28.9467 45.1799 28.38 45.4399 27.94 45.9599C27.5 46.4799 27.28 47.2199 27.28 48.1799C27.28 49.1399 27.5 49.8799 27.94 50.3999C28.38 50.9199 28.9467 51.1799 29.64 51.1799Z" fill="white"/>
</svg>
