<svg width="70" height="70" viewBox="0 0 70 70" fill="none" xmlns="http://www.w3.org/2000/svg">
<circle cx="35" cy="35" r="35" fill="#FF7028"/>
<path d="M26.816 36V32.328H20.24V30.36L26.84 19.128H29.24V30.072H31.592V32.328H29.24V36H26.816ZM22.808 30.072H26.816V23.208L22.808 30.072ZM35.4354 36.264C34.9394 36.264 34.5074 36.088 34.1394 35.736C33.7874 35.384 33.6114 34.96 33.6114 34.464C33.6114 33.952 33.7874 33.52 34.1394 33.168C34.5074 32.816 34.9394 32.64 35.4354 32.64C35.9314 32.64 36.3554 32.816 36.7074 33.168C37.0754 33.52 37.2594 33.952 37.2594 34.464C37.2594 34.96 37.0754 35.384 36.7074 35.736C36.3554 36.088 35.9314 36.264 35.4354 36.264ZM45.8229 36V32.328H39.2469V30.36L45.8469 19.128H48.2469V30.072H50.5989V32.328H48.2469V36H45.8229ZM41.8149 30.072H45.8229V23.208L41.8149 30.072Z" fill="white"/>
<path d="M30.36 53.22C29.48 53.22 28.6867 53.0133 27.98 52.6C27.2867 52.1733 26.7333 51.5867 26.32 50.84C25.92 50.08 25.72 49.1933 25.72 48.18C25.72 47.1667 25.92 46.2867 26.32 45.54C26.7333 44.78 27.2867 44.1933 27.98 43.78C28.6867 43.3533 29.48 43.14 30.36 43.14C31.2667 43.14 32.0667 43.3533 32.76 43.78C33.4667 44.1933 34.02 44.78 34.42 45.54C34.82 46.2867 35.02 47.1667 35.02 48.18C35.02 49.1933 34.82 50.08 34.42 50.84C34.02 51.5867 33.4667 52.1733 32.76 52.6C32.0667 53.0133 31.2667 53.22 30.36 53.22ZM30.36 51.18C31.0667 51.18 31.64 50.92 32.08 50.4C32.5333 49.88 32.76 49.14 32.76 48.18C32.76 47.22 32.5333 46.48 32.08 45.96C31.64 45.44 31.0667 45.18 30.36 45.18C29.6667 45.18 29.1 45.44 28.66 45.96C28.22 46.48 28 47.22 28 48.18C28 49.14 28.22 49.88 28.66 50.4C29.1 50.92 29.6667 51.18 30.36 51.18ZM36.7022 53V51.16L41.4022 45.22H36.9422V43.38H44.0822V45.22L39.3222 51.14H44.2822V53H36.7022Z" fill="white"/>
</svg>
