<svg width="70" height="70" viewBox="0 0 70 70" fill="none" xmlns="http://www.w3.org/2000/svg">
<circle cx="35" cy="35" r="35" fill="#FF7028"/>
<path d="M44.2049 36.24C43.5169 36.24 42.8529 36.128 42.2129 35.904C41.5889 35.664 41.0289 35.256 40.5329 34.68C40.0369 34.088 39.6529 33.264 39.3809 32.208C39.1089 31.136 38.9889 29.76 39.0209 28.08C39.0689 24.912 39.5809 22.6 40.5569 21.144C41.5329 19.672 42.9169 18.936 44.7089 18.936C45.5569 18.936 46.3649 19.168 47.1329 19.632C47.9009 20.08 48.5089 20.64 48.9569 21.312L47.0369 22.8C46.7489 22.336 46.4129 21.976 46.0289 21.72C45.6609 21.464 45.2209 21.336 44.7089 21.336C43.6369 21.336 42.8369 21.832 42.3089 22.824C41.7969 23.816 41.5249 25.288 41.4929 27.24C41.7649 26.84 42.1489 26.528 42.6449 26.304C43.1569 26.064 43.6689 25.944 44.1809 25.944C45.0769 25.944 45.8769 26.152 46.5809 26.568C47.2849 26.968 47.8369 27.544 48.2369 28.296C48.6529 29.032 48.8609 29.912 48.8609 30.936C48.8609 31.96 48.6689 32.872 48.2849 33.672C47.9009 34.472 47.3569 35.104 46.6529 35.568C45.9649 36.016 45.1489 36.24 44.2049 36.24ZM44.0369 33.792C44.7409 33.792 45.2849 33.528 45.6689 33C46.0689 32.472 46.2689 31.784 46.2689 30.936C46.2689 30.136 46.0689 29.496 45.6689 29.016C45.2849 28.52 44.7729 28.272 44.1329 28.272C43.3969 28.272 42.8209 28.52 42.4049 29.016C41.9889 29.512 41.7969 30.16 41.8289 30.96C41.8609 31.872 42.0689 32.576 42.4529 33.072C42.8369 33.552 43.3649 33.792 44.0369 33.792Z" fill="white"/>
<path d="M34.3694 36.2639C33.8734 36.2639 33.4414 36.0879 33.0734 35.7359C32.7214 35.3839 32.5454 34.9599 32.5454 34.4639C32.5454 33.9519 32.7214 33.5199 33.0734 33.1679C33.4414 32.8159 33.8734 32.6399 34.3694 32.6399C34.8654 32.6399 35.2894 32.8159 35.6414 33.1679C36.0094 33.5199 36.1934 33.9519 36.1934 34.4639C36.1934 34.9599 36.0094 35.3839 35.6414 35.7359C35.2894 36.0879 34.8654 36.2639 34.3694 36.2639Z" fill="white"/>
<path d="M24.848 36.144C23.84 36.144 22.904 35.896 22.04 35.4C21.176 34.904 20.496 34.24 20 33.408L22.16 32.04C22.48 32.536 22.856 32.936 23.288 33.24C23.736 33.544 24.256 33.696 24.848 33.696C25.744 33.696 26.416 33.432 26.864 32.904C27.328 32.36 27.56 31.608 27.56 30.648C27.56 29.608 27.36 28.856 26.96 28.392C26.576 27.912 26.032 27.672 25.328 27.672C24.88 27.672 24.48 27.768 24.128 27.96C23.776 28.152 23.52 28.44 23.36 28.824H20.984V19.2H29.528V21.552H23.552V25.968C23.824 25.776 24.12 25.624 24.44 25.512C24.76 25.384 25.08 25.32 25.4 25.32C26.296 25.32 27.096 25.52 27.8 25.92C28.52 26.32 29.088 26.912 29.504 27.696C29.936 28.48 30.152 29.464 30.152 30.648C30.152 32.392 29.664 33.744 28.688 34.704C27.712 35.664 26.432 36.144 24.848 36.144Z" fill="white"/>
<path d="M36.9822 52.9999V51.1599L41.6822 45.2199H37.2222V43.3799H44.3622V45.2199L39.6022 51.1399H44.5622V52.9999H36.9822Z" fill="white"/>
<path d="M30.64 53.2199C29.76 53.2199 28.9667 53.0132 28.26 52.5999C27.5667 52.1732 27.0133 51.5866 26.6 50.8399C26.2 50.0799 26 49.1932 26 48.1799C26 47.1666 26.2 46.2866 26.6 45.5399C27.0133 44.7799 27.5667 44.1932 28.26 43.7799C28.9667 43.3532 29.76 43.1399 30.64 43.1399C31.5467 43.1399 32.3467 43.3532 33.04 43.7799C33.7467 44.1932 34.3 44.7799 34.7 45.5399C35.1 46.2866 35.3 47.1666 35.3 48.1799C35.3 49.1932 35.1 50.0799 34.7 50.8399C34.3 51.5866 33.7467 52.1732 33.04 52.5999C32.3467 53.0132 31.5467 53.2199 30.64 53.2199ZM30.64 51.1799C31.3467 51.1799 31.92 50.9199 32.36 50.3999C32.8133 49.8799 33.04 49.1399 33.04 48.1799C33.04 47.2199 32.8133 46.4799 32.36 45.9599C31.92 45.4399 31.3467 45.1799 30.64 45.1799C29.9467 45.1799 29.38 45.4399 28.94 45.9599C28.5 46.4799 28.28 47.2199 28.28 48.1799C28.28 49.1399 28.5 49.8799 28.94 50.3999C29.38 50.9199 29.9467 51.1799 30.64 51.1799Z" fill="white"/>
</svg>
