<svg width="70" height="70" viewBox="0 0 70 70" fill="none" xmlns="http://www.w3.org/2000/svg">
<circle cx="35" cy="35" r="35" fill="#FF7028"/>
<path d="M43.2781 35.9999V32.3279H36.7021V30.3599L43.3021 19.1279H45.7021V30.0719H48.0541V32.3279H45.7021V35.9999H43.2781ZM39.2701 30.0719H43.2781V23.2079L39.2701 30.0719Z" fill="white"/>
<path d="M32.8907 36.2639C32.3947 36.2639 31.9627 36.0879 31.5947 35.7359C31.2427 35.3839 31.0667 34.9599 31.0667 34.4639C31.0667 33.9519 31.2427 33.5199 31.5947 33.1679C31.9627 32.8159 32.3947 32.6399 32.8907 32.6399C33.3867 32.6399 33.8107 32.8159 34.1627 33.1679C34.5307 33.5199 34.7147 33.9519 34.7147 34.4639C34.7147 34.9599 34.5307 35.3839 34.1627 35.7359C33.8107 36.0879 33.3867 36.2639 32.8907 36.2639Z" fill="white"/>
<path d="M23.52 36C23.648 35.152 23.856 34.12 24.144 32.904C24.448 31.688 24.792 30.408 25.176 29.064C25.56 27.704 25.968 26.376 26.4 25.08C26.832 23.768 27.248 22.6 27.648 21.576H21V19.2H30.48V21C30.176 21.704 29.856 22.552 29.52 23.544C29.184 24.536 28.84 25.6 28.488 26.736C28.152 27.872 27.832 29.008 27.528 30.144C27.224 31.28 26.952 32.36 26.712 33.384C26.488 34.392 26.312 35.264 26.184 36H23.52Z" fill="white"/>
<path d="M35.9822 52.9999V51.1599L40.6822 45.2199H36.2222V43.3799H43.3622V45.2199L38.6022 51.1399H43.5622V52.9999H35.9822Z" fill="white"/>
<path d="M29.64 53.2199C28.76 53.2199 27.9667 53.0132 27.26 52.5999C26.5667 52.1732 26.0133 51.5866 25.6 50.8399C25.2 50.0799 25 49.1932 25 48.1799C25 47.1666 25.2 46.2866 25.6 45.5399C26.0133 44.7799 26.5667 44.1932 27.26 43.7799C27.9667 43.3532 28.76 43.1399 29.64 43.1399C30.5467 43.1399 31.3467 43.3532 32.04 43.7799C32.7467 44.1932 33.3 44.7799 33.7 45.5399C34.1 46.2866 34.3 47.1666 34.3 48.1799C34.3 49.1932 34.1 50.0799 33.7 50.8399C33.3 51.5866 32.7467 52.1732 32.04 52.5999C31.3467 53.0132 30.5467 53.2199 29.64 53.2199ZM29.64 51.1799C30.3467 51.1799 30.92 50.9199 31.36 50.3999C31.8133 49.8799 32.04 49.1399 32.04 48.1799C32.04 47.2199 31.8133 46.4799 31.36 45.9599C30.92 45.4399 30.3467 45.1799 29.64 45.1799C28.9467 45.1799 28.38 45.4399 27.94 45.9599C27.5 46.4799 27.28 47.2199 27.28 48.1799C27.28 49.1399 27.5 49.8799 27.94 50.3999C28.38 50.9199 28.9467 51.1799 29.64 51.1799Z" fill="white"/>
</svg>
