<svg width="70" height="70" viewBox="0 0 70 70" fill="none" xmlns="http://www.w3.org/2000/svg">
<circle cx="35" cy="35" r="35" fill="#6AA6FF"/>
<path d="M48.47 55.24V48.745C47.71 49.265 46.93 49.75 46.13 50.2C45.34 50.64 44.565 51.025 43.805 51.355C43.725 51.205 43.615 51.03 43.475 50.83C43.335 50.63 43.185 50.435 43.025 50.245C42.875 50.055 42.725 49.905 42.575 49.795C43.445 49.485 44.3449 49.08 45.275 48.58C46.2049 48.08 47.1 47.525 47.96 46.915C48.83 46.305 49.625 45.665 50.345 44.995C51.065 44.325 51.65 43.66 52.1 43L53.66 44.065C53.23 44.635 52.73 45.2 52.16 45.76C51.6 46.31 50.995 46.845 50.345 47.365V55.24H48.47Z" fill="white"/>
<path d="M30.6499 55.6151C30.5899 55.4751 30.5049 55.3051 30.3949 55.1051C30.2949 54.9051 30.1799 54.7051 30.0499 54.5051C29.9199 54.3051 29.7949 54.1401 29.6749 54.0101C31.4049 53.5101 32.8549 52.7851 34.0249 51.8351C35.1949 50.8751 36.0699 49.7201 36.6499 48.3701C36.1499 48.3901 35.5799 48.4151 34.9399 48.4451C34.3099 48.4751 33.6649 48.5051 33.0049 48.5351C32.3549 48.5651 31.7349 48.5951 31.1449 48.6251C30.5649 48.6551 30.0599 48.6851 29.6299 48.7151C29.2099 48.7351 28.9199 48.7551 28.7599 48.7751L28.6099 46.9001C28.8699 46.9101 29.2399 46.9151 29.7199 46.9151C30.1999 46.9151 30.7399 46.9101 31.3399 46.9001C31.9399 46.8901 32.5599 46.8751 33.1999 46.8551C33.8399 46.8351 34.4599 46.8151 35.0599 46.7951C35.6699 46.7651 36.2149 46.7351 36.6949 46.7051C37.1749 46.6651 37.5449 46.6301 37.8049 46.6001L38.8249 47.2151C38.3049 49.2151 37.3799 50.9301 36.0499 52.3601C34.7199 53.7801 32.9199 54.8651 30.6499 55.6151ZM30.2149 45.2651V43.4651C30.5949 43.4951 31.0899 43.5151 31.6999 43.5251C32.3099 43.5351 33.0149 43.5401 33.8149 43.5401C34.5849 43.5401 35.2749 43.5301 35.8849 43.5101C36.4949 43.4901 36.9849 43.4751 37.3549 43.4651V45.2651C36.9749 45.2351 36.4949 45.2151 35.9149 45.2051C35.3449 45.1951 34.6449 45.1901 33.8149 45.1901C33.3649 45.1901 32.9049 45.1951 32.4349 45.2051C31.9749 45.2051 31.5449 45.2101 31.1449 45.2201C30.7549 45.2301 30.4449 45.2451 30.2149 45.2651Z" fill="white"/>
<path d="M17 55.465V43.375H18.83V47.92L19.505 46.96C19.745 47.14 20.06 47.355 20.45 47.605C20.85 47.855 21.275 48.115 21.725 48.385C22.175 48.645 22.61 48.885 23.03 49.105C23.45 49.325 23.805 49.49 24.095 49.6C23.975 49.71 23.835 49.87 23.675 50.08C23.525 50.28 23.38 50.49 23.24 50.71C23.11 50.92 23.01 51.1 22.94 51.25C22.7 51.13 22.4 50.965 22.04 50.755C21.69 50.545 21.315 50.32 20.915 50.08C20.525 49.83 20.145 49.58 19.775 49.33C19.415 49.08 19.1 48.855 18.83 48.655V55.465H17ZM24.2 45.55C24.01 45.23 23.76 44.895 23.45 44.545C23.15 44.185 22.875 43.895 22.625 43.675L23.465 43.03C23.605 43.15 23.78 43.33 23.99 43.57C24.2 43.8 24.405 44.035 24.605 44.275C24.805 44.515 24.96 44.72 25.07 44.89L24.2 45.55ZM22.82 46.645C22.63 46.325 22.385 45.985 22.085 45.625C21.785 45.265 21.51 44.975 21.26 44.755L22.1 44.11C22.24 44.24 22.415 44.425 22.625 44.665C22.835 44.895 23.035 45.13 23.225 45.37C23.425 45.61 23.58 45.815 23.69 45.985L22.82 46.645Z" fill="white"/>
<path fill-rule="evenodd" clip-rule="evenodd" d="M26 18C26 19.6569 24.6569 21 23 21C21.3431 21 20 19.6569 20 18C20 16.3431 21.3431 15 23 15C24.6569 15 26 16.3431 26 18ZM27 29C28.6569 29 30 27.6569 30 26C30 24.3431 28.6569 23 27 23C25.3431 23 24 24.3431 24 26C24 27.6569 25.3431 29 27 29ZM34 34C34 35.6569 32.6569 37 31 37C29.3431 37 28 35.6569 28 34C28 32.3431 29.3431 31 31 31C32.6569 31 34 32.3431 34 34ZM42 34C42 35.6569 40.6569 37 39 37C37.3431 37 36 35.6569 36 34C36 32.3431 37.3431 31 39 31C40.6569 31 42 32.3431 42 34ZM38 26C38 27.6569 36.6569 29 35 29C33.3431 29 32 27.6569 32 26C32 24.3431 33.3431 23 35 23C36.6569 23 38 24.3431 38 26ZM43 29C44.6569 29 46 27.6569 46 26C46 24.3431 44.6569 23 43 23C41.3431 23 40 24.3431 40 26C40 27.6569 41.3431 29 43 29ZM31 21C32.6569 21 34 19.6569 34 18C34 16.3431 32.6569 15 31 15C29.3431 15 28 16.3431 28 18C28 19.6569 29.3431 21 31 21ZM42 18C42 19.6569 40.6569 21 39 21C37.3431 21 36 19.6569 36 18C36 16.3431 37.3431 15 39 15C40.6569 15 42 16.3431 42 18ZM47 21C48.6569 21 50 19.6569 50 18C50 16.3431 48.6569 15 47 15C45.3431 15 44 16.3431 44 18C44 19.6569 45.3431 21 47 21Z" fill="url(#paint0_linear_320_535)"/>
<defs>
<linearGradient id="paint0_linear_320_535" x1="35" y1="15" x2="35" y2="37" gradientUnits="userSpaceOnUse">
<stop stop-color="#6AA6FF"/>
<stop offset="1" stop-color="white"/>
</linearGradient>
</defs>
</svg>
