<svg width="131" height="142" viewBox="0 0 131 142" fill="none" xmlns="http://www.w3.org/2000/svg">
<rect y="33.7739" width="94" height="92" fill="#F6F3E7"/>
<path d="M87.8279 18.8895H80.4228V22.0522C80.4228 27.3233 76.124 31.6477 70.8273 31.6477H23.2082C17.9115 31.6477 13.6128 27.3182 13.6128 22.0522V18.8895H6.18204C2.76349 18.8895 0 21.653 0 25.0972V120.074C0 123.493 2.76349 126.256 6.18204 126.256H68.463C70.5152 116.344 76.5795 107.889 84.8393 102.874C81.0216 98.6317 78.6572 93.0228 78.6572 86.8664C78.6572 76.6721 85.0389 68.0132 94.0049 64.5384V25.0972C94.0049 21.653 91.2158 18.8895 87.8228 18.8895H87.8279ZM34.6563 100.397L23.9196 111.134C23.2645 111.733 22.4662 112.076 21.6423 112.076C20.8183 112.076 19.9893 111.733 19.3342 111.134L13.4695 105.239C12.1901 103.985 12.1901 101.933 13.4695 100.684C14.7233 99.3993 16.7754 99.3993 18.0548 100.684L21.6423 104.271L30.0709 95.8119C31.3247 94.5581 33.3769 94.5581 34.6563 95.8119C35.9101 97.0657 35.9101 99.1179 34.6563 100.397ZM34.6563 74.5381L23.9196 85.2748C23.2952 85.8736 22.4662 86.2164 21.6423 86.2164C20.8183 86.2164 19.9637 85.8736 19.3342 85.2748L13.4695 79.3794C12.1901 78.0948 12.1901 76.0478 13.4695 74.8247C14.7233 73.5402 16.7754 73.5402 18.0548 74.8247L21.6423 78.4121L30.0709 69.9528C31.3247 68.699 33.3769 68.699 34.6563 69.9528C35.9101 71.2066 35.9101 73.2587 34.6563 74.5381ZM34.6563 48.6534L23.9196 59.4157C23.2952 60.0144 22.4662 60.3573 21.6423 60.3573C20.8183 60.3573 19.9637 60.0144 19.3342 59.4157L13.4695 53.5202C12.1901 52.2408 12.1901 50.2142 13.4695 48.9656C14.7233 47.6862 16.7754 47.6862 18.0548 48.9656L21.6423 52.5274L30.0709 44.0987C31.3247 42.8449 33.3769 42.8449 34.6563 44.0987C35.9101 45.3525 35.9101 47.4047 34.6563 48.6534ZM66.3546 108.457H48.5863C46.7901 108.457 45.3418 107.035 45.3418 105.239C45.3418 103.442 46.7952 101.994 48.5863 101.994H66.3546C68.1201 101.994 69.5991 103.447 69.5991 105.239C69.5991 107.03 68.1201 108.457 66.3546 108.457ZM67.6647 82.5983H48.5863C46.7901 82.5983 45.3418 81.1449 45.3418 79.3538C45.3418 77.5626 46.7952 76.1348 48.5863 76.1348H67.6647C69.4302 76.1348 70.8836 77.5882 70.8836 79.3538C70.8836 81.1193 69.4302 82.5983 67.6647 82.5983ZM77.6593 56.7392H48.5812C46.7849 56.7392 45.3367 55.2858 45.3367 53.4946C45.3367 51.7035 46.7901 50.2757 48.5812 50.2757H77.6593C79.4556 50.2757 80.8783 51.7291 80.8783 53.4946C80.8783 55.2602 79.4556 56.7392 77.6593 56.7392Z" fill="#192130"/>
<path d="M115.033 107.397C111.415 109.639 107.147 110.908 102.603 110.908C98.0581 110.908 93.8566 109.659 90.2333 107.459C80.643 112.284 74.2051 122.566 74.2051 133.896V136.439C74.2051 139.044 76.3186 141.178 78.944 141.178H126.261C128.866 141.178 131 139.044 131 136.439V132.929C131 121.701 124.47 112.008 115.033 107.397Z" fill="#FF5906"/>
<path d="M85.1771 87.0247C85.1771 96.6457 92.9763 104.445 102.597 104.445C112.218 104.445 120.018 96.6457 120.018 87.0247C120.018 77.4036 112.218 69.6044 102.597 69.6044C92.9763 69.6044 85.1771 77.4036 85.1771 87.0247Z" fill="#FF5906"/>
<path d="M23.198 25.1734H70.812C72.5417 25.1734 73.949 23.7712 73.949 22.0363V12.7581C73.949 11.0284 72.5468 9.62106 70.812 9.62106H59.2616C57.885 4.10942 52.9363 0 47.005 0C41.0737 0 36.125 4.10942 34.7484 9.62106H23.1929C21.4631 9.62106 20.0558 11.0233 20.0558 12.7581V22.0363C20.0558 23.7661 21.458 25.1734 23.1929 25.1734H23.198ZM47.0101 7.46144C49.8862 7.46144 52.2198 9.79505 52.2198 12.6711C52.2198 15.5472 49.8862 17.8808 47.0101 17.8808C44.134 17.8808 41.8004 15.5472 41.8004 12.6711C41.8004 9.79505 44.134 7.46144 47.0101 7.46144Z" fill="#192130"/>
</svg>
