<svg width="121" height="121" viewBox="0 0 121 121" fill="none" xmlns="http://www.w3.org/2000/svg">
<rect x="24.8179" y="43.1636" width="77.8685" height="49.8083" transform="rotate(-30.7447 24.8179 43.1636)" fill="#F6F3E7"/>
<path d="M119.863 42.4607L97.3922 4.67533C94.6652 0.0895677 89.7351 -1.16538 85.9372 1.09919L26.0297 36.7285C22.765 38.677 21.3921 42.5881 22.798 46.5605C17.547 49.9008 9.05015 82.2936 9.05015 82.2936L1.71859 88.408C0.0626179 89.7856 -0.461065 92.1021 0.430611 94.06L13.4378 118.187C14.5465 120.239 17.0281 121.122 19.1747 120.211C23.2415 118.489 29.9786 115.941 36.1071 115.036C40.8061 114.342 46.5949 109.78 47.5904 108.553C50.5815 104.878 81.4411 66.9417 81.4411 66.9417C84.5171 63.1627 83.7811 57.4777 79.7285 54.6281C76.0344 52.0333 70.9155 52.9674 68.0659 56.468L53.4877 74.3912C51.2656 77.1229 47.0006 76.8115 45.1984 73.7826L37.5744 60.9642L101.718 22.7966L114.622 44.4941C115.315 45.6689 114.938 47.1833 113.763 47.8768L89.301 62.4267C89.3105 62.5116 89.3105 62.5824 89.3105 62.6673C89.3105 64.5545 88.6924 66.4369 87.4139 68.0127L72.4394 86.4265L72.8357 87.12C74.4162 89.8752 77.9546 90.8377 80.7004 89.2572L81.5307 88.7854C84.2765 87.2144 85.489 83.9874 84.6445 81.0764C85.272 81.2699 85.9277 81.3737 86.593 81.3737C87.73 81.3737 88.8764 81.0859 89.9191 80.4867C93.1272 78.6467 94.2548 74.5233 92.4148 71.3057L92.4054 71.2774C93.0423 71.4803 93.7075 71.5841 94.3822 71.5841C95.5097 71.5841 96.6562 71.3057 97.6988 70.7066C100.685 68.994 101.86 65.2999 100.52 62.2003L116.589 52.6513C120.387 50.3962 121.637 45.466 119.854 42.4654L119.863 42.4607ZM31.4175 50.6226L28.0065 44.881C27.3036 43.7062 27.6904 42.1918 28.8652 41.4983L88.7726 5.85952C89.9379 5.16599 91.4524 5.55285 92.1553 6.71817L95.5663 12.4692L31.4175 50.6226Z" fill="#192130"/>
<path d="M92.4336 51.5285L103.686 44.8338C104.837 44.1497 105.214 42.6636 104.53 41.5125L100.676 35.0348C99.9917 33.8837 98.5055 33.5062 97.3544 34.1903L86.1023 40.885C84.9511 41.5691 84.5737 43.0552 85.2578 44.2064L89.1123 50.684C89.7964 51.8351 91.2825 52.2126 92.4289 51.5285H92.4336Z" fill="#FF5906"/>
</svg>
