<svg width="217" height="97" viewBox="0 0 217 97" fill="none" xmlns="http://www.w3.org/2000/svg">
<rect x="11" y="7" width="112" height="58" fill="#F6F3E7"/>
<path d="M6.39277 44.2705L14.8851 42.5562L21.0061 24.737C22.441 20.572 26.3681 17.7588 30.7937 17.7588H42.9148V9.38728C42.9148 4.22541 47.1213 0 52.3021 0H124.077C129.258 0 133.465 4.22541 133.465 9.38728V77.4168C133.465 79.0707 132.128 80.4074 130.474 80.4074H121.502C121.513 80.6415 121.54 80.8719 121.54 81.1098C121.54 89.5115 114.705 96.3462 106.304 96.3462C97.9018 96.3462 91.0671 89.5115 91.0671 81.1098C91.0671 80.8719 91.0936 80.6415 91.1049 80.4074H41.7782C41.7896 80.6415 41.816 80.8719 41.816 81.1098C41.816 89.5115 34.9813 96.3462 26.5796 96.3462C18.1779 96.3462 11.3432 89.5115 11.3432 81.1098C11.3432 80.8719 11.3696 80.6415 11.3809 80.4074H2.99054C1.33663 80.4074 -0.000104145 79.0707 -0.000104145 77.4168V52.0832C-0.000104145 48.2958 2.68845 45.0069 6.39654 44.2705H6.39277ZM106.304 90.3687C111.409 90.3687 115.562 86.215 115.562 81.1135C115.562 76.0121 111.409 71.8584 106.304 71.8584C101.198 71.8584 97.0484 76.0121 97.0484 81.1135C97.0484 86.215 101.202 90.3687 106.304 90.3687ZM64.7102 52.0341C64.7102 53.2047 65.3899 54.2658 66.4548 54.7529L86.9437 64.1288C87.3402 64.3101 87.7631 64.4007 88.186 64.4007C88.6089 64.4007 89.0356 64.3101 89.4283 64.1288L109.917 54.7529C110.982 54.2658 111.662 53.2047 111.662 52.0341V27.2292C111.662 26.0586 110.982 24.9975 109.917 24.5104L89.4283 15.1344C88.6391 14.7719 87.7291 14.7719 86.9399 15.1344L66.451 24.5104C65.3861 24.9975 64.7065 26.0586 64.7065 27.2292V52.0341H64.7102ZM42.9073 42.1597V23.7439H30.7861C28.9132 23.7439 27.2593 24.9182 26.6589 26.693L21.3384 42.1597H42.9073ZM26.5758 90.3687C31.681 90.3687 35.8309 86.215 35.8309 81.1135C35.8309 76.0121 31.6773 71.8584 26.5758 71.8584C21.4743 71.8584 17.3169 76.0121 17.3169 81.1135C17.3169 86.215 21.4706 90.3687 26.5758 90.3687Z" fill="#192130"/>
<path d="M105.688 50.112L91.1802 56.7541V38.5233L105.688 31.8849V50.112Z" fill="#FF5906"/>
<path d="M88.1895 21.143L101.493 27.23L88.1895 33.317L74.8864 27.23L88.1895 21.143Z" fill="#FF5906"/>
<path d="M85.1991 56.7541L70.6915 50.112V31.8849L85.1991 38.5233V56.7541Z" fill="#FF5906"/>
<path d="M190.687 43.5149C187.001 43.5149 184.046 46.3767 183.954 50.0383C183.943 50.5626 183.989 51.0847 184.106 51.5738H176.64C175.675 51.5738 174.895 50.7939 174.895 49.829V35.467C174.895 34.5021 175.675 33.7222 176.64 33.7222H191.013C191.978 33.7222 192.757 34.5021 192.757 35.467V43.3298C192.165 43.4466 191.524 43.5171 190.931 43.5171H190.687V43.5149Z" fill="#FF5906"/>
<path d="M195.956 67.6702L201.05 57.6109L201.096 51.0633C197.283 53.5286 191.803 53.425 190.548 53.3898C188.792 53.3435 187.395 51.8785 187.441 50.1226C187.488 48.3557 188.942 46.9942 190.709 47.0052C193.209 47.0625 196.767 46.1218 198.093 44.866C199.534 43.4825 200.292 41.4931 200.803 40.1206C201.164 39.1666 201.711 38.3185 202.385 37.6201C203.559 38.0739 204.839 38.3185 206.165 38.3185C208.177 38.3185 210.049 37.7611 211.656 36.7829C211.946 36.968 212.226 37.2015 212.482 37.446C213.889 38.7943 214.691 40.6802 214.702 42.6211L215.017 58.3313C215.028 58.5516 215.017 58.7741 214.982 58.9945L213.354 69.8447L216.632 81.325C217.168 83.2086 216.075 85.1738 214.189 85.7091C213.863 85.8017 213.537 85.8479 213.213 85.8479C211.667 85.8479 210.248 84.8367 209.805 83.2769L206.315 71.0542C206.176 70.5783 206.141 70.054 206.212 69.5539L207.595 60.389L202.605 70.2501L201.605 82.5896C201.442 84.5437 199.71 85.9977 197.778 85.8347C195.824 85.6717 194.37 83.9621 194.522 82.0101L195.593 68.9855C195.628 68.5206 195.756 68.0778 195.954 67.6724L195.956 67.6702Z" fill="#FF5906"/>
<path d="M206.161 34.8289C202.239 34.8289 199.06 31.6499 199.06 27.7284C199.06 23.8068 202.239 20.6278 206.161 20.6278C210.082 20.6278 213.261 23.8068 213.261 27.7284C213.261 31.6499 210.082 34.8289 206.161 34.8289Z" fill="#FF5906"/>
<path d="M189.856 55.2704C190.819 55.2704 191.601 56.0525 191.601 57.0152V61.2628C191.601 62.2255 190.819 63.0076 189.856 63.0076C188.893 63.0076 188.111 62.2255 188.111 61.2628V57.0152C188.111 56.0525 188.893 55.2704 189.856 55.2704Z" fill="#FF5906"/>
<path d="M185.571 57.0131V63.6774C185.571 64.6402 184.789 65.4223 183.826 65.4223C182.863 65.4223 182.081 64.6402 182.081 63.6774V57.0131C182.081 56.0503 182.863 55.2682 183.826 55.2682C184.789 55.2682 185.571 56.0503 185.571 57.0131Z" fill="#FF5906"/>
<path d="M179.539 57.0131V61.2607C179.539 62.2234 178.757 63.0055 177.794 63.0055C176.831 63.0055 176.049 62.2234 176.049 61.2607V57.0131C176.049 56.0503 176.831 55.2682 177.794 55.2682C178.757 55.2682 179.539 56.0503 179.539 57.0131Z" fill="#FF5906"/>
<path d="M171.495 67.8553H185.864C186.827 67.8553 187.609 68.6365 187.609 69.6002V83.9665C187.609 84.9302 186.827 85.7114 185.864 85.7114H171.495C170.532 85.7114 169.75 84.9302 169.75 83.9665V69.6002C169.75 68.6365 170.532 67.8553 171.495 67.8553Z" fill="#FF5906"/>
<path d="M150.777 67.8553H165.146C166.11 67.8553 166.891 68.6365 166.891 69.6002V83.9665C166.891 84.9302 166.11 85.7114 165.146 85.7114H150.777C149.814 85.7114 149.033 84.9302 149.033 83.9665V69.6002C149.033 68.6365 149.814 67.8553 150.777 67.8553Z" fill="#FF5906"/>
<path d="M150.777 47.1365H165.146C166.11 47.1365 166.891 47.9177 166.891 48.8814V63.2499C166.891 64.2136 166.11 64.9948 165.146 64.9948H150.777C149.814 64.9948 149.033 64.2136 149.033 63.2499V48.8814C149.033 47.9177 149.814 47.1365 150.777 47.1365Z" fill="#FF5906"/>
</svg>
