<svg width="149" height="118" viewBox="0 0 149 118" fill="none" xmlns="http://www.w3.org/2000/svg">
<rect width="148" height="87" fill="white"/>
<path d="M143.453 0H4.68257C3.43829 0 2.24987 0.432836 1.37125 1.2048C0.492635 1.97677 0 3.02539 0 4.11418V91.199C0 93.4748 2.09751 95.3132 4.68765 95.3132H64.2305V106.554H53.5601C47.877 106.554 43.2757 110.601 43.2757 115.59C43.2757 116.919 44.4997 117.995 46.0131 117.995H102.138C103.651 117.995 104.875 116.919 104.875 115.59C104.875 110.596 100.269 106.554 94.591 106.554H83.9206V95.3132H143.463C146.048 95.3132 148.146 93.4703 148.146 91.199V4.11418C148.146 1.8429 146.048 0 143.463 0H143.453ZM138.771 87.0849H9.37022V8.23281H138.771V87.0893V87.0849Z" fill="#192130"/>
<path d="M53.6533 16.5103C48.4249 16.5103 44.1759 20.7593 44.1759 25.9876C44.1759 31.2159 48.4249 35.465 53.6533 35.465C58.8816 35.465 63.1306 31.2159 63.1306 25.9876C63.1306 20.7593 58.884 16.5103 53.6533 16.5103ZM58.3125 24.4369L53.3284 29.9924C53.0842 30.2367 52.757 30.4003 52.4298 30.4003C52.1026 30.4003 51.6947 30.2367 51.4481 29.9924L48.8328 27.0499C48.342 26.5591 48.4249 25.7434 48.9134 25.2526C49.4042 24.7617 50.2199 24.8447 50.7107 25.3332L52.4274 27.2135L56.4322 22.7202C56.923 22.2294 57.7387 22.1488 58.2295 22.6396C58.7203 23.1304 58.801 23.9461 58.3101 24.4369H58.3125Z" fill="#FF5906"/>
<path d="M68.6032 23.529H102.612C103.599 23.529 104.407 22.7204 104.407 21.734C104.407 20.7476 103.599 19.9391 102.612 19.9391H68.6032C67.6168 19.9391 66.8083 20.7476 66.8083 21.734C66.8083 22.7204 67.5267 23.529 68.6032 23.529Z" fill="#203A72"/>
<path d="M102.612 28.4491H68.6033C67.6169 28.4491 66.8083 29.2576 66.8083 30.244C66.8083 31.2304 67.6169 32.039 68.6033 32.039H102.612C103.599 32.039 104.407 31.2304 104.407 30.244C104.407 29.3454 103.599 28.4491 102.612 28.4491Z" fill="#203A72"/>
<path d="M53.6531 38.4099C48.4248 38.4099 44.1758 42.6589 44.1758 47.8896C44.1758 53.1203 48.4248 57.3669 53.6531 57.3669C58.8815 57.3669 63.1305 53.1179 63.1305 47.8896C63.1305 42.6613 58.8815 38.4122 53.6531 38.4122V38.4099ZM58.3124 46.3365L53.3283 51.892C53.0841 52.1363 52.7569 52.2999 52.4296 52.2999C52.1024 52.2999 51.6946 52.1363 51.448 51.892L48.8327 48.9495C48.3418 48.4587 48.4248 47.643 48.9133 47.1522C49.4041 46.6613 50.2198 46.7443 50.7106 47.2328L52.4273 49.1131L56.4321 44.6198C56.9229 44.129 57.7386 44.0484 58.2294 44.5392C58.7202 45.03 58.8008 45.8457 58.31 46.3365H58.3124Z" fill="#FF5906"/>
<path d="M68.6031 45.4288H102.612C103.598 45.4288 104.407 44.6203 104.407 43.6339C104.407 42.6475 103.598 41.8389 102.612 41.8389H68.6031C67.6167 41.8389 66.8082 42.6475 66.8082 43.6339C66.8082 44.6203 67.5266 45.4288 68.6031 45.4288Z" fill="#203A72"/>
<path d="M102.612 50.3487H68.6032C67.6168 50.3487 66.8082 51.1572 66.8082 52.1436C66.8082 53.13 67.6168 53.9386 68.6032 53.9386H102.612C103.599 53.9386 104.407 53.13 104.407 52.1436C104.407 51.245 103.599 50.3487 102.612 50.3487Z" fill="#203A72"/>
<path d="M53.6531 60.3116C48.4248 60.3116 44.1758 64.5606 44.1758 69.7889C44.1758 75.0173 48.4248 79.2663 53.6531 79.2663C58.8815 79.2663 63.1305 75.0173 63.1305 69.7889C63.1305 64.5606 58.8815 60.3116 53.6531 60.3116ZM58.3124 68.2359L53.3283 73.7914C53.0841 74.0356 52.7569 74.1992 52.4296 74.1992C52.1024 74.1992 51.6946 74.0356 51.448 73.7914L48.8327 70.8488C48.3418 70.358 48.4248 69.5424 48.9133 69.0515C49.4041 68.5607 50.2198 68.6437 50.7106 69.1321L52.4273 71.0124L56.4321 66.5192C56.9229 66.0284 57.7386 65.9477 58.2294 66.4386C58.7202 66.9294 58.8008 67.745 58.31 68.2359H58.3124Z" fill="#FF5906"/>
<path d="M68.6031 67.3277H102.612C103.598 67.3277 104.407 66.5192 104.407 65.5328C104.407 64.5464 103.598 63.7379 102.612 63.7379H68.6031C67.6167 63.7379 66.8082 64.5464 66.8082 65.5328C66.8082 66.5192 67.5266 67.3277 68.6031 67.3277Z" fill="#203A72"/>
<path d="M102.612 72.2488H68.6032C67.6168 72.2488 66.8082 73.0573 66.8082 74.0437C66.8082 75.0301 67.6168 75.8387 68.6032 75.8387H102.612C103.599 75.8387 104.407 75.0301 104.407 74.0437C104.407 73.1451 103.599 72.2488 102.612 72.2488Z" fill="#203A72"/>
</svg>
