<svg width="183" height="136" viewBox="0 0 183 136" fill="none" xmlns="http://www.w3.org/2000/svg">
<path d="M53.3775 63.5112H8.09899C3.62742 63.5112 0 66.9724 0 71.2392V114.444C0 118.711 3.62742 122.172 8.09899 122.172H53.3775C57.8491 122.172 61.4765 118.716 61.4765 114.444V71.2392C61.4765 66.9724 57.8491 63.5112 53.3775 63.5112ZM42.954 80.6074C42.954 81.6581 42.0609 82.5102 40.9537 82.5102H20.5166C19.4156 82.5102 18.5225 81.6581 18.5225 80.6074V76.8251C18.5225 75.7745 19.4156 74.9223 20.5166 74.9223H40.9537C42.0548 74.9223 42.954 75.7745 42.954 76.8251V80.6074Z" fill="#192130"/>
<path d="M123.302 63.5112H78.0234C73.5519 63.5112 69.9244 66.9724 69.9244 71.2392V114.444C69.9244 118.711 73.5519 122.172 78.0234 122.172H123.302C127.774 122.172 131.401 118.716 131.401 114.444V71.2392C131.401 66.9724 127.78 63.5112 123.302 63.5112ZM112.885 80.6074C112.885 81.6581 111.991 82.5102 110.89 82.5102H90.4533C89.3522 82.5102 88.4591 81.6581 88.4591 80.6074V76.8251C88.4591 75.7745 89.3522 74.9223 90.4533 74.9223H110.89C111.991 74.9223 112.885 75.7745 112.885 76.8251V80.6074Z" fill="#192130"/>
<path d="M87.6331 0H42.3546C37.883 0 34.2556 3.46128 34.2556 7.72804V50.9327C34.2556 55.1994 37.883 58.6607 42.3546 58.6607H87.6331C92.1047 58.6607 95.7321 55.2053 95.7321 50.9327V7.72804C95.7321 3.46128 92.1108 0 87.6331 0ZM77.2158 17.0962C77.2158 18.1469 76.3227 18.9991 75.2216 18.9991H54.7845C53.6834 18.9991 52.7903 18.1469 52.7903 17.0962V13.3139C52.7903 12.2633 53.6834 11.4111 54.7845 11.4111H75.2216C76.3227 11.4111 77.2158 12.2633 77.2158 13.3139V17.0962Z" fill="#192130"/>
<path d="M182.071 84.7799L174.74 63.9654C172.992 59.0066 169.013 55.0599 163.888 53.2019L152.383 49.0325C151.535 56.7843 144.391 62.8603 135.733 62.8603C127.074 62.8603 119.926 56.7803 119.077 49.0284L107.572 53.1978C102.448 55.0558 98.4686 59.0066 96.7208 63.9613L89.3902 84.7799C89.2332 85.2211 89.3053 85.7028 89.6023 86.0712C90.8877 87.658 95.1511 91.7302 105.26 92.0419C105.82 92.0581 106.359 91.7464 106.626 91.2769C109.728 85.804 110.788 84.3873 110.788 84.3873V131.598C110.788 132.214 111.195 132.76 111.81 132.942C114.657 133.788 123.294 135.999 135.724 135.999C148.154 135.999 156.791 133.788 159.638 132.942C160.253 132.76 160.66 132.214 160.66 131.598V84.3873C160.66 84.3873 161.721 85.804 164.822 91.2769C165.089 91.7464 165.628 92.0581 166.188 92.0419C176.301 91.7302 180.565 87.654 181.85 86.0712C182.147 85.7028 182.219 85.2211 182.062 84.7799H182.071ZM153.049 77.6474C153.049 78.7606 152.103 79.6633 150.937 79.6633H143.042C141.875 79.6633 140.929 78.7606 140.929 77.6474V76.7569C140.929 75.6437 141.875 74.741 143.042 74.741H150.937C152.103 74.741 153.049 75.6437 153.049 76.7569V77.6474Z" fill="#FF5906"/>
</svg>
