<svg width="24" height="26" viewBox="0 0 24 26" fill="none" xmlns="http://www.w3.org/2000/svg">
<path d="M18.0972 0.00410526V0H5.3464C4.58285 0 3.95813 0.615789 3.95813 1.36842V7.46382H5.80916V1.82456H16.2457V7.63898H22.144V24.1754H5.80916V18.5316H3.95813V24.6316C3.95813 25.3842 4.58285 26 5.3464 26H22.6073C23.3708 26 23.9955 25.3842 23.9955 24.6316V5.81442L24.0002 5.81032L18.0972 0.00410526ZM18.0972 5.81442V2.58449L21.3736 5.81396H18.0972V5.81442Z" fill="white"/>
<path d="M7.27063 11.6987H6.73059V14.3019H7.28266C8.0314 14.3019 8.46131 13.8275 8.46131 13.0006C8.46131 12.1736 8.03834 11.6987 7.27063 11.6987Z" fill="white"/>
<path d="M14.6939 8.83691H0.462758C0.208241 8.83691 0 9.04218 0 9.29305V16.7072C0 16.958 0.208241 17.1633 0.462758 17.1633H14.6939C14.9485 17.1633 15.1567 16.958 15.1567 16.7072V9.29305C15.1567 9.04218 14.9485 8.83691 14.6939 8.83691ZM3.47485 13.6738H2.81449V15.263H1.78254V10.7121H3.49197C4.38787 10.7121 4.9603 11.3325 4.9603 12.1873C4.9603 13.1037 4.39897 13.6738 3.47485 13.6738ZM8.97704 14.6782C8.58508 15.0806 8.0381 15.2931 7.39626 15.2931H5.57021V10.7071H7.38422C8.7017 10.7071 9.58649 11.6285 9.58649 13.0001C9.58649 13.6889 9.37593 14.2691 8.97704 14.6782ZM13.3742 11.5961H11.4482V12.6603H13.1192V13.5256H11.4482V15.2685H10.2834V10.7071H13.3742V11.5961Z" fill="white"/>
<path d="M3.25938 11.6274H2.79755V12.7591H3.26539C3.63375 12.7591 3.92853 12.6182 3.92853 12.1935C3.92853 11.7688 3.63375 11.6279 3.25938 11.6279V11.6274Z" fill="white"/>
</svg>
