<svg width="42" height="49" viewBox="0 0 42 49" fill="none" xmlns="http://www.w3.org/2000/svg">
<path d="M1.295 0H40.2651C40.9773 0 41.5601 0.502159 41.5601 1.11591V47.4736C41.5601 48.0873 40.9773 48.5895 40.2651 48.5895H1.295C0.58278 48.5895 5.71796e-05 48.0873 5.71796e-05 47.4736V1.11591C5.71796e-05 0.502159 0.58278 0 1.295 0ZM35.0746 4.99369C35.0746 4.37994 34.4918 3.87778 33.7796 3.87778H6.85353C6.14131 3.87778 5.55859 4.37994 5.55859 4.99369V11.6585C5.55859 12.2722 6.14131 12.7744 6.85353 12.7744H33.7796C34.4918 12.7744 35.0746 12.2722 35.0746 11.6585V4.99369ZM29.2506 40.8004C29.2506 41.4142 29.8333 41.9163 30.5455 41.9163H35.1026C35.8148 41.9163 36.3976 41.4142 36.3976 40.8004V39.7245C36.3976 39.1107 35.8148 38.6086 35.1026 38.6086H30.5455C29.8333 38.6086 29.2506 39.1107 29.2506 39.7245V40.8004ZM29.2506 34.5271C29.2506 35.1409 29.8333 35.6431 30.5455 35.6431H35.1026C35.8148 35.6431 36.3976 35.1409 36.3976 34.5271V33.4512C36.3976 32.8375 35.8148 32.3353 35.1026 32.3353H30.5455C29.8333 32.3353 29.2506 32.8375 29.2506 33.4512V34.5271ZM29.2506 28.2539C29.2506 28.8676 29.8333 29.3698 30.5455 29.3698H35.1026C35.8148 29.3698 36.3976 28.8676 36.3976 28.2539V27.178C36.3976 26.5642 35.8148 26.0621 35.1026 26.0621H30.5455C29.8333 26.0621 29.2506 26.5642 29.2506 27.178V28.2539ZM29.2506 21.8672C29.2506 22.4809 29.8333 22.9831 30.5455 22.9831H35.1026C35.8148 22.9831 36.3976 22.4809 36.3976 21.8672V20.7912C36.3976 20.1775 35.8148 19.6753 35.1026 19.6753H30.5455C29.8333 19.6753 29.2506 20.1775 29.2506 20.7912V21.8672ZM16.9411 40.8004C16.9411 41.4142 17.5238 41.9163 18.236 41.9163H22.7931C23.5054 41.9163 24.0881 41.4142 24.0881 40.8004V39.7245C24.0881 39.1107 23.5054 38.6086 22.7931 38.6086H18.236C17.5238 38.6086 16.9411 39.1107 16.9411 39.7245V40.8004ZM16.9411 34.5271C16.9411 35.1409 17.5238 35.6431 18.236 35.6431H22.7931C23.5054 35.6431 24.0881 35.1409 24.0881 34.5271V33.4512C24.0881 32.8375 23.5054 32.3353 22.7931 32.3353H18.236C17.5238 32.3353 16.9411 32.8375 16.9411 33.4512V34.5271ZM16.9411 28.2539C16.9411 28.8676 17.5238 29.3698 18.236 29.3698H22.7931C23.5054 29.3698 24.0881 28.8676 24.0881 28.2539V27.178C24.0881 26.5642 23.5054 26.0621 22.7931 26.0621H18.236C17.5238 26.0621 16.9411 26.5642 16.9411 27.178V28.2539ZM16.9411 21.8672C16.9411 22.4809 17.5238 22.9831 18.236 22.9831H22.7931C23.5054 22.9831 24.0881 22.4809 24.0881 21.8672V20.7912C24.0881 20.1775 23.5054 19.6753 22.7931 19.6753H18.236C17.5238 19.6753 16.9411 20.1775 16.9411 20.7912V21.8672ZM4.89709 40.8004C4.89709 41.4142 5.47981 41.9163 6.19203 41.9163H10.7491C11.4614 41.9163 12.0441 41.4142 12.0441 40.8004V39.7245C12.0441 39.1107 11.4614 38.6086 10.7491 38.6086H6.19203C5.47981 38.6086 4.89709 39.1107 4.89709 39.7245V40.8004ZM4.89709 34.5271C4.89709 35.1409 5.47981 35.6431 6.19203 35.6431H10.7491C11.4614 35.6431 12.0441 35.1409 12.0441 34.5271V33.4512C12.0441 32.8375 11.4614 32.3353 10.7491 32.3353H6.19203C5.47981 32.3353 4.89709 32.8375 4.89709 33.4512V34.5271ZM4.89709 28.2539C4.89709 28.8676 5.47981 29.3698 6.19203 29.3698H10.7491C11.4614 29.3698 12.0441 28.8676 12.0441 28.2539V27.178C12.0441 26.5642 11.4614 26.0621 10.7491 26.0621H6.19203C5.47981 26.0621 4.89709 26.5642 4.89709 27.178V28.2539ZM4.89709 21.8672C4.89709 22.4809 5.47981 22.9831 6.19203 22.9831H10.7491C11.4614 22.9831 12.0441 22.4809 12.0441 21.8672V20.7912C12.0441 20.1775 11.4614 19.6753 10.7491 19.6753H6.19203C5.47981 19.6753 4.89709 20.1775 4.89709 20.7912V21.8672Z" fill="white"/>
</svg>
