<svg width="15" height="18" viewBox="0 0 15 18" fill="none" xmlns="http://www.w3.org/2000/svg">
<path d="M8.75533 12.6637L10.4728 12.0186C10.7035 11.9336 10.9682 11.9113 11.2349 11.9544C11.5015 11.9975 11.7586 12.1042 11.9748 12.2616L13.4681 13.3584C13.6859 13.5199 13.851 13.7262 13.9427 13.9512C14.0344 14.1763 14.0485 14.41 13.9833 14.6229L13.1983 17.0876C13.1509 17.2315 13.0679 17.3614 12.9544 17.4697C12.8409 17.578 12.6992 17.6624 12.5378 17.7178C12.3764 17.7731 12.1986 17.7983 12.0152 17.7919C11.8318 17.7854 11.6465 17.7474 11.4706 17.6802C-0.00609381 13.1731 0.184038 4.39652 0.712421 1.19072C0.739564 1.0337 0.80683 0.888124 0.909794 0.763584C1.01276 0.639043 1.14909 0.538355 1.30981 0.468145C1.47053 0.397934 1.65201 0.359792 1.8423 0.356228C2.03259 0.352664 2.22738 0.383758 2.41386 0.447465L5.3587 1.43731C5.62129 1.52627 5.85739 1.67668 6.03664 1.86919C6.21589 2.0617 6.3301 2.28751 6.36456 2.51758L6.6005 4.08667C6.63649 4.31327 6.59365 4.53439 6.47734 4.7224C6.36104 4.91042 6.17641 5.05699 5.94653 5.14382L4.22911 5.78893C4.22911 5.78893 3.64492 10.3566 8.75533 12.6637Z" fill="black"/>
</svg>
