<svg width="40" height="40" viewBox="0 0 40 40" fill="none" xmlns="http://www.w3.org/2000/svg">
<circle cx="20" cy="20" r="20" fill="url(#paint0_linear_323_1241)"/>
<path d="M19.72 29.288C18.456 29.288 17.28 29.064 16.192 28.616C15.104 28.168 14.152 27.544 13.336 26.744C12.536 25.944 11.904 25.016 11.44 23.96C10.992 22.888 10.768 21.736 10.768 20.504C10.768 19.256 10.992 18.104 11.44 17.048C11.888 15.992 12.512 15.072 13.312 14.288C14.128 13.488 15.072 12.872 16.144 12.44C17.232 11.992 18.408 11.768 19.672 11.768C20.952 11.768 22.128 11.992 23.2 12.44C24.288 12.872 25.232 13.488 26.032 14.288C26.848 15.072 27.48 16 27.928 17.072C28.376 18.128 28.6 19.28 28.6 20.528C28.6 21.76 28.376 22.912 27.928 23.984C27.48 25.04 26.848 25.968 26.032 26.768C25.232 27.552 24.296 28.168 23.224 28.616C22.152 29.064 20.984 29.288 19.72 29.288ZM19.672 25.856C20.696 25.856 21.584 25.632 22.336 25.184C23.088 24.736 23.672 24.112 24.088 23.312C24.52 22.496 24.736 21.56 24.736 20.504C24.736 19.704 24.616 18.984 24.376 18.344C24.136 17.688 23.792 17.128 23.344 16.664C22.896 16.184 22.36 15.824 21.736 15.584C21.128 15.328 20.44 15.2 19.672 15.2C18.664 15.2 17.784 15.424 17.032 15.872C16.28 16.304 15.688 16.92 15.256 17.72C14.84 18.504 14.632 19.432 14.632 20.504C14.632 21.304 14.752 22.032 14.992 22.688C15.232 23.344 15.576 23.912 16.024 24.392C16.472 24.856 17 25.216 17.608 25.472C18.232 25.728 18.92 25.856 19.672 25.856ZM27.28 30.344L19.36 22.424L21.544 20.24L29.464 28.16L27.28 30.344Z" fill="white"/>
<defs>
<linearGradient id="paint0_linear_323_1241" x1="4.84127" y1="7.61905" x2="35.9524" y2="32.0635" gradientUnits="userSpaceOnUse">
<stop stop-color="#E87914"/>
<stop offset="1" stop-color="#FF5906"/>
</linearGradient>
</defs>
</svg>
