<svg width="300" height="30" viewBox="0 0 300 30" fill="none" xmlns="http://www.w3.org/2000/svg">
<path fill-rule="evenodd" clip-rule="evenodd" d="M10.9091 10.7576H17.1212L21.2121 16.0606L27.2727 16.2121L31.2121 10.7576H38.6364L34.8485 16.0606H41.8182L46.6667 10.7576H64.3939L60.303 16.0606H68.1818L72.1212 10.7576H88.6364L85.1515 16.0606H110.455L116.364 8.18182L111.212 8.03031L114.091 4.39394H118.939L122.121 0H128.939L125.758 4.39394H132.879L130.303 8.03031H122.879L116.97 16.0606H129.545L133.636 10.7576H151.97L149.242 14.697H137.424L136.667 16.8182H141.515V15.6061H147.727V16.5152H154.848L159.848 10.7576H178.03L174.242 14.697H168.939V13.1818H165.152L162.576 15.1515V16.8182H166.97V15.6061H173.939V16.8182H181.364L194.394 0H201.667L193.788 10.7576H204.242L199.848 16.5152H206.818L211.667 10.7576H228.03L224.091 16.5152H231.515L236.212 10.7576H243.485L239.394 16.5152H246.515L250.909 10.7576H269.394L266.515 14.2424H260.303V12.8788H256.515L254.394 14.8485V16.5152H258.636V15.4546H265.606V16.5152H271.818L276.97 10.7576H289.242V9.24243H295.758L291.515 14.8485V16.5152H300L298.636 18.9394H215.455L219.545 12.8788H216.212L211.667 18.9394H189.697L194.394 12.8788H190.909L186.061 18.9394H76.5152L80.4545 13.1818H77.1212L72.5758 18.9394H57.8788L48.1818 29.697H34.8485L38.0303 25.7576H45.1515L50 18.9394H15.9091L16.3636 16.2121L14.2424 14.2424L9.24242 18.3333H0L8.0303 14.0909L10.9091 10.7576ZM33.6364 7.42424L36.6667 3.48485L43.0303 3.78788L40.303 7.57576L33.6364 7.42424ZM93.4848 11.9697L91.8182 14.0909H103.182L104.848 11.9697H93.4848ZM238.485 7.72728L241.515 3.78788H248.636L245.758 7.72728H238.485ZM282.575 13.0298L280.303 16.6662H283.636L285.909 13.0298H282.575ZM138.636 12.7256L138.182 13.6347H143.659L143.94 12.7256H138.636ZM49.0909 16.2118C49.2122 15.8482 50.3536 14.1411 50.9091 13.333H55.4546L53.4849 16.2118H49.0909Z" fill="white"/>
</svg>
