<svg width="180" height="18" viewBox="0 0 180 18" fill="none" xmlns="http://www.w3.org/2000/svg">
<path fill-rule="evenodd" clip-rule="evenodd" d="M6.54545 6.45455H10.2727L12.7273 9.63637L16.3636 9.72728L18.7273 6.45455H23.1818L20.9091 9.63637H25.0909L28 6.45455H38.6364L36.1818 9.63637H40.9091L43.2727 6.45455H53.1818L51.0909 9.63637H66.2727L69.8182 4.90909L66.7273 4.81819L68.4545 2.63637H71.3636L73.2727 0H77.3636L75.4545 2.63637H79.7273L78.1818 4.81819H73.7273L70.1818 9.63637H77.7273L80.1818 6.45455H91.1818L89.5455 8.81819H82.4546L82 10.0909H84.9091V9.36364H88.6364V9.9091H92.9091L95.9091 6.45455H106.818L104.545 8.81819H101.364V7.9091H99.0909L97.5455 9.09092V10.0909H100.182V9.36364H104.364V10.0909H108.818L116.636 0H121L116.273 6.45455H122.545L119.909 9.9091H124.091L127 6.45455H136.818L134.455 9.9091H138.909L141.727 6.45455H146.091L143.636 9.9091H147.909L150.545 6.45455H161.636L159.909 8.54546H156.182V7.72728H153.909L152.636 8.9091V9.9091H155.182V9.27273H159.364V9.9091H163.091L166.182 6.45455H173.545V5.54546H177.455L174.909 8.9091V9.9091H180L179.182 11.3636H129.273L131.727 7.72728H129.727L127 11.3636H113.818L116.636 7.72728H114.545L111.636 11.3636H45.9091L48.2727 7.9091H46.2727L43.5455 11.3636H34.7273L28.9091 17.8182H20.9091L22.8182 15.4546H27.0909L30 11.3636H9.54545L9.81818 9.72728L8.54545 8.54546L5.54545 11H0L4.81818 8.45455L6.54545 6.45455ZM20.1818 4.45455L22 2.09091L25.8182 2.27273L24.1818 4.54546L20.1818 4.45455ZM56.0909 7.18182L55.0909 8.45455H61.9091L62.9091 7.18182H56.0909ZM143.091 4.63637L144.909 2.27273H149.182L147.455 4.63637H143.091ZM169.545 7.81764L168.182 9.99946H170.182L171.545 7.81764H169.545ZM83.1818 7.63399L82.9091 8.17945H86.1951L86.3636 7.63399H83.1818ZM29.4547 9.7281C29.5274 9.50991 30.2123 8.48567 30.5456 8.00082H33.2729L32.0911 9.7281H29.4547Z" fill="black"/>
</svg>
