<svg width="635" height="93" viewBox="0 0 635 93" fill="none" xmlns="http://www.w3.org/2000/svg">
<path fill-rule="evenodd" clip-rule="evenodd" d="M23.0909 52.593H36.2399L44.899 63.8177L57.7273 64.1384L66.0657 52.593H81.7803L73.7626 63.8177H88.5152L98.7778 52.593H136.301L127.641 63.8177H144.318L152.657 52.593H187.614L180.237 63.8177H233.795L246.303 47.1409L235.399 46.8202L241.492 39.1233H251.755L258.49 29.8228H272.922L266.187 39.1233H281.26L275.808 46.8202H260.093L247.586 63.8177H274.205L282.864 52.593H321.669L315.896 60.9313H290.881L289.278 65.4212H299.54V62.8556H312.689V64.7798H327.763L338.346 52.593H376.831L368.813 60.9313H357.588V57.7243H349.571L344.119 61.8935V65.4212H353.419V62.8556H368.172V65.4212H383.886L411.467 29.8228H426.861L410.184 52.593H432.313L423.013 64.7798H437.765L448.028 52.593H482.664L474.326 64.7798H490.04L499.982 52.593H515.376L506.717 64.7798H521.79L531.091 52.593H570.217L564.124 59.9692H550.975V57.0829H542.957L538.467 61.2521V64.7798H547.447V62.5349H562.2V64.7798H575.349L586.253 52.593H612.23V49.3859H626.02L617.04 61.2521V64.7798H635L632.114 69.9112H456.045L464.705 57.0829H457.649L448.028 69.9112H401.525L411.467 57.0829H404.091L393.828 69.9112H161.957L170.295 57.7243H163.24L153.619 69.9112H122.51L101.985 92.6814H73.7626L80.4975 84.343H95.5707L105.833 69.9112H33.6742L34.6364 64.1384L30.1465 59.9692L19.5631 68.6283H0L16.9975 59.6485L23.0909 52.593ZM71.197 45.5374L77.6111 37.199L91.0808 37.8404L85.3081 45.8581L71.197 45.5374ZM197.876 55.1586L194.348 59.6485H218.402L221.929 55.1586H197.876ZM504.793 46.1788L511.207 37.8404H526.28L520.187 46.1788H504.793ZM598.118 57.4018L593.307 65.0987H600.363L605.174 57.4018H598.118ZM293.447 56.7591L292.485 58.6833H304.077L304.672 56.7591H293.447ZM103.909 64.137C104.166 63.3673 106.582 59.754 107.758 58.0435H117.379L113.21 64.137H103.909Z" fill="white"/>
<path d="M300.801 23.1707C300.734 22.7517 300.542 22.2564 300.225 21.685C299.93 21.1136 299.595 20.6755 299.22 20.3708C302.161 19.3993 304.79 18.0375 307.107 16.2851C309.451 14.5137 311.518 12.2852 313.307 9.59949L304.994 9.82806L305.961 6.48525C306.218 6.5043 306.793 6.51382 307.687 6.51382C308.588 6.49477 309.692 6.47573 311 6.45668C312.307 6.43763 313.7 6.40906 315.177 6.37097C316.119 4.59956 316.962 2.65674 317.706 0.54248L321.475 0.571051C321.12 1.58056 320.736 2.5615 320.321 3.51386C319.907 4.46623 319.472 5.39003 319.018 6.28525C320.454 6.24716 321.799 6.20906 323.053 6.17097C324.306 6.13287 325.357 6.09478 326.204 6.05669C327.071 6.01859 327.621 5.99002 327.851 5.97097C327.554 6.77096 327.146 7.73285 326.627 8.85664C326.108 9.98044 325.545 11.1423 324.937 12.3423C324.336 13.5232 323.749 14.6375 323.178 15.6851C322.606 16.7327 322.108 17.5803 321.685 18.2279C320.851 19.5422 320.013 20.5422 319.169 21.2279C318.345 21.9136 317.37 22.3803 316.241 22.6279C315.141 22.8564 313.741 22.9612 312.041 22.9422C312.129 22.485 312.186 21.8945 312.211 21.1707C312.256 20.4469 312.195 19.847 312.026 19.3708C313.319 19.3898 314.346 19.3613 315.105 19.2851C315.865 19.2089 316.485 19.0184 316.963 18.7136C317.463 18.4089 317.93 17.9422 318.367 17.3137C318.789 16.7232 319.262 15.9708 319.784 15.0566C320.306 14.1423 320.826 13.1804 321.343 12.1709C321.867 11.1423 322.326 10.1804 322.719 9.28521L317.231 9.45664C315.168 12.7137 312.761 15.4756 310.01 17.7422C307.278 20.0089 304.209 21.8184 300.801 23.1707Z" fill="white"/>
<path d="M269.931 18.4856L271.31 14.7713C271.689 14.7904 272.312 14.8094 273.178 14.8285C274.045 14.8475 275.054 14.8666 276.205 14.8856C277.356 14.9047 278.571 14.9142 279.852 14.9142C281.132 14.9142 282.361 14.9142 283.539 14.9142C284.677 14.9142 285.825 14.9142 286.983 14.9142C288.169 14.8951 289.279 14.8856 290.316 14.8856C291.379 14.8666 292.301 14.8475 293.08 14.8285C293.859 14.8094 294.404 14.7904 294.716 14.7713L293.337 18.4856C292.925 18.4475 292.143 18.4189 290.992 18.3998C289.861 18.3808 288.524 18.3713 286.98 18.3713C285.463 18.3522 283.892 18.3427 282.266 18.3427C281.494 18.3427 280.61 18.3427 279.615 18.3427C278.639 18.3427 277.64 18.3522 276.617 18.3713C275.601 18.3713 274.633 18.3808 273.711 18.3998C272.797 18.3998 272.001 18.4094 271.324 18.4284C270.666 18.4475 270.202 18.4665 269.931 18.4856ZM276.823 8.54284L278.202 4.82861C278.5 4.84766 278.97 4.86671 279.613 4.88576C280.256 4.9048 281.011 4.92385 281.878 4.9429C282.765 4.96194 283.685 4.97147 284.64 4.97147C285.616 4.97147 286.571 4.97147 287.505 4.97147C288.704 4.97147 289.832 4.97147 290.888 4.97147C291.972 4.95242 292.904 4.93337 293.683 4.91433C294.469 4.87623 294.998 4.84766 295.269 4.82861L293.89 8.54284C293.403 8.4857 292.483 8.44761 291.128 8.42856C289.794 8.40951 288.162 8.39999 286.232 8.39999C285.46 8.39999 284.586 8.39999 283.611 8.39999C282.656 8.39999 281.708 8.40951 280.766 8.42856C279.825 8.44761 278.995 8.46666 278.276 8.4857C277.565 8.4857 277.081 8.50475 276.823 8.54284Z" fill="white"/>
<path d="M240.811 23.9422C240.775 23.6565 240.685 23.3232 240.542 22.9422C240.399 22.5613 240.232 22.1899 240.042 21.828C239.878 21.447 239.703 21.1518 239.517 20.9423C242.301 20.0661 245 18.9518 247.616 17.5995C250.258 16.228 252.724 14.6757 255.013 12.9424C257.323 11.2091 259.35 9.36148 261.094 7.3996C260.227 7.4377 259.295 7.48531 258.298 7.54246C257.329 7.58055 256.442 7.61865 255.635 7.65674C254.836 7.67579 254.243 7.68531 253.857 7.68531C252.409 8.90434 250.887 10.0472 249.292 11.1138C247.725 12.1614 246.125 13.1043 244.493 13.9424C244.388 13.7328 244.22 13.4757 243.987 13.1709C243.775 12.8662 243.543 12.5614 243.291 12.2567C243.058 11.9519 242.822 11.7138 242.581 11.5424C244.388 10.7234 246.189 9.70433 247.982 8.4853C249.783 7.24722 251.467 5.91391 253.033 4.48536C254.607 3.03776 255.93 1.60921 257.002 0.199707L260.102 1.37112C259.66 1.90444 259.212 2.42825 258.757 2.94252C258.302 3.4568 257.83 3.96156 257.341 4.45679C258.222 4.43774 259.174 4.41869 260.197 4.39965C261.247 4.36155 262.206 4.32346 263.074 4.28536C263.948 4.22822 264.579 4.17108 264.966 4.11394L266.795 5.34249C264.836 8.04721 262.48 10.59 259.727 12.9709C256.994 15.3519 254.011 17.4756 250.778 19.3423C247.566 21.2089 244.243 22.7422 240.811 23.9422Z" fill="white"/>
<path d="M211.631 24.1425C211.595 23.8568 211.505 23.5234 211.362 23.1425C211.219 22.7615 211.049 22.3996 210.851 22.0568C210.66 21.6949 210.472 21.4092 210.286 21.1997C213.41 20.2282 215.874 18.9806 217.679 17.4568C219.512 15.914 220.951 13.9521 221.998 11.5712C220.386 11.5903 218.835 11.6093 217.344 11.6284C215.874 11.6474 214.614 11.676 213.564 11.7141C212.521 11.7331 211.823 11.7522 211.47 11.7712L212.528 8.42841C212.765 8.44746 213.341 8.45698 214.255 8.45698C215.169 8.45698 216.297 8.45698 217.638 8.45698C218.986 8.43793 220.446 8.41889 222.017 8.39984C223.609 8.38079 225.191 8.36174 226.763 8.3427C228.334 8.32365 229.794 8.3046 231.142 8.28555C232.517 8.24746 233.666 8.21889 234.587 8.19984C235.536 8.16175 236.136 8.13318 236.387 8.11413L235.165 11.4855C234.901 11.4855 234.373 11.4855 233.581 11.4855C232.788 11.4855 231.813 11.4855 230.655 11.4855C229.497 11.4855 228.233 11.495 226.865 11.5141C226.702 11.5141 226.53 11.5141 226.347 11.5141C226.184 11.5141 226.012 11.5141 225.829 11.5141C224.493 14.6188 222.668 17.1807 220.354 19.1997C218.067 21.1997 215.16 22.8472 211.631 24.1425ZM218.202 4.88561L219.241 1.51423C219.484 1.51423 219.992 1.51423 220.764 1.51423C221.536 1.51423 222.464 1.5047 223.548 1.48565C224.632 1.46661 225.767 1.44756 226.953 1.42851C228.138 1.40946 229.273 1.39042 230.357 1.37137C231.448 1.33328 232.373 1.30471 233.131 1.28566C233.911 1.26661 234.415 1.24756 234.646 1.22852L233.466 4.57132C233.209 4.55228 232.691 4.55228 231.912 4.57132C231.16 4.57132 230.252 4.58085 229.188 4.59989C228.145 4.61894 227.041 4.63799 225.876 4.65704C224.731 4.67608 223.623 4.70465 222.552 4.74275C221.489 4.7618 220.564 4.79037 219.778 4.82846C219.019 4.84751 218.494 4.86656 218.202 4.88561Z" fill="white"/>
<path d="M180.71 22.0567L179.942 18.5425C181.491 18.2568 183.178 17.7901 185.003 17.1425C186.855 16.4758 188.747 15.7044 190.677 14.8282C192.615 13.933 194.492 12.9806 196.31 11.9711C198.134 10.9426 199.82 9.9045 201.367 8.8569C202.935 7.80929 204.261 6.80931 205.346 5.85694C205.307 6.18075 205.291 6.58074 205.297 7.05692C205.323 7.53311 205.363 7.99977 205.417 8.4569C205.478 8.89499 205.543 9.23784 205.614 9.48546C204.173 10.6854 202.471 11.9045 200.507 13.1425C198.572 14.3616 196.487 15.5425 194.255 16.6854C192.029 17.8091 189.758 18.8377 187.44 19.771C185.123 20.7043 182.879 21.4662 180.71 22.0567ZM188.649 9.45689C188.484 9.19023 188.225 8.87594 187.871 8.51404C187.538 8.15215 187.152 7.7712 186.711 7.3712C186.29 6.97121 185.866 6.60931 185.438 6.28551C185.016 5.94265 184.634 5.68551 184.292 5.51409L187.801 2.62842C188.13 2.83794 188.508 3.1046 188.937 3.42841C189.365 3.75221 189.793 4.10459 190.22 4.48553C190.668 4.86648 191.075 5.24743 191.442 5.62837C191.815 5.99027 192.102 6.31408 192.3 6.59979L188.649 9.45689Z" fill="white"/>
<path d="M157.568 23.3139L162.161 10.9427C160.249 11.9332 158.322 12.857 156.378 13.7141C154.462 14.5522 152.615 15.2855 150.837 15.9141C150.781 15.6283 150.681 15.295 150.538 14.9141C150.395 14.5331 150.228 14.1617 150.037 13.7998C149.867 13.4379 149.668 13.1522 149.441 12.9427C151.428 12.3522 153.543 11.5808 155.787 10.6284C158.03 9.67605 160.241 8.61892 162.419 7.45703C164.618 6.29514 166.686 5.07612 168.623 3.79994C170.56 2.52377 172.219 1.25712 173.6 0L176.016 2.02854C174.739 3.11424 173.324 4.19041 171.77 5.25706C170.243 6.30467 168.635 7.3237 166.947 8.31416L161.378 23.3139H157.568Z" fill="white"/>
<path d="M123.907 24.2565C123.791 23.8565 123.599 23.3898 123.329 22.8565C123.06 22.3232 122.748 21.9041 122.394 21.5994C125.581 20.5137 128.184 19.0566 130.204 17.228C132.251 15.3804 133.846 12.9995 134.989 10.0853H129.656L127.545 15.7709H123.888L125.988 10.1138C124.993 10.1138 124.024 10.1234 123.082 10.1424C122.168 10.1424 121.352 10.1519 120.634 10.171C119.943 10.171 119.441 10.1805 119.13 10.1996L120.403 6.77104C120.626 6.77104 121.07 6.78056 121.733 6.79961C122.417 6.81866 123.232 6.8377 124.18 6.85675C125.156 6.85675 126.158 6.86628 127.187 6.88532C127.512 6.00915 127.817 5.16154 128.101 4.3425C128.405 3.52347 128.663 2.79967 128.876 2.17111C129.097 1.5235 129.239 1.05684 129.305 0.771127H133.236C133.11 1.05684 132.916 1.5235 132.656 2.17111C132.395 2.81872 132.099 3.56156 131.767 4.39965C131.463 5.21868 131.152 6.05676 130.834 6.91389H136.167C136.415 6.24724 136.687 5.48534 136.985 4.62821C137.283 3.77108 137.57 2.94252 137.847 2.14254C138.131 1.3235 138.351 0.675891 138.508 0.199707H142.317L139.835 6.88532C140.838 6.86628 141.796 6.85675 142.71 6.85675C143.652 6.8377 144.478 6.82818 145.19 6.82818C145.928 6.80913 146.474 6.79009 146.826 6.77104L145.553 10.1996C145.235 10.1805 144.71 10.171 143.979 10.171C143.275 10.1519 142.455 10.1424 141.521 10.1424C140.593 10.1234 139.632 10.1138 138.636 10.1138C137.274 13.6186 135.38 16.5042 132.953 18.7709C130.534 21.0184 127.518 22.847 123.907 24.2565Z" fill="white"/>
<path d="M344.77 14.584L592.395 14.584" stroke="white"/>
<path d="M31.4293 14.584L100.955 14.584" stroke="white"/>
</svg>
