<svg width="1508" height="96" viewBox="0 0 1508 96" fill="none" xmlns="http://www.w3.org/2000/svg">
<g opacity="0.3">
<path d="M1457.46 92.4878V93.2378H1458.21H1478H1478.75V92.4878V21.5282H1505.85H1506.6V20.7782V3.51245V2.76245H1505.85H1430.36H1429.61V3.51245V20.7782V21.5282H1430.36H1457.46V92.4878Z" stroke="url(#paint0_linear_320_427)" stroke-width="1.5"/>
<path d="M1379.41 92.4878V56.5638H1380.34L1406.66 92.9275L1406.88 93.2378H1407.26H1430.71H1432.22L1431.3 92.0325L1403.53 55.6784C1406.16 55.1214 1408.61 54.3005 1410.87 53.2129C1415.52 50.9746 1419.15 47.8627 1421.76 43.8728L1421.76 43.8729L1421.76 43.8667C1424.37 39.784 1425.66 35.0617 1425.66 29.7261C1425.66 24.472 1424.36 19.7923 1421.76 15.7117C1419.16 11.6415 1415.57 8.48554 1411 6.24436C1406.43 3.91513 1401.14 2.76245 1395.17 2.76245H1379.41H1378.66H1373.99H1373.24H1358.87H1358.12V3.51245V92.4878V93.2378H1358.87H1378.66H1379.41V92.4878ZM1379.41 40.4446V19.6378H1392.9C1396.72 19.6378 1399.52 20.6506 1401.44 22.5688C1403.39 24.5174 1404.37 26.968 1404.37 29.9782C1404.37 33.25 1403.34 35.7674 1401.34 37.6189L1401.33 37.6239L1401.33 37.6289C1399.41 39.4694 1396.6 40.4446 1392.77 40.4446H1379.41Z" stroke="url(#paint1_linear_320_427)" stroke-width="1.5"/>
<path d="M1321.2 92.4878V93.2378H1321.95H1341.73H1342.48V92.4878V3.51245V2.76245H1341.73H1321.95H1321.2V3.51245V92.4878Z" stroke="url(#paint2_linear_320_427)" stroke-width="1.5"/>
<path d="M1229.14 92.4878V93.2378H1229.89H1249.68H1250.43V92.4878V56.0597H1284.21V92.4878V93.2378H1284.96H1304.88H1305.63V92.4878V3.51245V2.76245H1304.88H1284.96H1284.21V3.51245V37.42H1250.43V3.51245V2.76245H1249.68H1229.89H1229.14V3.51245V92.4878Z" stroke="url(#paint3_linear_320_427)" stroke-width="1.5"/>
<path d="M1163.91 91.0245L1163.92 91.0276L1163.92 91.0305C1169.33 93.4352 1175.74 94.6239 1183.13 94.6239C1193.91 94.6239 1202.45 92.2061 1208.68 87.2784L1208.68 87.2744C1214.93 82.2446 1218.04 75.3408 1218.04 66.652C1218.04 61.9554 1217.27 57.9714 1215.69 54.7327C1214.14 51.4531 1212.06 48.7589 1209.45 46.6668C1206.96 44.5239 1204.21 42.7662 1201.21 41.3946C1198.25 40.0398 1195.24 38.854 1192.19 37.8374C1189.27 36.8336 1186.55 35.8306 1184.04 34.8285C1181.67 33.8455 1179.78 32.7123 1178.35 31.4415C1177 30.1696 1176.32 28.528 1176.32 26.4493C1176.32 24.2636 1177.2 22.6592 1178.99 21.5401L1179 21.5342L1179.01 21.5281C1180.86 20.2938 1183.43 19.6376 1186.79 19.6376C1190.13 19.6376 1193.08 20.2898 1195.65 21.5749L1195.65 21.5749L1195.66 21.5789C1198.34 22.8767 1201 24.8765 1203.64 27.6015L1204.17 28.1456L1204.71 27.6123L1217.56 14.8836L1218.07 14.3835L1217.59 13.8524C1214.15 9.97881 1209.77 6.93459 1204.47 4.71189C1199.24 2.484 1193.47 1.37598 1187.16 1.37598C1180.95 1.37598 1175.42 2.44026 1170.61 4.5895C1165.78 6.65804 1161.97 9.72837 1159.2 13.8025L1159.2 13.8025L1159.19 13.8117C1156.49 17.9011 1155.16 22.7549 1155.16 28.3397C1155.16 32.9551 1155.93 36.8594 1157.51 40.0175L1157.51 40.0176L1157.51 40.0251C1159.07 43.0518 1161.11 45.6115 1163.62 47.6955L1163.63 47.7045L1163.65 47.713C1166.21 49.6803 1168.99 51.3476 1171.98 52.7149L1171.99 52.7187L1172 52.7222C1174.96 53.9896 1177.91 55.1306 1180.87 56.145L1180.88 56.1471C1183.88 57.1489 1186.59 58.1903 1189 59.2706L1189 59.2707L1189.01 59.2744C1191.47 60.3393 1193.4 61.5938 1194.83 63.0234C1196.18 64.3752 1196.88 66.1487 1196.88 68.4164C1196.88 70.8376 1195.84 72.7058 1193.69 74.0869L1193.69 74.0868L1193.68 74.0937C1191.58 75.4906 1188.52 76.2362 1184.39 76.2362C1179.87 76.2362 1175.92 75.3746 1172.51 73.6737C1169.16 71.873 1166.08 69.3722 1163.28 66.1591L1162.76 65.5568L1162.19 66.1191L1149.33 78.8478L1148.83 79.35L1149.3 79.8814C1153.73 84.8193 1158.6 88.5397 1163.91 91.0245Z" stroke="url(#paint4_linear_320_427)" stroke-width="1.5"/>
<path d="M1098.15 68.7949V69.5449H1098.9H1143.51H1144.26V68.7949V51.9072V51.1572H1143.51H1098.9H1098.15V51.9072V68.7949Z" stroke="url(#paint5_linear_320_427)" stroke-width="1.5"/>
<path d="M1049.22 92.4878V93.2378H1049.97H1069.76H1070.51V92.4878V21.5282H1097.61H1098.36V20.7782V3.51245V2.76245H1097.61H1022.12H1021.37V3.51245V20.7782V21.5282H1022.12H1049.22V92.4878Z" stroke="url(#paint6_linear_320_427)" stroke-width="1.5"/>
<path d="M948.673 92.488V93.238H949.423H969.21H969.96V92.488V21.5285H997.062H997.812V20.7785V3.5127V2.7627H997.062H921.571H920.821V3.5127V20.7785V21.5285H921.571H948.673V92.488Z" stroke="url(#paint7_linear_320_427)" stroke-width="1.5"/>
<path d="M833.827 92.4878V93.2378H834.577H854.363H855.113V92.4878V41.3817L895.274 92.8376L895.393 93.2378H895.586L896.335 94.1979L896.552 93.2378H910.445H911.195V92.4878V3.51245V2.76245H910.445H890.659H889.909V3.51245V55.4259L849.11 3.15279L848.98 2.76245H848.806L848.056 1.80236L847.84 2.76245H834.577H833.827V3.51245V92.4878Z" stroke="url(#paint8_linear_320_427)" stroke-width="1.5"/>
<path d="M796.905 92.4878V93.2378H797.655H817.441H818.191V92.4878V3.51245V2.76245H817.441H797.655H796.905V3.51245V92.4878Z" stroke="url(#paint9_linear_320_427)" stroke-width="1.5"/>
<path d="M737.701 92.4878V56.5638H738.636L764.952 92.9275L765.176 93.2378H765.559H789H790.517L789.596 92.0325L761.827 55.6784C764.457 55.1214 766.902 54.3006 769.161 53.2129C773.81 50.9746 777.448 47.8627 780.05 43.8728L780.05 43.8729L780.054 43.8667C782.66 39.784 783.953 35.0617 783.953 29.7261C783.953 24.472 782.659 19.7923 780.054 15.7117C777.456 11.6415 773.864 8.48554 769.297 6.24436C764.723 3.91513 759.437 2.76245 753.46 2.76245H737.701H736.951H732.288H731.538H717.165H716.415V3.51245V92.4878V93.2378H717.165H736.951H737.701V92.4878ZM737.701 40.4446V19.6378H751.192C755.01 19.6378 757.817 20.6506 759.736 22.5688C761.684 24.5174 762.667 26.968 762.667 29.9782C762.667 33.25 761.637 35.7674 759.631 37.6189L759.626 37.6239L759.621 37.6289C757.703 39.4694 754.892 40.4446 751.066 40.4446H737.701Z" stroke="url(#paint10_linear_320_427)" stroke-width="1.5"/>
<path d="M659.426 92.4878V60.8488H676.068C681.8 60.8488 687 59.6929 691.653 57.3668L691.653 57.3669L691.662 57.3618C696.314 54.9496 699.988 51.5819 702.666 47.2629C705.439 42.8422 706.812 37.6591 706.812 31.7426C706.812 25.8291 705.44 20.687 702.666 16.3484C699.987 11.945 696.312 8.57393 691.653 6.24437C687 3.91831 681.8 2.76245 676.068 2.76245H659.426H658.676H654.013H653.263H638.89H638.14V3.51245V92.4878V93.2378H638.89H658.676H659.426V92.4878ZM659.426 43.9734V19.6378H673.169C675.499 19.6378 677.609 20.1189 679.513 21.0709C681.403 22.0159 682.894 23.3886 683.997 25.201C685.089 26.9955 685.652 29.1654 685.652 31.7426C685.652 34.4086 685.087 36.6192 683.997 38.4102C682.894 40.2226 681.403 41.5953 679.513 42.5403C677.609 43.4923 675.499 43.9734 673.169 43.9734H659.426Z" stroke="url(#paint11_linear_320_427)" stroke-width="1.5"/>
<path d="M544.481 92.4878V93.2378H545.231H559.73H560.48H565.017H565.767H604.464H605.214V92.4878V75.096V74.346H604.464H565.767V3.51245V2.76245H565.017H545.231H544.481V3.51245V92.4878Z" stroke="url(#paint12_linear_320_427)" stroke-width="1.5"/>
<path d="M447.025 92.2113L446.618 93.2378H447.723H468.265H468.789L468.969 92.7461L474.707 77.1063H508.533L514.19 92.7429L514.369 93.2378H514.895H535.816H536.916L536.514 92.2139L501.604 3.23852L501.418 2.76245H500.906H483.01H482.501L482.313 3.23595L447.025 92.2113ZM491.739 30.6852L502.154 59.4748H481.176L491.739 30.6852Z" stroke="url(#paint13_linear_320_427)" stroke-width="1.5"/>
<path d="M360.608 92.488V93.238H361.358H381.145H381.895V92.488V41.382L422.055 92.8379L422.175 93.238H422.368L423.117 94.1981L423.333 93.238H437.227H437.977V92.488V3.5127V2.7627H437.227H417.441H416.691V3.5127V55.4261L375.892 3.15303L375.762 2.7627H375.587L374.838 1.80261L374.622 2.7627H361.358H360.608V3.5127V92.488Z" stroke="url(#paint14_linear_320_427)" stroke-width="1.5"/>
<path d="M323.687 92.4878V93.2378H324.437H344.223H344.973V92.4878V3.51245V2.76245H344.223H324.437H323.687V3.51245V92.4878Z" stroke="url(#paint15_linear_320_427)" stroke-width="1.5"/>
<path d="M248.889 91.0372L248.893 91.0387C254.701 93.4302 260.889 94.6239 267.452 94.6239C276.381 94.6239 284.28 92.7524 291.127 88.9865C298.07 85.2148 303.465 79.6423 307.311 72.2932C311.246 64.8492 313.194 55.7321 313.194 44.9753V42.0767V41.3267H312.444H265.688H264.938V42.0767V58.8383V59.5765L265.676 59.5882L290.261 59.9784C289.819 61.4251 289.262 62.7754 288.593 64.0306L288.59 64.0361C286.728 67.5991 284.021 70.3477 280.454 72.2936C276.976 74.1531 272.695 75.102 267.578 75.102C262.572 75.102 258.171 73.9545 254.351 71.6789C250.523 69.3985 247.508 66.2233 245.301 62.1367C243.101 58.0618 241.988 53.3149 241.988 47.8739C241.988 42.4336 243.1 37.7322 245.297 33.7451C247.582 29.6643 250.717 26.5323 254.707 24.3335L254.707 24.3336L254.717 24.3278C258.71 22.0463 263.242 20.8979 268.334 20.8979C273.111 20.8979 277.367 21.8033 281.118 23.5971C284.867 25.3904 288.138 28.0843 290.93 31.6969L291.451 32.3713L292.054 31.7686L305.539 18.2837L306.026 17.7961L305.581 17.2694C301.385 12.3028 296.081 8.41402 289.685 5.5992C283.361 2.77921 276.324 1.37598 268.586 1.37598C261.86 1.37598 255.548 2.56816 249.657 4.95803C243.772 7.2613 238.606 10.5481 234.165 14.818C229.808 19.0043 226.391 23.917 223.916 29.5503C221.435 35.197 220.198 41.3078 220.198 47.8739C220.198 54.4365 221.392 60.5848 223.785 66.3111L223.785 66.3111L223.79 66.3236C226.263 71.9523 229.635 76.9033 233.903 81.1714L233.908 81.1767C238.179 85.3627 243.175 88.6493 248.889 91.0372Z" stroke="url(#paint16_linear_320_427)" stroke-width="1.5"/>
<path d="M187.813 92.4878V93.2378H188.563H208.35H209.1V92.4878V3.51245V2.76245H208.35H188.563H187.813V3.51245V92.4878Z" stroke="url(#paint17_linear_320_427)" stroke-width="1.5"/>
<path d="M128.609 92.4878V56.5638H129.544L155.86 92.9275L156.085 93.2378H156.468H179.909H181.425L180.505 92.0325L152.736 55.6784C155.365 55.1214 157.811 54.3006 160.07 53.2129C164.718 50.9746 168.357 47.8627 170.959 43.8728L170.959 43.8729L170.963 43.8667C173.569 39.784 174.861 35.0617 174.861 29.7261C174.861 24.472 173.568 19.7923 170.963 15.7117C168.365 11.6415 164.772 8.48554 160.206 6.24436C155.631 3.91513 150.346 2.76245 144.369 2.76245H128.609H127.859H123.196H122.446H108.073H107.323V3.51245V92.4878V93.2378H108.073H127.859H128.609V92.4878ZM128.609 40.4446V19.6378H142.101C145.918 19.6378 148.726 20.6506 150.644 22.5688C152.593 24.5174 153.575 26.968 153.575 29.9782C153.575 33.25 152.546 35.7674 150.54 37.6189L150.534 37.6239L150.529 37.6289C148.612 39.4694 145.8 40.4446 141.974 40.4446H128.609Z" stroke="url(#paint18_linear_320_427)" stroke-width="1.5"/>
<path d="M30.067 91.1633L30.0706 91.1647C35.8821 93.5577 42.1975 94.75 49.0082 94.75C55.653 94.75 61.843 93.557 67.5702 91.1638C73.367 88.7765 78.4057 85.49 82.6784 81.3028L82.6838 81.2975C86.9538 77.0275 90.2844 72.0735 92.674 66.4409L92.6756 66.4371C95.0686 60.7109 96.2623 54.5626 96.2623 48C96.2623 41.3555 95.0694 35.2061 92.6747 29.5608C90.2847 23.8426 86.9103 18.8857 82.5525 14.6973C78.2794 10.4257 73.239 7.13799 67.4392 4.83419C61.7123 2.44186 55.4817 1.25 48.7562 1.25C41.9464 1.25 35.632 2.44192 29.8212 4.83417C24.1027 7.13902 19.1038 10.428 14.8312 14.6999C10.5593 18.8871 7.228 23.8003 4.83833 29.4331C2.44317 35.0789 1.25 41.2288 1.25 47.874C1.25 54.4366 2.44369 60.5848 4.83676 66.3111L4.83833 66.3148C7.22929 71.9507 10.6041 76.9063 14.9599 81.1767C19.3139 85.4454 24.3514 88.7747 30.067 91.1633ZM62.2413 71.8015L62.2353 71.805C58.4192 74.0784 53.935 75.2281 48.7562 75.2281C44.8937 75.2281 41.379 74.571 38.2025 73.2678C35.0216 71.9628 32.298 70.1329 30.0227 67.779C27.8276 65.3373 26.1136 62.4425 24.8852 59.0848C23.6591 55.7336 23.0404 51.9996 23.0404 47.874C23.0404 42.3421 24.1134 37.5946 26.2296 33.6063L26.2297 33.6063L26.2325 33.6008C28.3536 29.5218 31.3213 26.3951 35.1407 24.201L35.145 24.1985C39.0485 21.9215 43.5777 20.7719 48.7562 20.7719C52.619 20.7719 56.0889 21.4291 59.1775 22.7296L59.1883 22.7341L59.1993 22.7384C62.3719 23.9586 65.0905 25.7854 67.364 28.2213L67.364 28.2214L67.3728 28.2305C69.6467 30.5857 71.3998 33.4345 72.6271 36.7892L72.6293 36.7949C73.8531 40.0584 74.4719 43.748 74.4719 47.874C74.4719 53.3179 73.4005 58.1123 71.2783 62.276C69.1583 66.3517 66.149 69.522 62.2413 71.8015Z" stroke="url(#paint19_linear_320_427)" stroke-width="1.5"/>
</g>
<defs>
<linearGradient id="paint0_linear_320_427" x1="1439.49" y1="20.4601" x2="1505.24" y2="64.288" gradientUnits="userSpaceOnUse">
<stop stop-color="#E87914"/>
<stop offset="1" stop-color="#FF5906"/>
</linearGradient>
<linearGradient id="paint1_linear_320_427" x1="1367.56" y1="20.4601" x2="1432" y2="61.3352" gradientUnits="userSpaceOnUse">
<stop stop-color="#E87914"/>
<stop offset="1" stop-color="#FF5906"/>
</linearGradient>
<linearGradient id="paint2_linear_320_427" x1="1324.34" y1="20.4601" x2="1348.5" y2="24.6803" gradientUnits="userSpaceOnUse">
<stop stop-color="#E87914"/>
<stop offset="1" stop-color="#FF5906"/>
</linearGradient>
<linearGradient id="paint3_linear_320_427" x1="1238.96" y1="20.4601" x2="1304.54" y2="63.8824" gradientUnits="userSpaceOnUse">
<stop stop-color="#E87914"/>
<stop offset="1" stop-color="#FF5906"/>
</linearGradient>
<linearGradient id="paint4_linear_320_427" x1="1158.02" y1="19.6018" x2="1221.63" y2="56.3302" gradientUnits="userSpaceOnUse">
<stop stop-color="#E87914"/>
<stop offset="1" stop-color="#FF5906"/>
</linearGradient>
<linearGradient id="paint5_linear_320_427" x1="1104.3" y1="55.1239" x2="1114.87" y2="77.068" gradientUnits="userSpaceOnUse">
<stop stop-color="#E87914"/>
<stop offset="1" stop-color="#FF5906"/>
</linearGradient>
<linearGradient id="paint6_linear_320_427" x1="1031.26" y1="20.4601" x2="1097" y2="64.288" gradientUnits="userSpaceOnUse">
<stop stop-color="#E87914"/>
<stop offset="1" stop-color="#FF5906"/>
</linearGradient>
<linearGradient id="paint7_linear_320_427" x1="930.708" y1="20.4604" x2="996.453" y2="64.2882" gradientUnits="userSpaceOnUse">
<stop stop-color="#E87914"/>
<stop offset="1" stop-color="#FF5906"/>
</linearGradient>
<linearGradient id="paint8_linear_320_427" x1="843.759" y1="20.4601" x2="909.63" y2="64.5917" gradientUnits="userSpaceOnUse">
<stop stop-color="#E87914"/>
<stop offset="1" stop-color="#FF5906"/>
</linearGradient>
<linearGradient id="paint9_linear_320_427" x1="800.049" y1="20.4601" x2="824.202" y2="24.6802" gradientUnits="userSpaceOnUse">
<stop stop-color="#E87914"/>
<stop offset="1" stop-color="#FF5906"/>
</linearGradient>
<linearGradient id="paint10_linear_320_427" x1="725.859" y1="20.4601" x2="790.294" y2="61.3352" gradientUnits="userSpaceOnUse">
<stop stop-color="#E87914"/>
<stop offset="1" stop-color="#FF5906"/>
</linearGradient>
<linearGradient id="paint11_linear_320_427" x1="647.02" y1="20.4601" x2="709.525" y2="57.5372" gradientUnits="userSpaceOnUse">
<stop stop-color="#E87914"/>
<stop offset="1" stop-color="#FF5906"/>
</linearGradient>
<linearGradient id="paint12_linear_320_427" x1="552.4" y1="20.4601" x2="610.904" y2="51.0619" gradientUnits="userSpaceOnUse">
<stop stop-color="#E87914"/>
<stop offset="1" stop-color="#FF5906"/>
</linearGradient>
<linearGradient id="paint13_linear_320_427" x1="458.385" y1="20.4601" x2="527.422" y2="74.1656" gradientUnits="userSpaceOnUse">
<stop stop-color="#E87914"/>
<stop offset="1" stop-color="#FF5906"/>
</linearGradient>
<linearGradient id="paint14_linear_320_427" x1="370.541" y1="20.4604" x2="436.412" y2="64.592" gradientUnits="userSpaceOnUse">
<stop stop-color="#E87914"/>
<stop offset="1" stop-color="#FF5906"/>
</linearGradient>
<linearGradient id="paint15_linear_320_427" x1="326.831" y1="20.4601" x2="350.984" y2="24.6802" gradientUnits="userSpaceOnUse">
<stop stop-color="#E87914"/>
<stop offset="1" stop-color="#FF5906"/>
</linearGradient>
<linearGradient id="paint16_linear_320_427" x1="232.022" y1="19.6018" x2="303.335" y2="75.4793" gradientUnits="userSpaceOnUse">
<stop stop-color="#E87914"/>
<stop offset="1" stop-color="#FF5906"/>
</linearGradient>
<linearGradient id="paint17_linear_320_427" x1="190.958" y1="20.4601" x2="215.111" y2="24.6802" gradientUnits="userSpaceOnUse">
<stop stop-color="#E87914"/>
<stop offset="1" stop-color="#FF5906"/>
</linearGradient>
<linearGradient id="paint18_linear_320_427" x1="116.768" y1="20.4601" x2="181.203" y2="61.3352" gradientUnits="userSpaceOnUse">
<stop stop-color="#E87914"/>
<stop offset="1" stop-color="#FF5906"/>
</linearGradient>
<linearGradient id="paint19_linear_320_427" x1="13.318" y1="19.5238" x2="85.141" y2="76.8839" gradientUnits="userSpaceOnUse">
<stop stop-color="#E87914"/>
<stop offset="1" stop-color="#FF5906"/>
</linearGradient>
</defs>
</svg>
