<svg width="380" height="25" viewBox="0 0 380 25" fill="none" xmlns="http://www.w3.org/2000/svg">
<rect width="380" height="25" fill="white"/>
<rect x="329.5" y="0.5" width="49" height="24" stroke="#6E6E6E"/>
<rect x="0.5" y="0.5" width="49" height="24" stroke="#6E6E6E"/>
<path d="M362.124 18V6.896H363.628V18H362.124ZM363.148 18V16.624H369.1V18H363.148Z" fill="black"/>
<path d="M358.464 18L354.976 12.912H354.704L350.32 6.896H352.112L355.568 11.68H355.84L360.224 18H358.464ZM350.128 18L354.432 12.096L355.456 12.992L351.824 18H350.128ZM355.936 12.64L354.928 11.744L358.352 6.896H360.048L355.936 12.64Z" fill="black"/>
<path d="M347.816 18L344.328 12.912H344.056L339.672 6.896H341.464L344.92 11.68H345.192L349.576 18H347.816ZM339.48 18L343.784 12.096L344.808 12.992L341.176 18H339.48ZM345.288 12.64L344.28 11.744L347.704 6.896H349.4L345.288 12.64Z" fill="black"/>
<rect x="220.5" y="0.5" width="49" height="24" stroke="#6E6E6E"/>
<path d="M252.123 18.1601C251.291 18.1601 250.529 17.9254 249.835 17.4561C249.153 16.9868 248.609 16.3254 248.203 15.4721C247.798 14.6081 247.595 13.5948 247.595 12.4321C247.595 11.2694 247.793 10.2614 248.187 9.40808C248.593 8.55475 249.137 7.89875 249.819 7.44008C250.502 6.97075 251.254 6.73608 252.075 6.73608C252.918 6.73608 253.681 6.97075 254.363 7.44008C255.046 7.89875 255.585 8.55475 255.979 9.40808C256.385 10.2614 256.587 11.2748 256.587 12.4481C256.587 13.6108 256.385 14.6241 255.979 15.4881C255.585 16.3414 255.046 17.0028 254.363 17.4721C253.691 17.9308 252.945 18.1601 252.123 18.1601ZM252.091 16.7361C252.678 16.7361 253.19 16.5761 253.627 16.2561C254.075 15.9254 254.427 15.4401 254.683 14.8001C254.939 14.1601 255.067 13.3708 255.067 12.4321C255.067 11.4934 254.939 10.7094 254.683 10.0801C254.427 9.44009 254.075 8.96008 253.627 8.64008C253.179 8.30942 252.662 8.14408 252.075 8.14408C251.499 8.14408 250.987 8.30942 250.539 8.64008C250.091 8.96008 249.739 9.44009 249.483 10.0801C249.238 10.7094 249.115 11.4934 249.115 12.4321C249.115 13.3708 249.238 14.1601 249.483 14.8001C249.739 15.4401 250.091 15.9254 250.539 16.2561C250.987 16.5761 251.505 16.7361 252.091 16.7361Z" fill="black"/>
<path d="M241.835 18.16C241.078 18.16 240.4 18.0267 239.803 17.76C239.216 17.4827 238.72 17.0827 238.315 16.56L239.339 15.536C239.584 15.9093 239.92 16.208 240.347 16.432C240.784 16.6453 241.27 16.752 241.803 16.752C242.304 16.752 242.742 16.656 243.115 16.464C243.499 16.272 243.798 16.0053 244.011 15.664C244.235 15.312 244.347 14.896 244.347 14.416C244.347 13.9253 244.24 13.5093 244.027 13.168C243.814 12.8267 243.526 12.5707 243.163 12.4C242.811 12.2187 242.422 12.128 241.995 12.128C241.558 12.128 241.158 12.1813 240.795 12.288C240.443 12.3947 240.107 12.576 239.787 12.832L239.803 11.872C239.984 11.648 240.192 11.4667 240.427 11.328C240.662 11.1893 240.928 11.0827 241.227 11.008C241.526 10.9333 241.872 10.896 242.267 10.896C243.035 10.896 243.686 11.056 244.219 11.376C244.752 11.696 245.158 12.128 245.435 12.672C245.723 13.216 245.867 13.824 245.867 14.496C245.867 15.2 245.691 15.8293 245.339 16.384C244.998 16.9387 244.523 17.376 243.915 17.696C243.307 18.0053 242.614 18.16 241.835 18.16ZM239.787 12.832L238.971 12.016L239.467 6.896H240.843L240.283 12.16L239.787 12.832ZM239.771 8.24L239.467 6.896H245.307V8.24H239.771Z" fill="black"/>
<path d="M234.768 18V6.896H236.256V18H234.768ZM232.496 8.24V6.896H236.096V8.24H232.496Z" fill="black"/>
<rect x="274.5" y="0.5" width="49" height="24" stroke="#6E6E6E"/>
<path d="M306.498 18.1601C305.666 18.1601 304.904 17.9254 304.21 17.4561C303.528 16.9868 302.984 16.3254 302.578 15.4721C302.173 14.6081 301.97 13.5948 301.97 12.4321C301.97 11.2694 302.168 10.2614 302.562 9.40808C302.968 8.55475 303.512 7.89875 304.194 7.44008C304.877 6.97075 305.629 6.73608 306.45 6.73608C307.293 6.73608 308.056 6.97075 308.738 7.44008C309.421 7.89875 309.96 8.55475 310.354 9.40808C310.76 10.2614 310.962 11.2748 310.962 12.4481C310.962 13.6108 310.76 14.6241 310.354 15.4881C309.96 16.3414 309.421 17.0028 308.738 17.4721C308.066 17.9308 307.32 18.1601 306.498 18.1601ZM306.466 16.7361C307.053 16.7361 307.565 16.5761 308.002 16.2561C308.45 15.9254 308.802 15.4401 309.058 14.8001C309.314 14.1601 309.442 13.3708 309.442 12.4321C309.442 11.4934 309.314 10.7094 309.058 10.0801C308.802 9.44009 308.45 8.96008 308.002 8.64008C307.554 8.30942 307.037 8.14408 306.45 8.14408C305.874 8.14408 305.362 8.30942 304.914 8.64008C304.466 8.96008 304.114 9.44009 303.858 10.0801C303.613 10.7094 303.49 11.4934 303.49 12.4321C303.49 13.3708 303.613 14.1601 303.858 14.8001C304.114 15.4401 304.466 15.9254 304.914 16.2561C305.362 16.5761 305.88 16.7361 306.466 16.7361Z" fill="black"/>
<path d="M296.379 18.16C295.643 18.16 294.982 17.9893 294.395 17.648C293.819 17.3067 293.36 16.848 293.019 16.272C292.678 15.696 292.507 15.056 292.507 14.352C292.507 13.3707 292.848 12.3947 293.531 11.424L296.795 6.896H298.539L295.195 11.456L294.651 11.744C294.779 11.52 294.934 11.3333 295.115 11.184C295.296 11.024 295.52 10.9013 295.787 10.816C296.054 10.7307 296.368 10.688 296.731 10.688C297.382 10.688 297.968 10.8427 298.491 11.152C299.024 11.4613 299.451 11.888 299.771 12.432C300.102 12.9653 300.267 13.5893 300.267 14.304C300.267 15.008 300.091 15.6533 299.739 16.24C299.398 16.8267 298.928 17.296 298.331 17.648C297.744 17.9893 297.094 18.16 296.379 18.16ZM296.379 16.752C296.827 16.752 297.227 16.6453 297.579 16.432C297.942 16.208 298.224 15.9147 298.427 15.552C298.64 15.1787 298.747 14.7627 298.747 14.304C298.747 13.8453 298.64 13.4347 298.427 13.072C298.224 12.6987 297.942 12.4053 297.579 12.192C297.227 11.9787 296.827 11.872 296.379 11.872C295.931 11.872 295.526 11.9787 295.163 12.192C294.811 12.4053 294.528 12.6987 294.315 13.072C294.112 13.4347 294.011 13.8453 294.011 14.304C294.011 14.7627 294.112 15.1787 294.315 15.552C294.528 15.9253 294.811 16.2187 295.163 16.432C295.526 16.6453 295.931 16.752 296.379 16.752Z" fill="black"/>
<path d="M288.768 18V6.896H290.256V18H288.768ZM286.496 8.24V6.896H290.096V8.24H286.496Z" fill="black"/>
<path d="M24.4002 18.1601C23.5255 18.1601 22.7789 18.0001 22.1602 17.6801C21.5415 17.3601 20.9922 16.8961 20.5122 16.2881L21.5362 15.2641C21.8882 15.7548 22.2935 16.1281 22.7522 16.3841C23.2109 16.6294 23.7762 16.7521 24.4482 16.7521C25.1095 16.7521 25.6375 16.6081 26.0322 16.3201C26.4375 16.0321 26.6402 15.6374 26.6402 15.1361C26.6402 14.7201 26.5442 14.3841 26.3522 14.1281C26.1602 13.8721 25.8989 13.6641 25.5682 13.5041C25.2482 13.3334 24.8962 13.1841 24.5122 13.0561C24.1282 12.9174 23.7442 12.7734 23.3602 12.6241C22.9762 12.4641 22.6242 12.2721 22.3042 12.0481C21.9842 11.8134 21.7229 11.5094 21.5202 11.1361C21.3282 10.7628 21.2322 10.2934 21.2322 9.72808C21.2322 9.09875 21.3815 8.56542 21.6802 8.12808C21.9895 7.68008 22.4055 7.33875 22.9282 7.10408C23.4615 6.85875 24.0589 6.73608 24.7202 6.73608C25.4455 6.73608 26.0962 6.88008 26.6722 7.16808C27.2482 7.44542 27.7175 7.81342 28.0802 8.27208L27.0562 9.29608C26.7255 8.91208 26.3682 8.62408 25.9842 8.43208C25.6109 8.24008 25.1789 8.14408 24.6882 8.14408C24.0909 8.14408 23.6162 8.27742 23.2642 8.54408C22.9122 8.80008 22.7362 9.16275 22.7362 9.63208C22.7362 10.0054 22.8322 10.3094 23.0242 10.5441C23.2269 10.7681 23.4882 10.9601 23.8082 11.1201C24.1282 11.2801 24.4802 11.4294 24.8642 11.5681C25.2589 11.6961 25.6482 11.8401 26.0322 12.0001C26.4162 12.1601 26.7682 12.3628 27.0882 12.6081C27.4082 12.8534 27.6642 13.1734 27.8562 13.5681C28.0589 13.9521 28.1602 14.4374 28.1602 15.0241C28.1602 16.0054 27.8189 16.7734 27.1362 17.3281C26.4642 17.8828 25.5522 18.1601 24.4002 18.1601Z" fill="black"/>
<rect x="55.5" y="0.5" width="49" height="24" stroke="#6E6E6E"/>
<path d="M74.312 18V6.896H75.368L80.072 14.624H79.352L84.056 6.896H85.112V18H83.608V9.536L83.96 9.632L80.248 15.728H79.192L75.48 9.632L75.816 9.536V18H74.312Z" fill="black"/>
<rect x="110.5" y="0.5" width="49" height="24" stroke="#6E6E6E"/>
<path d="M132.312 18V6.896H133.816V18H132.312ZM133.336 18V16.624H139.288V18H133.336Z" fill="black"/>
<rect x="165.5" y="0.5" width="49" height="24" stroke="#6E6E6E"/>
<path d="M192.476 18V6.896H193.98V18H192.476ZM193.5 18V16.624H199.452V18H193.5Z" fill="black"/>
<path d="M188.816 18L185.328 12.912H185.056L180.672 6.896H182.464L185.92 11.68H186.192L190.576 18H188.816ZM180.48 18L184.784 12.096L185.808 12.992L182.176 18H180.48ZM186.288 12.64L185.28 11.744L188.704 6.896H190.4L186.288 12.64Z" fill="black"/>
</svg>
