<svg width="381" height="113" viewBox="0 0 381 113" fill="none" xmlns="http://www.w3.org/2000/svg">
<rect x="0.5" y="0.5" width="22.75" height="22.75" fill="white" stroke="#9A9A9A"/>
<rect x="59.875" y="0.5" width="22.75" height="22.75" fill="black" stroke="#9A9A9A"/>
<rect x="208.5" y="0.5" width="22.75" height="22.75" fill="#656A68" stroke="#9A9A9A"/>
<rect x="238.188" y="0.5" width="22.75" height="22.75" fill="#F56A74" stroke="#9A9A9A"/>
<rect x="267.875" y="0.5" width="22.75" height="22.75" fill="#CF101A" stroke="#9A9A9A"/>
<path d="M297.562 0.5H320.312V23.25H297.562V0.5Z" fill="#B2070A" stroke="#9A9A9A"/>
<rect x="327.25" y="0.5" width="22.75" height="22.75" fill="#6B0725" stroke="#9A9A9A"/>
<rect x="356.938" y="0.5" width="22.75" height="22.75" fill="#FDDFE0" stroke="#9A9A9A"/>
<path d="M0.5 30.5H23.25V53.25H0.5V30.5Z" fill="#EF98BF" stroke="#9A9A9A"/>
<rect x="30.5" y="29.5" width="22.75" height="22.75" fill="#E7668D" stroke="#9A9A9A"/>
<rect x="60.1875" y="29.5" width="22.75" height="22.75" fill="#FF00FE" stroke="#9A9A9A"/>
<rect x="89.875" y="29.5" width="22.75" height="22.75" fill="#D80066" stroke="#9A9A9A"/>
<rect x="119.562" y="29.5" width="22.75" height="22.75" fill="#F67C5E" stroke="#9A9A9A"/>
<rect x="149.25" y="29.5" width="22.75" height="22.75" fill="#E74F04" stroke="#9A9A9A"/>
<path d="M178.938 29.5H201.688V52.25H178.938V29.5Z" fill="#FFF9B2" stroke="#9A9A9A"/>
<rect x="208.625" y="29.5" width="22.75" height="22.75" fill="#FFF500" stroke="#9A9A9A"/>
<rect x="238.312" y="29.5" width="22.75" height="22.75" fill="#FFF152" stroke="#9A9A9A"/>
<rect x="268" y="29.5" width="22.75" height="22.75" fill="#FFD600" stroke="#9A9A9A"/>
<rect x="297.688" y="29.5" width="22.75" height="22.75" fill="#C1EDC9" stroke="#9A9A9A"/>
<path d="M327.375 29.5H350.125V52.25H327.375V29.5Z" fill="#B0E8DF" stroke="#9A9A9A"/>
<rect x="357.062" y="29.5" width="22.75" height="22.75" fill="#AAE202" stroke="#9A9A9A"/>
<rect x="0.5" y="59.5" width="22.75" height="22.75" fill="#A8DF46" stroke="#9A9A9A"/>
<rect x="30.5" y="59.5" width="22.75" height="22.75" fill="#18962F" stroke="#9A9A9A"/>
<rect x="60.1875" y="59.5" width="22.75" height="22.75" fill="#01853B" stroke="#9A9A9A"/>
<rect x="89.875" y="59.5" width="22.75" height="22.75" fill="#4F592D" stroke="#9A9A9A"/>
<rect x="119.562" y="59.5" width="22.75" height="22.75" fill="#5D5219" stroke="#9A9A9A"/>
<rect x="149.25" y="59.5" width="22.75" height="22.75" fill="#184001" stroke="#9A9A9A"/>
<rect x="178.938" y="59.5" width="22.75" height="22.75" fill="#B7E0F6" stroke="#9A9A9A"/>
<path d="M208.625 59.5H231.375V82.25H208.625V59.5Z" fill="#9BCAF6" stroke="#9A9A9A"/>
<path d="M238.312 59.5H261.062V82.25H238.312V59.5Z" fill="#81C5B7" stroke="#9A9A9A"/>
<rect x="268" y="59.5" width="22.75" height="22.75" fill="#029DD7" stroke="#9A9A9A"/>
<rect x="297.688" y="59.5" width="22.75" height="22.75" fill="#4584BF" stroke="#9A9A9A"/>
<path d="M327.375 59.5H350.125V82.25H327.375V59.5Z" fill="#0160AD" stroke="#9A9A9A"/>
<rect x="357.062" y="59.5" width="22.75" height="22.75" fill="#054191" stroke="#9A9A9A"/>
<rect x="1.5" y="89.5" width="22.75" height="22.75" fill="#202583" stroke="#9A9A9A"/>
<rect x="30.5" y="89.5" width="22.75" height="22.75" fill="#313752" stroke="#9A9A9A"/>
<rect x="60.1875" y="89.5" width="22.75" height="22.75" fill="#001D59" stroke="#9A9A9A"/>
<rect x="89.875" y="89.5" width="22.75" height="22.75" fill="#01092E" stroke="#9A9A9A"/>
<rect x="119.562" y="89.5" width="22.75" height="22.75" fill="#CDB5D1" stroke="#9A9A9A"/>
<rect x="178.5" y="0.5" width="22.75" height="22.75" fill="#7C7C7C" stroke="#9A9A9A"/>
<rect x="148.5" y="0.5" width="22.75" height="22.75" fill="#DCDCDC" stroke="#9A9A9A"/>
<rect x="118.5" y="0.5" width="22.75" height="22.75" fill="#D3D3D3" stroke="#9A9A9A"/>
<rect x="149.25" y="89.5" width="22.75" height="22.75" fill="#BB80D0" stroke="#9A9A9A"/>
<rect x="178.938" y="89.5" width="22.75" height="22.75" fill="#837397" stroke="#9A9A9A"/>
<path d="M208.625 89.5H231.375V112.25H208.625V89.5Z" fill="#5B0D78" stroke="#9A9A9A"/>
<rect x="238.312" y="89.5" width="22.75" height="22.75" fill="#A37949" stroke="#9A9A9A"/>
<path d="M268 89.5H290.75V112.25H268V89.5Z" fill="#E9E1D4" stroke="#9A9A9A"/>
<rect x="30.5" y="0.5" width="22.75" height="22.75" fill="white" stroke="#9A9A9A"/>
<path d="M52 2L32 22H52V2Z" fill="#044192"/>
<rect x="328.5" y="89.5" width="22.75" height="22.75" fill="#A81F25" stroke="#9A9A9A"/>
<path d="M350 91L330 111H350V91Z" fill="#080403"/>
<rect x="357.5" y="89.5" width="22.75" height="22.75" fill="#0A3C85" stroke="#9A9A9A"/>
<path d="M379 91L359 111H379V91Z" fill="#080304"/>
<rect x="298.5" y="89.5" width="22.75" height="22.75" fill="#F6E95B" stroke="#9A9A9A"/>
<path d="M320 91L300 111H320V91Z" fill="#15803A"/>
<rect x="89.5" y="0.5" width="22.75" height="22.75" fill="black" stroke="#9A9A9A"/>
<path d="M111 2L91 22H111V2Z" fill="#029DD5"/>
</svg>
