<svg width="380" height="87" viewBox="0 0 380 87" fill="none" xmlns="http://www.w3.org/2000/svg">
<path d="M0 0H380V87H0V0Z" fill="white"/>
<rect x="0.5" y="0.5" width="49" height="24" stroke="#6E6E6E"/>
<rect x="0.5" y="31.5" width="49" height="24" stroke="#6E6E6E"/>
<path d="M32.967 49.1601C32.135 49.1601 31.3723 48.9254 30.679 48.4561C29.9963 47.9868 29.4523 47.3254 29.047 46.4721C28.6416 45.6081 28.439 44.5948 28.439 43.4321C28.439 42.2694 28.6363 41.2614 29.031 40.4081C29.4363 39.5548 29.9803 38.8988 30.663 38.4401C31.3456 37.9708 32.0976 37.7361 32.919 37.7361C33.7616 37.7361 34.5243 37.9708 35.207 38.4401C35.8896 38.8988 36.4283 39.5548 36.823 40.4081C37.2283 41.2614 37.431 42.2748 37.431 43.4481C37.431 44.6108 37.2283 45.6241 36.823 46.4881C36.4283 47.3414 35.8896 48.0028 35.207 48.4721C34.535 48.9308 33.7883 49.1601 32.967 49.1601ZM32.935 47.7361C33.5216 47.7361 34.0336 47.5761 34.471 47.2561C34.919 46.9254 35.271 46.4401 35.527 45.8001C35.783 45.1601 35.911 44.3708 35.911 43.4321C35.911 42.4934 35.783 41.7094 35.527 41.0801C35.271 40.4401 34.919 39.9601 34.471 39.6401C34.023 39.3094 33.5056 39.1441 32.919 39.1441C32.343 39.1441 31.831 39.3094 31.383 39.6401C30.935 39.9601 30.583 40.4401 30.327 41.0801C30.0816 41.7094 29.959 42.4934 29.959 43.4321C29.959 44.3708 30.0816 45.1601 30.327 45.8001C30.583 46.4401 30.935 46.9254 31.383 47.2561C31.831 47.5761 32.3483 47.7361 32.935 47.7361Z" fill="black"/>
<path d="M22.1469 49.1601C21.3149 49.1601 20.5522 48.9254 19.8589 48.4561C19.1762 47.9868 18.6322 47.3254 18.2269 46.4721C17.8216 45.6081 17.6189 44.5948 17.6189 43.4321C17.6189 42.2694 17.8162 41.2614 18.2109 40.4081C18.6162 39.5548 19.1602 38.8988 19.8429 38.4401C20.5256 37.9708 21.2776 37.7361 22.0989 37.7361C22.9416 37.7361 23.7042 37.9708 24.3869 38.4401C25.0696 38.8988 25.6082 39.5548 26.0029 40.4081C26.4082 41.2614 26.6109 42.2748 26.6109 43.4481C26.6109 44.6108 26.4082 45.6241 26.0029 46.4881C25.6082 47.3414 25.0696 48.0028 24.3869 48.4721C23.7149 48.9308 22.9682 49.1601 22.1469 49.1601ZM22.1149 47.7361C22.7016 47.7361 23.2136 47.5761 23.6509 47.2561C24.0989 46.9254 24.4509 46.4401 24.7069 45.8001C24.9629 45.1601 25.0909 44.3708 25.0909 43.4321C25.0909 42.4934 24.9629 41.7094 24.7069 41.0801C24.4509 40.4401 24.0989 39.9601 23.6509 39.6401C23.2029 39.3094 22.6856 39.1441 22.0989 39.1441C21.5229 39.1441 21.0109 39.3094 20.5629 39.6401C20.1149 39.9601 19.7629 40.4401 19.5069 41.0801C19.2616 41.7094 19.1389 42.4934 19.1389 43.4321C19.1389 44.3708 19.2616 45.1601 19.5069 45.8001C19.7629 46.4401 20.1149 46.9254 20.5629 47.2561C21.0109 47.5761 21.5282 47.7361 22.1149 47.7361Z" fill="black"/>
<path d="M13.7681 49V37.896H15.2561V49H13.7681ZM11.4961 39.24V37.896H15.0961V39.24H11.4961Z" fill="black"/>
<rect x="56.5" y="31.5" width="49" height="24" stroke="#6E6E6E"/>
<path d="M87.0138 49.1601C86.1818 49.1601 85.4192 48.9254 84.7258 48.4561C84.0432 47.9868 83.4992 47.3254 83.0938 46.4721C82.6885 45.6081 82.4858 44.5948 82.4858 43.4321C82.4858 42.2694 82.6832 41.2614 83.0778 40.4081C83.4832 39.5548 84.0272 38.8988 84.7098 38.4401C85.3925 37.9708 86.1445 37.7361 86.9658 37.7361C87.8085 37.7361 88.5712 37.9708 89.2538 38.4401C89.9365 38.8988 90.4752 39.5548 90.8698 40.4081C91.2752 41.2614 91.4778 42.2748 91.4778 43.4481C91.4778 44.6108 91.2752 45.6241 90.8698 46.4881C90.4752 47.3414 89.9365 48.0028 89.2538 48.4721C88.5818 48.9308 87.8352 49.1601 87.0138 49.1601ZM86.9818 47.7361C87.5685 47.7361 88.0805 47.5761 88.5178 47.2561C88.9658 46.9254 89.3178 46.4401 89.5738 45.8001C89.8298 45.1601 89.9578 44.3708 89.9578 43.4321C89.9578 42.4934 89.8298 41.7094 89.5738 41.0801C89.3178 40.4401 88.9658 39.9601 88.5178 39.6401C88.0698 39.3094 87.5525 39.1441 86.9658 39.1441C86.3898 39.1441 85.8778 39.3094 85.4298 39.6401C84.9818 39.9601 84.6298 40.4401 84.3738 41.0801C84.1285 41.7094 84.0058 42.4934 84.0058 43.4321C84.0058 44.3708 84.1285 45.1601 84.3738 45.8001C84.6298 46.4401 84.9818 46.9254 85.4298 47.2561C85.8778 47.5761 86.3952 47.7361 86.9818 47.7361Z" fill="black"/>
<path d="M78.6348 49V37.896H80.1228V49H78.6348ZM76.3628 39.24V37.896H79.9628V39.24H76.3628Z" fill="black"/>
<path d="M72.7681 49V37.896H74.2561V49H72.7681ZM70.4961 39.24V37.896H74.0961V39.24H70.4961Z" fill="black"/>
<rect x="111.5" y="31.5" width="49" height="24" stroke="#6E6E6E"/>
<path d="M143.123 49.1601C142.291 49.1601 141.529 48.9254 140.835 48.4561C140.153 47.9868 139.609 47.3254 139.203 46.4721C138.798 45.6081 138.595 44.5948 138.595 43.4321C138.595 42.2694 138.793 41.2614 139.187 40.4081C139.593 39.5548 140.137 38.8988 140.819 38.4401C141.502 37.9708 142.254 37.7361 143.075 37.7361C143.918 37.7361 144.681 37.9708 145.363 38.4401C146.046 38.8988 146.585 39.5548 146.979 40.4081C147.385 41.2614 147.587 42.2748 147.587 43.4481C147.587 44.6108 147.385 45.6241 146.979 46.4881C146.585 47.3414 146.046 48.0028 145.363 48.4721C144.691 48.9308 143.945 49.1601 143.123 49.1601ZM143.091 47.7361C143.678 47.7361 144.19 47.5761 144.627 47.2561C145.075 46.9254 145.427 46.4401 145.683 45.8001C145.939 45.1601 146.067 44.3708 146.067 43.4321C146.067 42.4934 145.939 41.7094 145.683 41.0801C145.427 40.4401 145.075 39.9601 144.627 39.6401C144.179 39.3094 143.662 39.1441 143.075 39.1441C142.499 39.1441 141.987 39.3094 141.539 39.6401C141.091 39.9601 140.739 40.4401 140.483 41.0801C140.238 41.7094 140.115 42.4934 140.115 43.4321C140.115 44.3708 140.238 45.1601 140.483 45.8001C140.739 46.4401 141.091 46.9254 141.539 47.2561C141.987 47.5761 142.505 47.7361 143.091 47.7361Z" fill="black"/>
<path d="M129.395 48.0881L133.491 43.7681C133.907 43.3414 134.232 42.9734 134.467 42.6641C134.701 42.3441 134.867 42.0508 134.963 41.7841C135.069 41.5174 135.123 41.2401 135.123 40.9521C135.123 40.3868 134.941 39.9441 134.579 39.6241C134.216 39.3041 133.747 39.1441 133.171 39.1441C132.605 39.1441 132.109 39.2828 131.683 39.5601C131.256 39.8268 130.877 40.2428 130.547 40.8081L129.491 39.9281C129.928 39.2028 130.456 38.6588 131.075 38.2961C131.693 37.9228 132.408 37.7361 133.219 37.7361C133.901 37.7361 134.493 37.8694 134.995 38.1361C135.507 38.4028 135.901 38.7761 136.179 39.2561C136.456 39.7361 136.595 40.2961 136.595 40.9361C136.595 41.3948 136.536 41.8054 136.419 42.1681C136.312 42.5308 136.115 42.9041 135.827 43.2881C135.549 43.6614 135.16 44.1094 134.659 44.6321L131.347 48.0401L129.395 48.0881ZM129.395 49.0001V48.0881L130.675 47.6561H136.851V49.0001H129.395Z" fill="black"/>
<path d="M125.768 49V37.896H127.256V49H125.768ZM123.496 39.24V37.896H127.096V39.24H123.496Z" fill="black"/>
<rect x="167.5" y="31.5" width="49" height="24" stroke="#6E6E6E"/>
<path d="M199.076 49.1601C198.244 49.1601 197.482 48.9254 196.788 48.4561C196.106 47.9868 195.562 47.3254 195.156 46.4721C194.751 45.6081 194.548 44.5948 194.548 43.4321C194.548 42.2694 194.746 41.2614 195.14 40.4081C195.546 39.5548 196.09 38.8988 196.772 38.4401C197.455 37.9708 198.207 37.7361 199.028 37.7361C199.871 37.7361 200.634 37.9708 201.316 38.4401C201.999 38.8988 202.538 39.5548 202.932 40.4081C203.338 41.2614 203.54 42.2748 203.54 43.4481C203.54 44.6108 203.338 45.6241 202.932 46.4881C202.538 47.3414 201.999 48.0028 201.316 48.4721C200.644 48.9308 199.898 49.1601 199.076 49.1601ZM199.044 47.7361C199.631 47.7361 200.143 47.5761 200.58 47.2561C201.028 46.9254 201.38 46.4401 201.636 45.8001C201.892 45.1601 202.02 44.3708 202.02 43.4321C202.02 42.4934 201.892 41.7094 201.636 41.0801C201.38 40.4401 201.028 39.9601 200.58 39.6401C200.132 39.3094 199.615 39.1441 199.028 39.1441C198.452 39.1441 197.94 39.3094 197.492 39.6401C197.044 39.9601 196.692 40.4401 196.436 41.0801C196.191 41.7094 196.068 42.4934 196.068 43.4321C196.068 44.3708 196.191 45.1601 196.436 45.8001C196.692 46.4401 197.044 46.9254 197.492 47.2561C197.94 47.5761 198.458 47.7361 199.044 47.7361Z" fill="black"/>
<path d="M188.819 49.16C188.094 49.16 187.432 49.0267 186.835 48.76C186.248 48.4827 185.752 48.0827 185.347 47.56L186.371 46.536C186.616 46.9093 186.952 47.208 187.379 47.432C187.806 47.6453 188.28 47.752 188.803 47.752C189.294 47.752 189.715 47.6613 190.067 47.48C190.43 47.288 190.712 47.0213 190.915 46.68C191.128 46.3387 191.235 45.944 191.235 45.496C191.235 45.0373 191.128 44.6427 190.915 44.312C190.712 43.9707 190.424 43.7093 190.051 43.528C189.678 43.3467 189.235 43.256 188.723 43.256C188.531 43.256 188.339 43.272 188.147 43.304C187.955 43.3253 187.768 43.3627 187.587 43.416L188.227 42.552C188.43 42.456 188.648 42.3813 188.883 42.328C189.118 42.2747 189.352 42.248 189.587 42.248C190.184 42.248 190.718 42.3867 191.187 42.664C191.667 42.9413 192.046 43.3307 192.323 43.832C192.611 44.3333 192.755 44.9147 192.755 45.576C192.755 46.28 192.584 46.904 192.243 47.448C191.912 47.9813 191.454 48.4027 190.867 48.712C190.28 49.0107 189.598 49.16 188.819 49.16ZM187.587 43.416V42.504L190.835 38.808L192.627 38.792L189.283 42.584L187.587 43.416ZM185.875 39.24V37.896H192.627V38.792L191.315 39.24H185.875Z" fill="black"/>
<path d="M181.768 49V37.896H183.256V49H181.768ZM179.496 39.24V37.896H183.096V39.24H179.496Z" fill="black"/>
<rect x="222.5" y="31.5" width="49" height="24" stroke="#6E6E6E"/>
<path d="M255.029 49.1601C254.197 49.1601 253.435 48.9254 252.741 48.4561C252.059 47.9868 251.515 47.3254 251.109 46.4721C250.704 45.6081 250.501 44.5948 250.501 43.4321C250.501 42.2694 250.699 41.2614 251.093 40.4081C251.499 39.5548 252.043 38.8988 252.725 38.4401C253.408 37.9708 254.16 37.7361 254.981 37.7361C255.824 37.7361 256.587 37.9708 257.269 38.4401C257.952 38.8988 258.491 39.5548 258.885 40.4081C259.291 41.2614 259.493 42.2748 259.493 43.4481C259.493 44.6108 259.291 45.6241 258.885 46.4881C258.491 47.3414 257.952 48.0028 257.269 48.4721C256.597 48.9308 255.851 49.1601 255.029 49.1601ZM254.997 47.7361C255.584 47.7361 256.096 47.5761 256.533 47.2561C256.981 46.9254 257.333 46.4401 257.589 45.8001C257.845 45.1601 257.973 44.3708 257.973 43.4321C257.973 42.4934 257.845 41.7094 257.589 41.0801C257.333 40.4401 256.981 39.9601 256.533 39.6401C256.085 39.3094 255.568 39.1441 254.981 39.1441C254.405 39.1441 253.893 39.3094 253.445 39.6401C252.997 39.9601 252.645 40.4401 252.389 41.0801C252.144 41.7094 252.021 42.4934 252.021 43.4321C252.021 44.3708 252.144 45.1601 252.389 45.8001C252.645 46.4401 252.997 46.9254 253.445 47.2561C253.893 47.5761 254.411 47.7361 254.997 47.7361Z" fill="black"/>
<path d="M240.395 45.176L244.443 37.896H246.139L242.011 45.176H240.395ZM240.395 46.104V45.176L241.035 44.76H248.907V46.104H240.395ZM245.819 49V41.656H247.307V49H245.819Z" fill="black"/>
<path d="M236.768 49V37.896H238.256V49H236.768ZM234.496 39.24V37.896H238.096V39.24H234.496Z" fill="black"/>
<rect x="277.5" y="31.5" width="49" height="24" stroke="#6E6E6E"/>
<path d="M309.123 49.1601C308.291 49.1601 307.529 48.9254 306.835 48.4561C306.153 47.9868 305.609 47.3254 305.203 46.4721C304.798 45.6081 304.595 44.5948 304.595 43.4321C304.595 42.2694 304.793 41.2614 305.187 40.4081C305.593 39.5548 306.137 38.8988 306.819 38.4401C307.502 37.9708 308.254 37.7361 309.075 37.7361C309.918 37.7361 310.681 37.9708 311.363 38.4401C312.046 38.8988 312.585 39.5548 312.979 40.4081C313.385 41.2614 313.587 42.2748 313.587 43.4481C313.587 44.6108 313.385 45.6241 312.979 46.4881C312.585 47.3414 312.046 48.0028 311.363 48.4721C310.691 48.9308 309.945 49.1601 309.123 49.1601ZM309.091 47.7361C309.678 47.7361 310.19 47.5761 310.627 47.2561C311.075 46.9254 311.427 46.4401 311.683 45.8001C311.939 45.1601 312.067 44.3708 312.067 43.4321C312.067 42.4934 311.939 41.7094 311.683 41.0801C311.427 40.4401 311.075 39.9601 310.627 39.6401C310.179 39.3094 309.662 39.1441 309.075 39.1441C308.499 39.1441 307.987 39.3094 307.539 39.6401C307.091 39.9601 306.739 40.4401 306.483 41.0801C306.238 41.7094 306.115 42.4934 306.115 43.4321C306.115 44.3708 306.238 45.1601 306.483 45.8001C306.739 46.4401 307.091 46.9254 307.539 47.2561C307.987 47.5761 308.505 47.7361 309.091 47.7361Z" fill="black"/>
<path d="M298.835 49.16C298.078 49.16 297.4 49.0267 296.803 48.76C296.216 48.4827 295.72 48.0827 295.315 47.56L296.339 46.536C296.584 46.9093 296.92 47.208 297.347 47.432C297.784 47.6453 298.27 47.752 298.803 47.752C299.304 47.752 299.742 47.656 300.115 47.464C300.499 47.272 300.798 47.0053 301.011 46.664C301.235 46.312 301.347 45.896 301.347 45.416C301.347 44.9253 301.24 44.5093 301.027 44.168C300.814 43.8267 300.526 43.5707 300.163 43.4C299.811 43.2187 299.422 43.128 298.995 43.128C298.558 43.128 298.158 43.1813 297.795 43.288C297.443 43.3947 297.107 43.576 296.787 43.832L296.803 42.872C296.984 42.648 297.192 42.4667 297.427 42.328C297.662 42.1893 297.928 42.0827 298.227 42.008C298.526 41.9333 298.872 41.896 299.267 41.896C300.035 41.896 300.686 42.056 301.219 42.376C301.752 42.696 302.158 43.128 302.435 43.672C302.723 44.216 302.867 44.824 302.867 45.496C302.867 46.2 302.691 46.8293 302.339 47.384C301.998 47.9387 301.523 48.376 300.915 48.696C300.307 49.0053 299.614 49.16 298.835 49.16ZM296.787 43.832L295.971 43.016L296.467 37.896H297.843L297.283 43.16L296.787 43.832ZM296.771 39.24L296.467 37.896H302.307V39.24H296.771Z" fill="black"/>
<path d="M291.768 49V37.896H293.256V49H291.768ZM289.496 39.24V37.896H293.096V39.24H289.496Z" fill="black"/>
<path d="M24.4 18.1601C23.5253 18.1601 22.7786 18.0001 22.16 17.6801C21.5413 17.3601 20.992 16.8961 20.512 16.2881L21.536 15.2641C21.888 15.7548 22.2933 16.1281 22.752 16.3841C23.2106 16.6294 23.776 16.7521 24.448 16.7521C25.1093 16.7521 25.6373 16.6081 26.032 16.3201C26.4373 16.0321 26.64 15.6374 26.64 15.1361C26.64 14.7201 26.544 14.3841 26.352 14.1281C26.16 13.8721 25.8986 13.6641 25.568 13.5041C25.248 13.3334 24.896 13.1841 24.512 13.0561C24.128 12.9174 23.744 12.7734 23.36 12.6241C22.976 12.4641 22.624 12.2721 22.304 12.0481C21.984 11.8134 21.7226 11.5094 21.52 11.1361C21.328 10.7628 21.232 10.2934 21.232 9.72808C21.232 9.09875 21.3813 8.56542 21.68 8.12808C21.9893 7.68008 22.4053 7.33875 22.928 7.10408C23.4613 6.85875 24.0586 6.73608 24.72 6.73608C25.4453 6.73608 26.096 6.88008 26.672 7.16808C27.248 7.44542 27.7173 7.81342 28.08 8.27208L27.056 9.29608C26.7253 8.91208 26.368 8.62408 25.984 8.43208C25.6106 8.24008 25.1786 8.14408 24.688 8.14408C24.0906 8.14408 23.616 8.27742 23.264 8.54408C22.912 8.80008 22.736 9.16275 22.736 9.63208C22.736 10.0054 22.832 10.3094 23.024 10.5441C23.2266 10.7681 23.488 10.9601 23.808 11.1201C24.128 11.2801 24.48 11.4294 24.864 11.5681C25.2586 11.6961 25.648 11.8401 26.032 12.0001C26.416 12.1601 26.768 12.3628 27.088 12.6081C27.408 12.8534 27.664 13.1734 27.856 13.5681C28.0586 13.9521 28.16 14.4374 28.16 15.0241C28.16 16.0054 27.8186 16.7734 27.136 17.3281C26.464 17.8828 25.552 18.1601 24.4 18.1601Z" fill="black"/>
<rect x="55.5" y="0.5" width="49" height="24" stroke="#6E6E6E"/>
<path d="M74.312 18V6.896H75.368L80.072 14.624H79.352L84.056 6.896H85.112V18H83.608V9.536L83.96 9.632L80.248 15.728H79.192L75.48 9.632L75.816 9.536V18H74.312Z" fill="black"/>
<rect x="110.5" y="0.5" width="49" height="24" stroke="#6E6E6E"/>
<path d="M132.312 18V6.896H133.816V18H132.312ZM133.336 18V16.624H139.288V18H133.336Z" fill="black"/>
<rect x="165.5" y="0.5" width="49" height="24" stroke="#6E6E6E"/>
<path d="M190.46 18V6.896H191.964V18H190.46ZM191.484 18V16.624H197.436V18H191.484Z" fill="black"/>
<path d="M181.312 18V6.896H182.816V18H181.312ZM182.336 18V16.624H188.288V18H182.336Z" fill="black"/>
<rect x="220.5" y="0.5" width="49" height="24" stroke="#6E6E6E"/>
<path d="M246.241 18V6.896H247.745V18H246.241ZM247.265 18V16.624H253.217V18H247.265Z" fill="black"/>
<path d="M239.952 18.16C239.227 18.16 238.565 18.0267 237.968 17.76C237.381 17.4827 236.885 17.0827 236.48 16.56L237.504 15.536C237.749 15.9093 238.085 16.208 238.512 16.432C238.939 16.6453 239.413 16.752 239.936 16.752C240.427 16.752 240.848 16.6613 241.2 16.48C241.563 16.288 241.845 16.0213 242.048 15.68C242.261 15.3387 242.368 14.944 242.368 14.496C242.368 14.0373 242.261 13.6427 242.048 13.312C241.845 12.9707 241.557 12.7093 241.184 12.528C240.811 12.3467 240.368 12.256 239.856 12.256C239.664 12.256 239.472 12.272 239.28 12.304C239.088 12.3253 238.901 12.3627 238.72 12.416L239.36 11.552C239.563 11.456 239.781 11.3813 240.016 11.328C240.251 11.2747 240.485 11.248 240.72 11.248C241.317 11.248 241.851 11.3867 242.32 11.664C242.8 11.9413 243.179 12.3307 243.456 12.832C243.744 13.3333 243.888 13.9147 243.888 14.576C243.888 15.28 243.717 15.904 243.376 16.448C243.045 16.9813 242.587 17.4027 242 17.712C241.413 18.0107 240.731 18.16 239.952 18.16ZM238.72 12.416V11.504L241.968 7.808L243.76 7.792L240.416 11.584L238.72 12.416ZM237.008 8.24V6.896H243.76V7.792L242.448 8.24H237.008Z" fill="black"/>
<rect x="275.5" y="0.5" width="49" height="24" stroke="#6E6E6E"/>
<path d="M302.195 18V6.896H303.699V18H302.195ZM303.219 18V16.624H309.171V18H303.219Z" fill="black"/>
<path d="M291.528 14.176L295.576 6.896H297.272L293.144 14.176H291.528ZM291.528 15.104V14.176L292.168 13.76H300.04V15.104H291.528ZM296.952 18V10.656H298.44V18H296.952Z" fill="black"/>
<rect x="224.5" y="62.5" width="49" height="24" stroke="#6E6E6E"/>
<path d="M250.663 80V68.896H252.167V80H250.663ZM251.687 80V78.624H257.639V80H251.687Z" fill="black"/>
<path d="M244.512 80.16C243.776 80.16 243.115 79.9893 242.528 79.648C241.952 79.3067 241.493 78.848 241.152 78.272C240.811 77.696 240.64 77.056 240.64 76.352C240.64 75.3707 240.981 74.3947 241.664 73.424L244.928 68.896H246.672L243.328 73.456L242.784 73.744C242.912 73.52 243.067 73.3333 243.248 73.184C243.429 73.024 243.653 72.9013 243.92 72.816C244.187 72.7307 244.501 72.688 244.864 72.688C245.515 72.688 246.101 72.8427 246.624 73.152C247.157 73.4613 247.584 73.888 247.904 74.432C248.235 74.9653 248.4 75.5893 248.4 76.304C248.4 77.008 248.224 77.6533 247.872 78.24C247.531 78.8267 247.061 79.296 246.464 79.648C245.877 79.9893 245.227 80.16 244.512 80.16ZM244.512 78.752C244.96 78.752 245.36 78.6453 245.712 78.432C246.075 78.208 246.357 77.9147 246.56 77.552C246.773 77.1787 246.88 76.7627 246.88 76.304C246.88 75.8453 246.773 75.4347 246.56 75.072C246.357 74.6987 246.075 74.4053 245.712 74.192C245.36 73.9787 244.96 73.872 244.512 73.872C244.064 73.872 243.659 73.9787 243.296 74.192C242.944 74.4053 242.661 74.6987 242.448 75.072C242.245 75.4347 242.144 75.8453 242.144 76.304C242.144 76.7627 242.245 77.1787 242.448 77.552C242.661 77.9253 242.944 78.2187 243.296 78.432C243.659 78.6453 244.064 78.752 244.512 78.752Z" fill="black"/>
<rect x="280.5" y="62.5" width="49" height="24" stroke="#6E6E6E"/>
<path d="M306.038 80V68.896H307.542V80H306.038ZM307.062 80V78.624H313.014V80H307.062Z" fill="black"/>
<path d="M298.24 80L302.4 69.776L303.888 69.824L299.824 80H298.24ZM296.496 70.24V68.896H303.888V69.824L303.232 70.24H296.496Z" fill="black"/>
<rect x="0.5" y="62.5" width="49" height="24" stroke="#6E6E6E"/>
<path d="M26.2883 80V68.896H27.7923V80H26.2883ZM27.3123 80V78.624H33.2643V80H27.3123Z" fill="black"/>
<path d="M19.968 80.16C19.2107 80.16 18.5333 80.0267 17.936 79.76C17.3493 79.4827 16.8533 79.0827 16.448 78.56L17.472 77.536C17.7173 77.9093 18.0533 78.208 18.48 78.432C18.9173 78.6453 19.4027 78.752 19.936 78.752C20.4373 78.752 20.8747 78.656 21.248 78.464C21.632 78.272 21.9307 78.0053 22.144 77.664C22.368 77.312 22.48 76.896 22.48 76.416C22.48 75.9253 22.3733 75.5093 22.16 75.168C21.9467 74.8267 21.6587 74.5707 21.296 74.4C20.944 74.2187 20.5547 74.128 20.128 74.128C19.6907 74.128 19.2907 74.1813 18.928 74.288C18.576 74.3947 18.24 74.576 17.92 74.832L17.936 73.872C18.1173 73.648 18.3253 73.4667 18.56 73.328C18.7947 73.1893 19.0613 73.0827 19.36 73.008C19.6587 72.9333 20.0053 72.896 20.4 72.896C21.168 72.896 21.8187 73.056 22.352 73.376C22.8853 73.696 23.2907 74.128 23.568 74.672C23.856 75.216 24 75.824 24 76.496C24 77.2 23.824 77.8293 23.472 78.384C23.1307 78.9387 22.656 79.376 22.048 79.696C21.44 80.0053 20.7467 80.16 19.968 80.16ZM17.92 74.832L17.104 74.016L17.6 68.896H18.976L18.416 74.16L17.92 74.832ZM17.904 70.24L17.6 68.896H23.44V70.24H17.904Z" fill="black"/>
<rect x="56.5" y="62.5" width="49" height="24" stroke="#6E6E6E"/>
<path d="M85.3138 80.1601C84.4391 80.1601 83.6924 80.0001 83.0738 79.6801C82.4551 79.3601 81.9058 78.8961 81.4258 78.2881L82.4498 77.2641C82.8018 77.7548 83.2071 78.1281 83.6658 78.3841C84.1244 78.6294 84.6898 78.7521 85.3618 78.7521C86.0231 78.7521 86.5511 78.6081 86.9458 78.3201C87.3511 78.0321 87.5538 77.6374 87.5538 77.1361C87.5538 76.7201 87.4578 76.3841 87.2658 76.1281C87.0738 75.8721 86.8124 75.6641 86.4818 75.5041C86.1618 75.3334 85.8098 75.1841 85.4258 75.0561C85.0418 74.9174 84.6578 74.7734 84.2738 74.6241C83.8898 74.4641 83.5378 74.2721 83.2178 74.0481C82.8978 73.8134 82.6364 73.5094 82.4338 73.1361C82.2418 72.7628 82.1458 72.2934 82.1458 71.7281C82.1458 71.0988 82.2951 70.5654 82.5938 70.1281C82.9031 69.6801 83.3191 69.3388 83.8418 69.1041C84.3751 68.8588 84.9724 68.7361 85.6338 68.7361C86.3591 68.7361 87.0098 68.8801 87.5858 69.1681C88.1618 69.4454 88.6311 69.8134 88.9938 70.2721L87.9698 71.2961C87.6391 70.9121 87.2818 70.6241 86.8978 70.4321C86.5244 70.2401 86.0924 70.1441 85.6018 70.1441C85.0044 70.1441 84.5298 70.2774 84.1778 70.5441C83.8258 70.8001 83.6498 71.1628 83.6498 71.6321C83.6498 72.0054 83.7458 72.3094 83.9378 72.5441C84.1404 72.7681 84.4018 72.9601 84.7218 73.1201C85.0418 73.2801 85.3938 73.4294 85.7778 73.5681C86.1724 73.6961 86.5618 73.8401 86.9458 74.0001C87.3298 74.1601 87.6818 74.3628 88.0018 74.6081C88.3218 74.8534 88.5778 75.1734 88.7698 75.5681C88.9724 75.9521 89.0738 76.4374 89.0738 77.0241C89.0738 78.0054 88.7324 78.7734 88.0498 79.3281C87.3778 79.8828 86.4658 80.1601 85.3138 80.1601Z" fill="black"/>
<path d="M76.4 80.1601C75.5253 80.1601 74.7786 80.0001 74.16 79.6801C73.5413 79.3601 72.992 78.8961 72.512 78.2881L73.536 77.2641C73.888 77.7548 74.2933 78.1281 74.752 78.3841C75.2106 78.6294 75.776 78.7521 76.448 78.7521C77.1093 78.7521 77.6373 78.6081 78.032 78.3201C78.4373 78.0321 78.64 77.6374 78.64 77.1361C78.64 76.7201 78.544 76.3841 78.352 76.1281C78.16 75.8721 77.8986 75.6641 77.568 75.5041C77.248 75.3334 76.896 75.1841 76.512 75.0561C76.128 74.9174 75.744 74.7734 75.36 74.6241C74.976 74.4641 74.624 74.2721 74.304 74.0481C73.984 73.8134 73.7226 73.5094 73.52 73.1361C73.328 72.7628 73.232 72.2934 73.232 71.7281C73.232 71.0988 73.3813 70.5654 73.68 70.1281C73.9893 69.6801 74.4053 69.3388 74.928 69.1041C75.4613 68.8588 76.0586 68.7361 76.72 68.7361C77.4453 68.7361 78.096 68.8801 78.672 69.1681C79.248 69.4454 79.7173 69.8134 80.08 70.2721L79.056 71.2961C78.7253 70.9121 78.368 70.6241 77.984 70.4321C77.6106 70.2401 77.1786 70.1441 76.688 70.1441C76.0906 70.1441 75.616 70.2774 75.264 70.5441C74.912 70.8001 74.736 71.1628 74.736 71.6321C74.736 72.0054 74.832 72.3094 75.024 72.5441C75.2266 72.7681 75.488 72.9601 75.808 73.1201C76.128 73.2801 76.48 73.4294 76.864 73.5681C77.2586 73.6961 77.648 73.8401 78.032 74.0001C78.416 74.1601 78.768 74.3628 79.088 74.6081C79.408 74.8534 79.664 75.1734 79.856 75.5681C80.0586 75.9521 80.16 76.4374 80.16 77.0241C80.16 78.0054 79.8186 78.7734 79.136 79.3281C78.464 79.8828 77.552 80.1601 76.4 80.1601Z" fill="black"/>
<rect x="112.5" y="62.5" width="49" height="24" stroke="#6E6E6E"/>
<path d="M139.335 80V68.896H140.391L145.095 76.624H144.375L149.079 68.896H150.135V80H148.631V71.536L148.983 71.632L145.271 77.728H144.215L140.503 71.632L140.839 71.536V80H139.335Z" fill="black"/>
<path d="M126.144 80L122.512 68.896H124.016L126.896 77.952H126.464L129.296 68.896H130.384L133.216 77.952H132.8L135.68 68.896H137.168L133.552 80H132.48L129.632 70.96H130.048L127.216 80H126.144Z" fill="black"/>
<rect x="168.5" y="62.5" width="49" height="24" stroke="#6E6E6E"/>
<path d="M198.335 80V68.896H199.839V80H198.335ZM199.359 80V78.624H205.311V80H199.359Z" fill="black"/>
<path d="M185.144 80L181.512 68.896H183.016L185.896 77.952H185.464L188.296 68.896H189.384L192.216 77.952H191.8L194.68 68.896H196.168L192.552 80H191.48L188.632 70.96H189.048L186.216 80H185.144Z" fill="black"/>
</svg>
