<svg width="380" height="85" viewBox="0 0 380 85" fill="none" xmlns="http://www.w3.org/2000/svg">
<rect width="380" height="85" fill="white"/>
<rect x="220.5" y="30.5" width="49" height="24" stroke="#6E6E6E"/>
<path d="M253.124 48V36.896H254.628V48H253.124ZM254.148 48V46.624H260.1V48H254.148Z" fill="black"/>
<path d="M249.464 48L245.976 42.912H245.704L241.32 36.896H243.112L246.568 41.68H246.84L251.224 48H249.464ZM241.128 48L245.432 42.096L246.456 42.992L242.824 48H241.128ZM246.936 42.64L245.928 41.744L249.352 36.896H251.048L246.936 42.64Z" fill="black"/>
<path d="M238.816 48L235.328 42.912H235.056L230.672 36.896H232.464L235.92 41.68H236.192L240.576 48H238.816ZM230.48 48L234.784 42.096L235.808 42.992L232.176 48H230.48ZM236.288 42.64L235.28 41.744L238.704 36.896H240.4L236.288 42.64Z" fill="black"/>
<rect x="55.5" y="60.5" width="49" height="24" stroke="#6E6E6E"/>
<path d="M87.3584 78V66.896H88.8624V78H87.3584ZM88.3824 78V76.624H94.3344V78H88.3824Z" fill="black"/>
<path d="M83.6983 78L80.2103 72.912H79.9383L75.5543 66.896H77.3463L80.8023 71.68H81.0743L85.4583 78H83.6983ZM75.3623 78L79.6663 72.096L80.6903 72.992L77.0583 78H75.3623ZM81.1703 72.64L80.1623 71.744L83.5863 66.896H85.2823L81.1703 72.64Z" fill="black"/>
<path d="M65.5278 74.176L69.5758 66.896H71.2718L67.1438 74.176H65.5278ZM65.5278 75.104V74.176L66.1678 73.76H74.0398V75.104H65.5278ZM70.9518 78V70.656H72.4398V78H70.9518Z" fill="black"/>
<rect x="110.5" y="60.5" width="49" height="24" stroke="#6E6E6E"/>
<path d="M142.452 78V66.896H143.956V78H142.452ZM143.476 78V76.624H149.428V78H143.476Z" fill="black"/>
<path d="M138.792 78L135.304 72.912H135.032L130.648 66.896H132.44L135.896 71.68H136.168L140.552 78H138.792ZM130.456 78L134.76 72.096L135.784 72.992L132.152 78H130.456ZM136.264 72.64L135.256 71.744L138.68 66.896H140.376L136.264 72.64Z" fill="black"/>
<path d="M124.968 78.16C124.211 78.16 123.534 78.0267 122.936 77.76C122.35 77.4827 121.854 77.0827 121.448 76.56L122.472 75.536C122.718 75.9093 123.054 76.208 123.48 76.432C123.918 76.6453 124.403 76.752 124.936 76.752C125.438 76.752 125.875 76.656 126.248 76.464C126.632 76.272 126.931 76.0053 127.144 75.664C127.368 75.312 127.48 74.896 127.48 74.416C127.48 73.9253 127.374 73.5093 127.16 73.168C126.947 72.8267 126.659 72.5707 126.296 72.4C125.944 72.2187 125.555 72.128 125.128 72.128C124.691 72.128 124.291 72.1813 123.928 72.288C123.576 72.3947 123.24 72.576 122.92 72.832L122.936 71.872C123.118 71.648 123.326 71.4667 123.56 71.328C123.795 71.1893 124.062 71.0827 124.36 71.008C124.659 70.9333 125.006 70.896 125.4 70.896C126.168 70.896 126.819 71.056 127.352 71.376C127.886 71.696 128.291 72.128 128.568 72.672C128.856 73.216 129 73.824 129 74.496C129 75.2 128.824 75.8293 128.472 76.384C128.131 76.9387 127.656 77.376 127.048 77.696C126.44 78.0053 125.747 78.16 124.968 78.16ZM122.92 72.832L122.104 72.016L122.6 66.896H123.976L123.416 72.16L122.92 72.832ZM122.904 68.24L122.6 66.896H128.44V68.24H122.904Z" fill="black"/>
<rect x="0.5" y="0.5" width="49" height="24" stroke="#6E6E6E"/>
<rect x="220.5" y="0.5" width="49" height="24" stroke="#6E6E6E"/>
<path d="M252.967 18.1601C252.135 18.1601 251.372 17.9254 250.679 17.4561C249.996 16.9868 249.452 16.3254 249.047 15.4721C248.642 14.6081 248.439 13.5948 248.439 12.4321C248.439 11.2694 248.636 10.2614 249.031 9.40808C249.436 8.55475 249.98 7.89875 250.663 7.44008C251.346 6.97075 252.098 6.73608 252.919 6.73608C253.762 6.73608 254.524 6.97075 255.207 7.44008C255.89 7.89875 256.428 8.55475 256.823 9.40808C257.228 10.2614 257.431 11.2748 257.431 12.4481C257.431 13.6108 257.228 14.6241 256.823 15.4881C256.428 16.3414 255.89 17.0028 255.207 17.4721C254.535 17.9308 253.788 18.1601 252.967 18.1601ZM252.935 16.7361C253.522 16.7361 254.034 16.5761 254.471 16.2561C254.919 15.9254 255.271 15.4401 255.527 14.8001C255.783 14.1601 255.911 13.3708 255.911 12.4321C255.911 11.4934 255.783 10.7094 255.527 10.0801C255.271 9.44009 254.919 8.96008 254.471 8.64008C254.023 8.30942 253.506 8.14408 252.919 8.14408C252.343 8.14408 251.831 8.30942 251.383 8.64008C250.935 8.96008 250.583 9.44009 250.327 10.0801C250.082 10.7094 249.959 11.4934 249.959 12.4321C249.959 13.3708 250.082 14.1601 250.327 14.8001C250.583 15.4401 250.935 15.9254 251.383 16.2561C251.831 16.5761 252.348 16.7361 252.935 16.7361Z" fill="black"/>
<path d="M242.147 18.1601C241.315 18.1601 240.552 17.9254 239.859 17.4561C239.176 16.9868 238.632 16.3254 238.227 15.4721C237.821 14.6081 237.619 13.5948 237.619 12.4321C237.619 11.2694 237.816 10.2614 238.211 9.40808C238.616 8.55475 239.16 7.89875 239.843 7.44008C240.525 6.97075 241.277 6.73608 242.099 6.73608C242.941 6.73608 243.704 6.97075 244.387 7.44008C245.069 7.89875 245.608 8.55475 246.003 9.40808C246.408 10.2614 246.611 11.2748 246.611 12.4481C246.611 13.6108 246.408 14.6241 246.003 15.4881C245.608 16.3414 245.069 17.0028 244.387 17.4721C243.715 17.9308 242.968 18.1601 242.147 18.1601ZM242.115 16.7361C242.701 16.7361 243.213 16.5761 243.651 16.2561C244.099 15.9254 244.451 15.4401 244.707 14.8001C244.963 14.1601 245.091 13.3708 245.091 12.4321C245.091 11.4934 244.963 10.7094 244.707 10.0801C244.451 9.44009 244.099 8.96008 243.651 8.64008C243.203 8.30942 242.685 8.14408 242.099 8.14408C241.523 8.14408 241.011 8.30942 240.563 8.64008C240.115 8.96008 239.763 9.44009 239.507 10.0801C239.261 10.7094 239.139 11.4934 239.139 12.4321C239.139 13.3708 239.261 14.1601 239.507 14.8001C239.763 15.4401 240.115 15.9254 240.563 16.2561C241.011 16.5761 241.528 16.7361 242.115 16.7361Z" fill="black"/>
<path d="M233.768 18V6.896H235.256V18H233.768ZM231.496 8.24V6.896H235.096V8.24H231.496Z" fill="black"/>
<rect x="275.5" y="0.5" width="49" height="24" stroke="#6E6E6E"/>
<path d="M306.014 18.1601C305.182 18.1601 304.419 17.9254 303.726 17.4561C303.043 16.9868 302.499 16.3254 302.094 15.4721C301.689 14.6081 301.486 13.5948 301.486 12.4321C301.486 11.2694 301.683 10.2614 302.078 9.40808C302.483 8.55475 303.027 7.89875 303.71 7.44008C304.393 6.97075 305.145 6.73608 305.966 6.73608C306.809 6.73608 307.571 6.97075 308.254 7.44008C308.937 7.89875 309.475 8.55475 309.87 9.40808C310.275 10.2614 310.478 11.2748 310.478 12.4481C310.478 13.6108 310.275 14.6241 309.87 15.4881C309.475 16.3414 308.937 17.0028 308.254 17.4721C307.582 17.9308 306.835 18.1601 306.014 18.1601ZM305.982 16.7361C306.569 16.7361 307.081 16.5761 307.518 16.2561C307.966 15.9254 308.318 15.4401 308.574 14.8001C308.83 14.1601 308.958 13.3708 308.958 12.4321C308.958 11.4934 308.83 10.7094 308.574 10.0801C308.318 9.44009 307.966 8.96008 307.518 8.64008C307.07 8.30942 306.553 8.14408 305.966 8.14408C305.39 8.14408 304.878 8.30942 304.43 8.64008C303.982 8.96008 303.63 9.44009 303.374 10.0801C303.129 10.7094 303.006 11.4934 303.006 12.4321C303.006 13.3708 303.129 14.1601 303.374 14.8001C303.63 15.4401 303.982 15.9254 304.43 16.2561C304.878 16.5761 305.395 16.7361 305.982 16.7361Z" fill="black"/>
<path d="M297.635 18V6.896H299.123V18H297.635ZM295.363 8.24V6.896H298.963V8.24H295.363Z" fill="black"/>
<path d="M291.768 18V6.896H293.256V18H291.768ZM289.496 8.24V6.896H293.096V8.24H289.496Z" fill="black"/>
<rect x="330.5" y="0.5" width="49" height="24" stroke="#6E6E6E"/>
<path d="M362.123 18.1601C361.291 18.1601 360.529 17.9254 359.835 17.4561C359.153 16.9868 358.609 16.3254 358.203 15.4721C357.798 14.6081 357.595 13.5948 357.595 12.4321C357.595 11.2694 357.793 10.2614 358.187 9.40808C358.593 8.55475 359.137 7.89875 359.819 7.44008C360.502 6.97075 361.254 6.73608 362.075 6.73608C362.918 6.73608 363.681 6.97075 364.363 7.44008C365.046 7.89875 365.585 8.55475 365.979 9.40808C366.385 10.2614 366.587 11.2748 366.587 12.4481C366.587 13.6108 366.385 14.6241 365.979 15.4881C365.585 16.3414 365.046 17.0028 364.363 17.4721C363.691 17.9308 362.945 18.1601 362.123 18.1601ZM362.091 16.7361C362.678 16.7361 363.19 16.5761 363.627 16.2561C364.075 15.9254 364.427 15.4401 364.683 14.8001C364.939 14.1601 365.067 13.3708 365.067 12.4321C365.067 11.4934 364.939 10.7094 364.683 10.0801C364.427 9.44009 364.075 8.96008 363.627 8.64008C363.179 8.30942 362.662 8.14408 362.075 8.14408C361.499 8.14408 360.987 8.30942 360.539 8.64008C360.091 8.96008 359.739 9.44009 359.483 10.0801C359.238 10.7094 359.115 11.4934 359.115 12.4321C359.115 13.3708 359.238 14.1601 359.483 14.8001C359.739 15.4401 360.091 15.9254 360.539 16.2561C360.987 16.5761 361.505 16.7361 362.091 16.7361Z" fill="black"/>
<path d="M348.395 17.0881L352.491 12.7681C352.907 12.3414 353.232 11.9734 353.467 11.6641C353.702 11.3441 353.867 11.0508 353.963 10.7841C354.07 10.5174 354.123 10.2401 354.123 9.95208C354.123 9.38675 353.942 8.94408 353.579 8.62408C353.216 8.30408 352.747 8.14408 352.171 8.14408C351.606 8.14408 351.11 8.28275 350.683 8.56008C350.256 8.82675 349.878 9.24275 349.547 9.80808L348.491 8.92808C348.928 8.20275 349.456 7.65875 350.075 7.29608C350.694 6.92275 351.408 6.73608 352.219 6.73608C352.902 6.73608 353.494 6.86942 353.995 7.13608C354.507 7.40275 354.902 7.77608 355.179 8.25608C355.456 8.73608 355.595 9.29608 355.595 9.93608C355.595 10.3948 355.536 10.8054 355.419 11.1681C355.312 11.5308 355.115 11.9041 354.827 12.2881C354.55 12.6614 354.16 13.1094 353.659 13.6321L350.347 17.0401L348.395 17.0881ZM348.395 18.0001V17.0881L349.675 16.6561H355.851V18.0001H348.395Z" fill="black"/>
<path d="M344.768 18V6.896H346.256V18H344.768ZM342.496 8.24V6.896H346.096V8.24H342.496Z" fill="black"/>
<rect x="0.5" y="30.5" width="49" height="24" stroke="#6E6E6E"/>
<path d="M32.0763 48.1601C31.2443 48.1601 30.4817 47.9254 29.7883 47.4561C29.1057 46.9868 28.5617 46.3254 28.1563 45.4721C27.751 44.6081 27.5483 43.5948 27.5483 42.4321C27.5483 41.2694 27.7457 40.2614 28.1403 39.4081C28.5457 38.5548 29.0897 37.8988 29.7723 37.4401C30.455 36.9708 31.207 36.7361 32.0283 36.7361C32.871 36.7361 33.6337 36.9708 34.3163 37.4401C34.999 37.8988 35.5377 38.5548 35.9323 39.4081C36.3377 40.2614 36.5403 41.2748 36.5403 42.4481C36.5403 43.6108 36.3377 44.6241 35.9323 45.4881C35.5377 46.3414 34.999 47.0028 34.3163 47.4721C33.6443 47.9308 32.8977 48.1601 32.0763 48.1601ZM32.0443 46.7361C32.631 46.7361 33.143 46.5761 33.5803 46.2561C34.0283 45.9254 34.3803 45.4401 34.6363 44.8001C34.8923 44.1601 35.0203 43.3708 35.0203 42.4321C35.0203 41.4934 34.8923 40.7094 34.6363 40.0801C34.3803 39.4401 34.0283 38.9601 33.5803 38.6401C33.1323 38.3094 32.615 38.1441 32.0283 38.1441C31.4523 38.1441 30.9403 38.3094 30.4923 38.6401C30.0443 38.9601 29.6923 39.4401 29.4363 40.0801C29.191 40.7094 29.0683 41.4934 29.0683 42.4321C29.0683 43.3708 29.191 44.1601 29.4363 44.8001C29.6923 45.4401 30.0443 45.9254 30.4923 46.2561C30.9403 46.5761 31.4577 46.7361 32.0443 46.7361Z" fill="black"/>
<path d="M21.8187 48.16C21.0933 48.16 20.432 48.0267 19.8347 47.76C19.248 47.4827 18.752 47.0827 18.3467 46.56L19.3707 45.536C19.616 45.9093 19.952 46.208 20.3787 46.432C20.8053 46.6453 21.28 46.752 21.8027 46.752C22.2933 46.752 22.7147 46.6613 23.0667 46.48C23.4293 46.288 23.712 46.0213 23.9147 45.68C24.128 45.3387 24.2347 44.944 24.2347 44.496C24.2347 44.0373 24.128 43.6427 23.9147 43.312C23.712 42.9707 23.424 42.7093 23.0507 42.528C22.6773 42.3467 22.2347 42.256 21.7227 42.256C21.5307 42.256 21.3387 42.272 21.1467 42.304C20.9547 42.3253 20.768 42.3627 20.5867 42.416L21.2267 41.552C21.4293 41.456 21.648 41.3813 21.8827 41.328C22.1173 41.2747 22.352 41.248 22.5867 41.248C23.184 41.248 23.7173 41.3867 24.1867 41.664C24.6667 41.9413 25.0453 42.3307 25.3227 42.832C25.6107 43.3333 25.7547 43.9147 25.7547 44.576C25.7547 45.28 25.584 45.904 25.2427 46.448C24.912 46.9813 24.4533 47.4027 23.8667 47.712C23.28 48.0107 22.5973 48.16 21.8187 48.16ZM20.5867 42.416V41.504L23.8347 37.808L25.6267 37.792L22.2827 41.584L20.5867 42.416ZM18.8747 38.24V36.896H25.6267V37.792L24.3147 38.24H18.8747Z" fill="black"/>
<path d="M14.7681 48V36.896H16.2561V48H14.7681ZM12.4961 38.24V36.896H16.0961V38.24H12.4961Z" fill="black"/>
<rect x="55.5" y="30.5" width="49" height="24" stroke="#6E6E6E"/>
<path d="M88.0295 48.1601C87.1975 48.1601 86.4348 47.9254 85.7415 47.4561C85.0588 46.9868 84.5148 46.3254 84.1095 45.4721C83.7041 44.6081 83.5015 43.5948 83.5015 42.4321C83.5015 41.2694 83.6988 40.2614 84.0935 39.4081C84.4988 38.5548 85.0428 37.8988 85.7255 37.4401C86.4081 36.9708 87.1601 36.7361 87.9815 36.7361C88.8241 36.7361 89.5868 36.9708 90.2695 37.4401C90.9521 37.8988 91.4908 38.5548 91.8855 39.4081C92.2908 40.2614 92.4935 41.2748 92.4935 42.4481C92.4935 43.6108 92.2908 44.6241 91.8855 45.4881C91.4908 46.3414 90.9521 47.0028 90.2695 47.4721C89.5975 47.9308 88.8508 48.1601 88.0295 48.1601ZM87.9975 46.7361C88.5841 46.7361 89.0961 46.5761 89.5335 46.2561C89.9815 45.9254 90.3335 45.4401 90.5895 44.8001C90.8455 44.1601 90.9735 43.3708 90.9735 42.4321C90.9735 41.4934 90.8455 40.7094 90.5895 40.0801C90.3335 39.4401 89.9815 38.9601 89.5335 38.6401C89.0855 38.3094 88.5681 38.1441 87.9815 38.1441C87.4055 38.1441 86.8935 38.3094 86.4455 38.6401C85.9975 38.9601 85.6455 39.4401 85.3895 40.0801C85.1441 40.7094 85.0215 41.4934 85.0215 42.4321C85.0215 43.3708 85.1441 44.1601 85.3895 44.8001C85.6455 45.4401 85.9975 45.9254 86.4455 46.2561C86.8935 46.5761 87.4108 46.7361 87.9975 46.7361Z" fill="black"/>
<path d="M73.395 44.176L77.443 36.896H79.139L75.011 44.176H73.395ZM73.395 45.104V44.176L74.035 43.76H81.907V45.104H73.395ZM78.819 48V40.656H80.307V48H78.819Z" fill="black"/>
<path d="M69.7681 48V36.896H71.2561V48H69.7681ZM67.4961 38.24V36.896H71.0961V38.24H67.4961Z" fill="black"/>
<rect x="110.5" y="30.5" width="49" height="24" stroke="#6E6E6E"/>
<path d="M142.123 48.1601C141.291 48.1601 140.529 47.9254 139.835 47.4561C139.153 46.9868 138.609 46.3254 138.203 45.4721C137.798 44.6081 137.595 43.5948 137.595 42.4321C137.595 41.2694 137.793 40.2614 138.187 39.4081C138.593 38.5548 139.137 37.8988 139.819 37.4401C140.502 36.9708 141.254 36.7361 142.075 36.7361C142.918 36.7361 143.681 36.9708 144.363 37.4401C145.046 37.8988 145.585 38.5548 145.979 39.4081C146.385 40.2614 146.587 41.2748 146.587 42.4481C146.587 43.6108 146.385 44.6241 145.979 45.4881C145.585 46.3414 145.046 47.0028 144.363 47.4721C143.691 47.9308 142.945 48.1601 142.123 48.1601ZM142.091 46.7361C142.678 46.7361 143.19 46.5761 143.627 46.2561C144.075 45.9254 144.427 45.4401 144.683 44.8001C144.939 44.1601 145.067 43.3708 145.067 42.4321C145.067 41.4934 144.939 40.7094 144.683 40.0801C144.427 39.4401 144.075 38.9601 143.627 38.6401C143.179 38.3094 142.662 38.1441 142.075 38.1441C141.499 38.1441 140.987 38.3094 140.539 38.6401C140.091 38.9601 139.739 39.4401 139.483 40.0801C139.238 40.7094 139.115 41.4934 139.115 42.4321C139.115 43.3708 139.238 44.1601 139.483 44.8001C139.739 45.4401 140.091 45.9254 140.539 46.2561C140.987 46.5761 141.505 46.7361 142.091 46.7361Z" fill="black"/>
<path d="M131.835 48.16C131.078 48.16 130.4 48.0267 129.803 47.76C129.216 47.4827 128.72 47.0827 128.315 46.56L129.339 45.536C129.584 45.9093 129.92 46.208 130.347 46.432C130.784 46.6453 131.27 46.752 131.803 46.752C132.304 46.752 132.742 46.656 133.115 46.464C133.499 46.272 133.798 46.0053 134.011 45.664C134.235 45.312 134.347 44.896 134.347 44.416C134.347 43.9253 134.24 43.5093 134.027 43.168C133.814 42.8267 133.526 42.5707 133.163 42.4C132.811 42.2187 132.422 42.128 131.995 42.128C131.558 42.128 131.158 42.1813 130.795 42.288C130.443 42.3947 130.107 42.576 129.787 42.832L129.803 41.872C129.984 41.648 130.192 41.4667 130.427 41.328C130.662 41.1893 130.928 41.0827 131.227 41.008C131.526 40.9333 131.872 40.896 132.267 40.896C133.035 40.896 133.686 41.056 134.219 41.376C134.752 41.696 135.158 42.128 135.435 42.672C135.723 43.216 135.867 43.824 135.867 44.496C135.867 45.2 135.691 45.8293 135.339 46.384C134.998 46.9387 134.523 47.376 133.915 47.696C133.307 48.0053 132.614 48.16 131.835 48.16ZM129.787 42.832L128.971 42.016L129.467 36.896H130.843L130.283 42.16L129.787 42.832ZM129.771 38.24L129.467 36.896H135.307V38.24H129.771Z" fill="black"/>
<path d="M124.768 48V36.896H126.256V48H124.768ZM122.496 38.24V36.896H126.096V38.24H122.496Z" fill="black"/>
<rect x="165.5" y="30.5" width="49" height="24" stroke="#6E6E6E"/>
<path d="M197.498 48.1601C196.666 48.1601 195.904 47.9254 195.21 47.4561C194.528 46.9868 193.984 46.3254 193.578 45.4721C193.173 44.6081 192.97 43.5948 192.97 42.4321C192.97 41.2694 193.168 40.2614 193.562 39.4081C193.968 38.5548 194.512 37.8988 195.194 37.4401C195.877 36.9708 196.629 36.7361 197.45 36.7361C198.293 36.7361 199.056 36.9708 199.738 37.4401C200.421 37.8988 200.96 38.5548 201.354 39.4081C201.76 40.2614 201.962 41.2748 201.962 42.4481C201.962 43.6108 201.76 44.6241 201.354 45.4881C200.96 46.3414 200.421 47.0028 199.738 47.4721C199.066 47.9308 198.32 48.1601 197.498 48.1601ZM197.466 46.7361C198.053 46.7361 198.565 46.5761 199.002 46.2561C199.45 45.9254 199.802 45.4401 200.058 44.8001C200.314 44.1601 200.442 43.3708 200.442 42.4321C200.442 41.4934 200.314 40.7094 200.058 40.0801C199.802 39.4401 199.45 38.9601 199.002 38.6401C198.554 38.3094 198.037 38.1441 197.45 38.1441C196.874 38.1441 196.362 38.3094 195.914 38.6401C195.466 38.9601 195.114 39.4401 194.858 40.0801C194.613 40.7094 194.49 41.4934 194.49 42.4321C194.49 43.3708 194.613 44.1601 194.858 44.8001C195.114 45.4401 195.466 45.9254 195.914 46.2561C196.362 46.5761 196.88 46.7361 197.466 46.7361Z" fill="black"/>
<path d="M187.379 48.16C186.643 48.16 185.982 47.9893 185.395 47.648C184.819 47.3067 184.36 46.848 184.019 46.272C183.678 45.696 183.507 45.056 183.507 44.352C183.507 43.3707 183.848 42.3947 184.531 41.424L187.795 36.896H189.539L186.195 41.456L185.651 41.744C185.779 41.52 185.934 41.3333 186.115 41.184C186.296 41.024 186.52 40.9013 186.787 40.816C187.054 40.7307 187.368 40.688 187.731 40.688C188.382 40.688 188.968 40.8427 189.491 41.152C190.024 41.4613 190.451 41.888 190.771 42.432C191.102 42.9653 191.267 43.5893 191.267 44.304C191.267 45.008 191.091 45.6533 190.739 46.24C190.398 46.8267 189.928 47.296 189.331 47.648C188.744 47.9893 188.094 48.16 187.379 48.16ZM187.379 46.752C187.827 46.752 188.227 46.6453 188.579 46.432C188.942 46.208 189.224 45.9147 189.427 45.552C189.64 45.1787 189.747 44.7627 189.747 44.304C189.747 43.8453 189.64 43.4347 189.427 43.072C189.224 42.6987 188.942 42.4053 188.579 42.192C188.227 41.9787 187.827 41.872 187.379 41.872C186.931 41.872 186.526 41.9787 186.163 42.192C185.811 42.4053 185.528 42.6987 185.315 43.072C185.112 43.4347 185.011 43.8453 185.011 44.304C185.011 44.7627 185.112 45.1787 185.315 45.552C185.528 45.9253 185.811 46.2187 186.163 46.432C186.526 46.6453 186.931 46.752 187.379 46.752Z" fill="black"/>
<path d="M179.768 48V36.896H181.256V48H179.768ZM177.496 38.24V36.896H181.096V38.24H177.496Z" fill="black"/>
<rect x="275.5" y="30.5" width="59" height="24" stroke="#6E6E6E"/>
<path d="M317.772 48V36.896H319.276V48H317.772ZM318.796 48V46.624H324.748V48H318.796Z" fill="black"/>
<path d="M314.112 48L310.624 42.912H310.352L305.968 36.896H307.76L311.216 41.68H311.488L315.872 48H314.112ZM305.776 48L310.08 42.096L311.104 42.992L307.472 48H305.776ZM311.584 42.64L310.576 41.744L314 36.896H315.696L311.584 42.64Z" fill="black"/>
<path d="M303.464 48L299.976 42.912H299.704L295.32 36.896H297.112L300.568 41.68H300.84L305.224 48H303.464ZM295.128 48L299.432 42.096L300.456 42.992L296.824 48H295.128ZM300.936 42.64L299.928 41.744L303.352 36.896H305.048L300.936 42.64Z" fill="black"/>
<path d="M292.816 48L289.328 42.912H289.056L284.672 36.896H286.464L289.92 41.68H290.192L294.576 48H292.816ZM284.48 48L288.784 42.096L289.808 42.992L286.176 48H284.48ZM290.288 42.64L289.28 41.744L292.704 36.896H294.4L290.288 42.64Z" fill="black"/>
<path d="M24.4002 18.1601C23.5255 18.1601 22.7789 18.0001 22.1602 17.6801C21.5415 17.3601 20.9922 16.8961 20.5122 16.2881L21.5362 15.2641C21.8882 15.7548 22.2935 16.1281 22.7522 16.3841C23.2109 16.6294 23.7762 16.7521 24.4482 16.7521C25.1095 16.7521 25.6375 16.6081 26.0322 16.3201C26.4375 16.0321 26.6402 15.6374 26.6402 15.1361C26.6402 14.7201 26.5442 14.3841 26.3522 14.1281C26.1602 13.8721 25.8989 13.6641 25.5682 13.5041C25.2482 13.3334 24.8962 13.1841 24.5122 13.0561C24.1282 12.9174 23.7442 12.7734 23.3602 12.6241C22.9762 12.4641 22.6242 12.2721 22.3042 12.0481C21.9842 11.8134 21.7229 11.5094 21.5202 11.1361C21.3282 10.7628 21.2322 10.2934 21.2322 9.72808C21.2322 9.09875 21.3815 8.56542 21.6802 8.12808C21.9895 7.68008 22.4055 7.33875 22.9282 7.10408C23.4615 6.85875 24.0589 6.73608 24.7202 6.73608C25.4455 6.73608 26.0962 6.88008 26.6722 7.16808C27.2482 7.44542 27.7175 7.81342 28.0802 8.27208L27.0562 9.29608C26.7255 8.91208 26.3682 8.62408 25.9842 8.43208C25.6109 8.24008 25.1789 8.14408 24.6882 8.14408C24.0909 8.14408 23.6162 8.27742 23.2642 8.54408C22.9122 8.80008 22.7362 9.16275 22.7362 9.63208C22.7362 10.0054 22.8322 10.3094 23.0242 10.5441C23.2269 10.7681 23.4882 10.9601 23.8082 11.1201C24.1282 11.2801 24.4802 11.4294 24.8642 11.5681C25.2589 11.6961 25.6482 11.8401 26.0322 12.0001C26.4162 12.1601 26.7682 12.3628 27.0882 12.6081C27.4082 12.8534 27.6642 13.1734 27.8562 13.5681C28.0589 13.9521 28.1602 14.4374 28.1602 15.0241C28.1602 16.0054 27.8189 16.7734 27.1362 17.3281C26.4642 17.8828 25.5522 18.1601 24.4002 18.1601Z" fill="black"/>
<rect x="55.5" y="0.5" width="49" height="24" stroke="#6E6E6E"/>
<path d="M74.312 18V6.896H75.368L80.072 14.624H79.352L84.056 6.896H85.112V18H83.608V9.536L83.96 9.632L80.248 15.728H79.192L75.48 9.632L75.816 9.536V18H74.312Z" fill="black"/>
<rect x="110.5" y="0.5" width="49" height="24" stroke="#6E6E6E"/>
<path d="M132.312 18V6.896H133.816V18H132.312ZM133.336 18V16.624H139.288V18H133.336Z" fill="black"/>
<rect x="165.5" y="0.5" width="49" height="24" stroke="#6E6E6E"/>
<path d="M192.476 18V6.896H193.98V18H192.476ZM193.5 18V16.624H199.452V18H193.5Z" fill="black"/>
<path d="M188.816 18L185.328 12.912H185.056L180.672 6.896H182.464L185.92 11.68H186.192L190.576 18H188.816ZM180.48 18L184.784 12.096L185.808 12.992L182.176 18H180.48ZM186.288 12.64L185.28 11.744L188.704 6.896H190.4L186.288 12.64Z" fill="black"/>
<rect x="165.5" y="60.5" width="49" height="24" stroke="#6E6E6E"/>
<path d="M195.142 78.1601C194.267 78.1601 193.521 78.0001 192.902 77.6801C192.283 77.3601 191.734 76.8961 191.254 76.2881L192.278 75.2641C192.63 75.7548 193.035 76.1281 193.494 76.3841C193.953 76.6294 194.518 76.7521 195.19 76.7521C195.851 76.7521 196.379 76.6081 196.774 76.3201C197.179 76.0321 197.382 75.6374 197.382 75.1361C197.382 74.7201 197.286 74.3841 197.094 74.1281C196.902 73.8721 196.641 73.6641 196.31 73.5041C195.99 73.3334 195.638 73.1841 195.254 73.0561C194.87 72.9174 194.486 72.7734 194.102 72.6241C193.718 72.4641 193.366 72.2721 193.046 72.0481C192.726 71.8134 192.465 71.5094 192.262 71.1361C192.07 70.7628 191.974 70.2934 191.974 69.7281C191.974 69.0988 192.123 68.5654 192.422 68.1281C192.731 67.6801 193.147 67.3388 193.67 67.1041C194.203 66.8588 194.801 66.7361 195.462 66.7361C196.187 66.7361 196.838 66.8801 197.414 67.1681C197.99 67.4454 198.459 67.8134 198.822 68.2721L197.798 69.2961C197.467 68.9121 197.11 68.6241 196.726 68.4321C196.353 68.2401 195.921 68.1441 195.43 68.1441C194.833 68.1441 194.358 68.2774 194.006 68.5441C193.654 68.8001 193.478 69.1628 193.478 69.6321C193.478 70.0054 193.574 70.3094 193.766 70.5441C193.969 70.7681 194.23 70.9601 194.55 71.1201C194.87 71.2801 195.222 71.4294 195.606 71.5681C196.001 71.6961 196.39 71.8401 196.774 72.0001C197.158 72.1601 197.51 72.3628 197.83 72.6081C198.15 72.8534 198.406 73.1734 198.598 73.5681C198.801 73.9521 198.902 74.4374 198.902 75.0241C198.902 76.0054 198.561 76.7734 197.878 77.3281C197.206 77.8828 196.294 78.1601 195.142 78.1601Z" fill="black"/>
<path d="M188.816 78L185.328 72.912H185.056L180.672 66.896H182.464L185.92 71.68H186.192L190.576 78H188.816ZM180.48 78L184.784 72.096L185.808 72.992L182.176 78H180.48ZM186.288 72.64L185.28 71.744L188.704 66.896H190.4L186.288 72.64Z" fill="black"/>
<rect x="0.5" y="60.5" width="49" height="24" stroke="#6E6E6E"/>
<path d="M30.335 78V66.896H31.839V78H30.335ZM31.359 78V76.624H37.311V78H31.359Z" fill="black"/>
<path d="M17.1442 78L13.5122 66.896H15.0162L17.8962 75.952H17.4642L20.2962 66.896H21.3842L24.2162 75.952H23.8002L26.6802 66.896H28.1682L24.5522 78H23.4802L20.6322 68.96H21.0482L18.2162 78H17.1442Z" fill="black"/>
</svg>
