<svg width="381" height="143" viewBox="0 0 381 143" fill="none" xmlns="http://www.w3.org/2000/svg">
<rect x="0.5" y="30.5" width="22.75" height="22.75" fill="#DF3025" stroke="#9A9A9A"/>
<rect x="30.5" y="29.5" width="22.75" height="22.75" fill="#CF101A" stroke="#9A9A9A"/>
<rect x="60.1875" y="29.5" width="22.75" height="22.75" fill="#B2070A" stroke="#9A9A9A"/>
<rect x="89.875" y="29.5" width="22.75" height="22.75" fill="#6B0725" stroke="#9A9A9A"/>
<rect x="119.562" y="29.5" width="22.75" height="22.75" fill="#FDDFE0" stroke="#9A9A9A"/>
<rect x="149.25" y="29.5" width="22.75" height="22.75" fill="#EF98BF" stroke="#9A9A9A"/>
<path d="M178.938 29.5H201.688V52.25H178.938V29.5Z" fill="#D80066" stroke="#9A9A9A"/>
<rect x="208.625" y="29.5" width="22.75" height="22.75" fill="#F0823F" stroke="#9A9A9A"/>
<rect x="238.312" y="29.5" width="22.75" height="22.75" fill="#EC5F02" stroke="#9A9A9A"/>
<rect x="268" y="29.5" width="22.75" height="22.75" fill="#E74F04" stroke="#9A9A9A"/>
<rect x="297.688" y="29.5" width="22.75" height="22.75" fill="#FFF9B2" stroke="#9A9A9A"/>
<path d="M327.375 29.5H350.125V52.25H327.375V29.5Z" fill="#FFF152" stroke="#9A9A9A"/>
<rect x="357.062" y="29.5" width="22.75" height="22.75" fill="#F9B317" stroke="#9A9A9A"/>
<rect x="0.5" y="59.5" width="22.75" height="22.75" fill="#C0E3E1" stroke="#9A9A9A"/>
<rect x="30.5" y="59.5" width="22.75" height="22.75" fill="#B0E8DF" stroke="#9A9A9A"/>
<rect x="60.1875" y="59.5" width="22.75" height="22.75" fill="#B2DAD3" stroke="#9A9A9A"/>
<rect x="89.875" y="59.5" width="22.75" height="22.75" fill="#AAE202" stroke="#9A9A9A"/>
<rect x="119.562" y="59.5" width="22.75" height="22.75" fill="#A8DF46" stroke="#9A9A9A"/>
<rect x="149.25" y="59.5" width="22.75" height="22.75" fill="#18962F" stroke="#9A9A9A"/>
<rect x="178.938" y="59.5" width="22.75" height="22.75" fill="#01853B" stroke="#9A9A9A"/>
<path d="M208.625 59.5H231.375V82.25H208.625V59.5Z" fill="#4F592D" stroke="#9A9A9A"/>
<path d="M238.312 59.5H261.062V82.25H238.312V59.5Z" fill="#5D5219" stroke="#9A9A9A"/>
<rect x="268" y="59.5" width="22.75" height="22.75" fill="#184001" stroke="#9A9A9A"/>
<rect x="297.688" y="59.5" width="22.75" height="22.75" fill="#012907" stroke="#9A9A9A"/>
<path d="M327.375 59.5H350.125V82.25H327.375V59.5Z" fill="#B7E0F6" stroke="#9A9A9A"/>
<rect x="357.062" y="59.5" width="22.75" height="22.75" fill="#9BCAF6" stroke="#9A9A9A"/>
<rect x="1.5" y="89.5" width="22.75" height="22.75" fill="#79CBC4" stroke="#9A9A9A"/>
<rect x="30.5" y="89.5" width="22.75" height="22.75" fill="#60BEE4" stroke="#9A9A9A"/>
<rect x="60.1875" y="89.5" width="22.75" height="22.75" fill="#79CBC4" stroke="#9A9A9A"/>
<rect x="89.875" y="89.5" width="22.75" height="22.75" fill="#60BEE4" stroke="#9A9A9A"/>
<rect x="119.562" y="89.5" width="22.75" height="22.75" fill="#029DD7" stroke="#9A9A9A"/>
<rect x="30.5" y="119.5" width="22.75" height="22.75" fill="#5B0D78" stroke="#9A9A9A"/>
<rect x="149.25" y="89.5" width="22.75" height="22.75" fill="#0160AD" stroke="#9A9A9A"/>
<rect x="178.938" y="89.5" width="22.75" height="22.75" fill="#054191" stroke="#9A9A9A"/>
<path d="M208.625 89.5H231.375V112.25H208.625V89.5Z" fill="#202583" stroke="#9A9A9A"/>
<rect x="238.312" y="89.5" width="22.75" height="22.75" fill="#313752" stroke="#9A9A9A"/>
<path d="M268 89.5H290.75V112.25H268V89.5Z" fill="#313752" stroke="#9A9A9A"/>
<rect x="297.688" y="89.5" width="22.75" height="22.75" fill="#001D59" stroke="#9A9A9A"/>
<path d="M327.375 89.5H350.125V112.25H327.375V89.5Z" fill="#01092E" stroke="#9A9A9A"/>
<rect x="357.062" y="89.5" width="22.75" height="22.75" fill="#CDB5D1" stroke="#9A9A9A"/>
<rect x="0.5" y="119.5" width="22.75" height="22.75" fill="#BB80D0" stroke="#9A9A9A"/>
<rect x="0.5" y="0.5" width="22.75" height="22.75" fill="white" stroke="#9A9A9A"/>
<rect x="30.1875" y="0.5" width="22.75" height="22.75" fill="#DED1C2" stroke="#9A9A9A"/>
<rect x="59.875" y="0.5" width="22.75" height="22.75" fill="#EFE8D7" stroke="#9A9A9A"/>
<rect x="208.5" y="0.5" width="22.75" height="22.75" fill="black" stroke="#9A9A9A"/>
<rect x="238.188" y="0.5" width="22.75" height="22.75" fill="#EBECE8" stroke="#9A9A9A"/>
<rect x="267.875" y="0.5" width="22.75" height="22.75" fill="#D0D3D8" stroke="#9A9A9A"/>
<path d="M297.562 0.5H320.312V23.25H297.562V0.5Z" fill="#D3D3D3" stroke="#9A9A9A"/>
<rect x="327.25" y="0.5" width="22.75" height="22.75" fill="#9EA1A5" stroke="#9A9A9A"/>
<rect x="356.938" y="0.5" width="22.75" height="22.75" fill="#7E7E7E" stroke="#9A9A9A"/>
<rect x="178.5" y="0.5" width="22.75" height="22.75" fill="#343434" stroke="#9A9A9A"/>
<rect x="89.5" y="0.5" width="22.75" height="22.75" fill="white" stroke="#9A9A9A"/>
<path d="M111 2L91 22H111V2Z" fill="black"/>
<rect x="119.5" y="0.5" width="22.75" height="22.75" fill="white" stroke="#9A9A9A"/>
<path d="M141 2L121 22H141V2Z" fill="#CE0F19"/>
<rect x="149.5" y="0.5" width="22.75" height="22.75" fill="white" stroke="#9A9A9A"/>
<path d="M171 2L151 22H171V2Z" fill="#01092C"/>
</svg>
