<svg width="380" height="57" viewBox="0 0 380 57" fill="none" xmlns="http://www.w3.org/2000/svg">
<rect width="380" height="57" fill="white"/>
<rect x="220.5" y="0.5" width="49" height="24" stroke="#6E6E6E"/>
<rect x="0.5" y="0.5" width="49" height="24" stroke="#6E6E6E"/>
<path d="M253.124 18V6.896H254.628V18H253.124ZM254.148 18V16.624H260.1V18H254.148Z" fill="black"/>
<path d="M249.464 18L245.976 12.912H245.704L241.32 6.896H243.112L246.568 11.68H246.84L251.224 18H249.464ZM241.128 18L245.432 12.096L246.456 12.992L242.824 18H241.128ZM246.936 12.64L245.928 11.744L249.352 6.896H251.048L246.936 12.64Z" fill="black"/>
<path d="M238.816 18L235.328 12.912H235.056L230.672 6.896H232.464L235.92 11.68H236.192L240.576 18H238.816ZM230.48 18L234.784 12.096L235.808 12.992L232.176 18H230.48ZM236.288 12.64L235.28 11.744L238.704 6.896H240.4L236.288 12.64Z" fill="black"/>
<rect x="275.5" y="0.5" width="59" height="24" stroke="#6E6E6E"/>
<path d="M317.772 18V6.896H319.276V18H317.772ZM318.796 18V16.624H324.748V18H318.796Z" fill="black"/>
<path d="M314.112 18L310.624 12.912H310.352L305.968 6.896H307.76L311.216 11.68H311.488L315.872 18H314.112ZM305.776 18L310.08 12.096L311.104 12.992L307.472 18H305.776ZM311.584 12.64L310.576 11.744L314 6.896H315.696L311.584 12.64Z" fill="black"/>
<path d="M303.464 18L299.976 12.912H299.704L295.32 6.896H297.112L300.568 11.68H300.84L305.224 18H303.464ZM295.128 18L299.432 12.096L300.456 12.992L296.824 18H295.128ZM300.936 12.64L299.928 11.744L303.352 6.896H305.048L300.936 12.64Z" fill="black"/>
<path d="M292.816 18L289.328 12.912H289.056L284.672 6.896H286.464L289.92 11.68H290.192L294.576 18H292.816ZM284.48 18L288.784 12.096L289.808 12.992L286.176 18H284.48ZM290.288 12.64L289.28 11.744L292.704 6.896H294.4L290.288 12.64Z" fill="black"/>
<rect x="0.5" y="32.5" width="64" height="24" stroke="#6E6E6E"/>
<path d="M51.4202 50V38.896H52.9242V50H51.4202ZM52.4442 50V48.624H58.3962V50H52.4442Z" fill="black"/>
<path d="M47.7603 50L44.2723 44.912H44.0003L39.6163 38.896H41.4083L44.8643 43.68H45.1363L49.5203 50H47.7603ZM39.4243 50L43.7283 44.096L44.7523 44.992L41.1203 50H39.4243ZM45.2323 44.64L44.2243 43.744L47.6483 38.896H49.3443L45.2323 44.64Z" fill="black"/>
<path d="M37.1122 50L33.6242 44.912H33.3522L28.9682 38.896H30.7602L34.2162 43.68H34.4882L38.8722 50H37.1122ZM28.7762 50L33.0802 44.096L34.1042 44.992L30.4722 50H28.7762ZM34.5842 44.64L33.5762 43.744L37.0002 38.896H38.6962L34.5842 44.64Z" fill="black"/>
<path d="M26.4641 50L22.9761 44.912H22.7041L18.3201 38.896H20.1121L23.5681 43.68H23.8401L28.2241 50H26.4641ZM18.1281 50L22.4321 44.096L23.4561 44.992L19.8241 50H18.1281ZM23.9361 44.64L22.9281 43.744L26.3521 38.896H28.0481L23.9361 44.64Z" fill="black"/>
<path d="M15.816 50L12.328 44.912H12.056L7.67198 38.896H9.46398L12.92 43.68H13.192L17.576 50H15.816ZM7.47998 50L11.784 44.096L12.808 44.992L9.17598 50H7.47998ZM13.288 44.64L12.28 43.744L15.704 38.896H17.4L13.288 44.64Z" fill="black"/>
<path d="M24.4 18.1601C23.5253 18.1601 22.7786 18.0001 22.16 17.6801C21.5413 17.3601 20.992 16.8961 20.512 16.2881L21.536 15.2641C21.888 15.7548 22.2933 16.1281 22.752 16.3841C23.2106 16.6294 23.776 16.7521 24.448 16.7521C25.1093 16.7521 25.6373 16.6081 26.032 16.3201C26.4373 16.0321 26.64 15.6374 26.64 15.1361C26.64 14.7201 26.544 14.3841 26.352 14.1281C26.16 13.8721 25.8986 13.6641 25.568 13.5041C25.248 13.3334 24.896 13.1841 24.512 13.0561C24.128 12.9174 23.744 12.7734 23.36 12.6241C22.976 12.4641 22.624 12.2721 22.304 12.0481C21.984 11.8134 21.7226 11.5094 21.52 11.1361C21.328 10.7628 21.232 10.2934 21.232 9.72808C21.232 9.09875 21.3813 8.56542 21.68 8.12808C21.9893 7.68008 22.4053 7.33875 22.928 7.10408C23.4613 6.85875 24.0586 6.73608 24.72 6.73608C25.4453 6.73608 26.096 6.88008 26.672 7.16808C27.248 7.44542 27.7173 7.81342 28.08 8.27208L27.056 9.29608C26.7253 8.91208 26.368 8.62408 25.984 8.43208C25.6106 8.24008 25.1786 8.14408 24.688 8.14408C24.0906 8.14408 23.616 8.27742 23.264 8.54408C22.912 8.80008 22.736 9.16275 22.736 9.63208C22.736 10.0054 22.832 10.3094 23.024 10.5441C23.2266 10.7681 23.488 10.9601 23.808 11.1201C24.128 11.2801 24.48 11.4294 24.864 11.5681C25.2586 11.6961 25.648 11.8401 26.032 12.0001C26.416 12.1601 26.768 12.3628 27.088 12.6081C27.408 12.8534 27.664 13.1734 27.856 13.5681C28.0586 13.9521 28.16 14.4374 28.16 15.0241C28.16 16.0054 27.8186 16.7734 27.136 17.3281C26.464 17.8828 25.552 18.1601 24.4 18.1601Z" fill="black"/>
<rect x="55.5" y="0.5" width="49" height="24" stroke="#6E6E6E"/>
<path d="M74.312 18V6.896H75.368L80.072 14.624H79.352L84.056 6.896H85.112V18H83.608V9.536L83.96 9.632L80.248 15.728H79.192L75.48 9.632L75.816 9.536V18H74.312Z" fill="black"/>
<rect x="110.5" y="0.5" width="49" height="24" stroke="#6E6E6E"/>
<path d="M132.312 18V6.896H133.816V18H132.312ZM133.336 18V16.624H139.288V18H133.336Z" fill="black"/>
<rect x="165.5" y="0.5" width="49" height="24" stroke="#6E6E6E"/>
<path d="M192.476 18V6.896H193.98V18H192.476ZM193.5 18V16.624H199.452V18H193.5Z" fill="black"/>
<path d="M188.816 18L185.328 12.912H185.056L180.672 6.896H182.464L185.92 11.68H186.192L190.576 18H188.816ZM180.48 18L184.784 12.096L185.808 12.992L182.176 18H180.48ZM186.288 12.64L185.28 11.744L188.704 6.896H190.4L186.288 12.64Z" fill="black"/>
<rect x="70.5" y="32.5" width="49" height="24" stroke="#6E6E6E"/>
<path d="M96.2882 50V38.896H97.7922V50H96.2882ZM97.3122 50V48.624H103.264V50H97.3122Z" fill="black"/>
<path d="M89.968 50.16C89.2107 50.16 88.5333 50.0267 87.936 49.76C87.3493 49.4827 86.8533 49.0827 86.448 48.56L87.472 47.536C87.7173 47.9093 88.0533 48.208 88.48 48.432C88.9173 48.6453 89.4027 48.752 89.936 48.752C90.4373 48.752 90.8747 48.656 91.248 48.464C91.632 48.272 91.9307 48.0053 92.144 47.664C92.368 47.312 92.48 46.896 92.48 46.416C92.48 45.9253 92.3733 45.5093 92.16 45.168C91.9467 44.8267 91.6587 44.5707 91.296 44.4C90.944 44.2187 90.5547 44.128 90.128 44.128C89.6907 44.128 89.2907 44.1813 88.928 44.288C88.576 44.3947 88.24 44.576 87.92 44.832L87.936 43.872C88.1173 43.648 88.3253 43.4667 88.56 43.328C88.7947 43.1893 89.0613 43.0827 89.36 43.008C89.6587 42.9333 90.0053 42.896 90.4 42.896C91.168 42.896 91.8187 43.056 92.352 43.376C92.8853 43.696 93.2907 44.128 93.568 44.672C93.856 45.216 94 45.824 94 46.496C94 47.2 93.824 47.8293 93.472 48.384C93.1307 48.9387 92.656 49.376 92.048 49.696C91.44 50.0053 90.7467 50.16 89.968 50.16ZM87.92 44.832L87.104 44.016L87.6 38.896H88.976L88.416 44.16L87.92 44.832ZM87.904 40.24L87.6 38.896H93.44V40.24H87.904Z" fill="black"/>
<rect x="125.5" y="32.5" width="49" height="24" stroke="#6E6E6E"/>
<path d="M151.663 50V38.896H153.167V50H151.663ZM152.687 50V48.624H158.639V50H152.687Z" fill="black"/>
<path d="M145.512 50.16C144.776 50.16 144.115 49.9893 143.528 49.648C142.952 49.3067 142.493 48.848 142.152 48.272C141.811 47.696 141.64 47.056 141.64 46.352C141.64 45.3707 141.981 44.3947 142.664 43.424L145.928 38.896H147.672L144.328 43.456L143.784 43.744C143.912 43.52 144.067 43.3333 144.248 43.184C144.429 43.024 144.653 42.9013 144.92 42.816C145.187 42.7307 145.501 42.688 145.864 42.688C146.515 42.688 147.101 42.8427 147.624 43.152C148.157 43.4613 148.584 43.888 148.904 44.432C149.235 44.9653 149.4 45.5893 149.4 46.304C149.4 47.008 149.224 47.6533 148.872 48.24C148.531 48.8267 148.061 49.296 147.464 49.648C146.877 49.9893 146.227 50.16 145.512 50.16ZM145.512 48.752C145.96 48.752 146.36 48.6453 146.712 48.432C147.075 48.208 147.357 47.9147 147.56 47.552C147.773 47.1787 147.88 46.7627 147.88 46.304C147.88 45.8453 147.773 45.4347 147.56 45.072C147.357 44.6987 147.075 44.4053 146.712 44.192C146.36 43.9787 145.96 43.872 145.512 43.872C145.064 43.872 144.659 43.9787 144.296 44.192C143.944 44.4053 143.661 44.6987 143.448 45.072C143.245 45.4347 143.144 45.8453 143.144 46.304C143.144 46.7627 143.245 47.1787 143.448 47.552C143.661 47.9253 143.944 48.2187 144.296 48.432C144.659 48.6453 145.064 48.752 145.512 48.752Z" fill="black"/>
</svg>
