<svg width="380" height="84" viewBox="0 0 380 84" fill="none" xmlns="http://www.w3.org/2000/svg">
<rect x="0.5" y="0.5" width="22.75" height="22.75" fill="white" stroke="#9A9A9A"/>
<rect x="30.1875" y="0.5" width="22.75" height="22.75" fill="black" stroke="#9A9A9A"/>
<rect x="59.875" y="0.5" width="22.75" height="22.75" fill="#83837D" stroke="#9A9A9A"/>
<rect x="89.5625" y="0.5" width="22.75" height="22.75" fill="#FCE36A" stroke="#9A9A9A"/>
<rect x="119.25" y="0.5" width="22.75" height="22.75" fill="#F5A439" stroke="#9A9A9A"/>
<rect x="148.938" y="0.5" width="22.75" height="22.75" fill="#6DC6CE" stroke="#9A9A9A"/>
<rect x="178.625" y="0.5" width="22.75" height="22.75" fill="#0EAE6B" stroke="#9A9A9A"/>
<rect x="208.312" y="0.5" width="22.75" height="22.75" fill="#22905B" stroke="#9A9A9A"/>
<rect x="238" y="0.5" width="22.75" height="22.75" fill="#645F50" stroke="#9A9A9A"/>
<rect x="267.688" y="0.5" width="22.75" height="22.75" fill="#A5C56C" stroke="#9A9A9A"/>
<rect x="297.375" y="0.5" width="22.75" height="22.75" fill="#5A3C7A" stroke="#9A9A9A"/>
<rect x="327.062" y="0.5" width="22.75" height="22.75" fill="#DB6233" stroke="#9A9A9A"/>
<rect x="356.75" y="0.5" width="22.75" height="22.75" fill="#DEB0C7" stroke="#9A9A9A"/>
<rect x="0.5" y="30.1875" width="22.75" height="22.75" fill="#C0000D" stroke="#9A9A9A"/>
<rect x="30.1875" y="30.1875" width="22.75" height="22.75" fill="#754652" stroke="#9A9A9A"/>
<rect x="59.875" y="30.1875" width="22.75" height="22.75" fill="#8E5687" stroke="#9A9A9A"/>
<rect x="89.5625" y="30.1875" width="22.75" height="22.75" fill="#52AFC9" stroke="#9A9A9A"/>
<rect x="119.25" y="30.1875" width="22.75" height="22.75" fill="#214F7E" stroke="#9A9A9A"/>
<path d="M148.938 30.1875H171.688V52.9375H148.938V30.1875Z" fill="#424652" stroke="#9A9A9A"/>
<rect x="178.625" y="30.1875" width="22.75" height="22.75" fill="#3D425E" stroke="#9A9A9A"/>
<rect x="208.312" y="30.1875" width="22.75" height="22.75" fill="#11277F" stroke="#9A9A9A"/>
<rect x="238" y="30.1875" width="22.75" height="22.75" fill="#4F5F51" stroke="#9A9A9A"/>
<rect x="267.688" y="30.1875" width="22.75" height="22.75" fill="#CBCE3C" stroke="#9A9A9A"/>
<rect x="297.375" y="30.1875" width="22.75" height="22.75" fill="#C62117" stroke="#9A9A9A"/>
<rect x="327.062" y="30.1875" width="22.75" height="22.75" fill="#D9478C" stroke="#9A9A9A"/>
<rect x="356.75" y="30.1875" width="22.75" height="22.75" fill="#9A1D21" stroke="#9A9A9A"/>
<rect x="0.5" y="59.875" width="22.75" height="22.75" fill="#424950" stroke="#9A9A9A"/>
<rect x="30.1875" y="59.875" width="22.75" height="22.75" fill="#EAC34C" stroke="#9A9A9A"/>
<rect x="59.875" y="59.875" width="22.75" height="22.75" fill="#2F265E" stroke="#9A9A9A"/>
<rect x="89.5625" y="59.875" width="22.75" height="22.75" fill="#AD955C" stroke="#9A9A9A"/>
<rect x="119.25" y="59.875" width="22.75" height="22.75" fill="#98BFD6" stroke="#9A9A9A"/>
<rect x="148.938" y="59.875" width="22.75" height="22.75" fill="#435E55" stroke="#9A9A9A"/>
<rect x="178.625" y="59.875" width="22.75" height="22.75" fill="#C63F6F" stroke="#9A9A9A"/>
<rect x="208.312" y="59.875" width="22.75" height="22.75" fill="#CBD1D8" stroke="#9A9A9A"/>
<rect x="238" y="59.875" width="22.75" height="22.75" fill="#007B93" stroke="#9A9A9A"/>
<rect x="267.688" y="59.875" width="22.75" height="22.75" fill="#695391" stroke="#9A9A9A"/>
<rect x="297.375" y="59.875" width="22.75" height="22.75" fill="#E8CBCF" stroke="#9A9A9A"/>
<rect x="327.062" y="59.875" width="22.75" height="22.75" fill="#0170A9" stroke="#9A9A9A"/>
</svg>
