<svg width="380" height="25" viewBox="0 0 380 25" fill="none" xmlns="http://www.w3.org/2000/svg">
<rect x="0.5" y="0.5" width="49" height="24" stroke="#6E6E6E"/>
<rect x="220.5" y="0.5" width="49" height="24" stroke="#6E6E6E"/>
<path d="M252.452 18V6.896H253.956V18H252.452ZM253.476 18V16.624H259.428V18H253.476Z" fill="black"/>
<path d="M248.792 18L245.304 12.912H245.032L240.648 6.896H242.44L245.896 11.68H246.168L250.552 18H248.792ZM240.456 18L244.76 12.096L245.784 12.992L242.152 18H240.456ZM246.264 12.64L245.256 11.744L248.68 6.896H250.376L246.264 12.64Z" fill="black"/>
<path d="M231.528 17.0881L235.624 12.7681C236.04 12.3414 236.365 11.9734 236.6 11.6641C236.834 11.3441 237 11.0508 237.096 10.7841C237.202 10.5174 237.256 10.2401 237.256 9.95208C237.256 9.38675 237.074 8.94408 236.712 8.62408C236.349 8.30408 235.88 8.14408 235.304 8.14408C234.738 8.14408 234.242 8.28275 233.816 8.56008C233.389 8.82675 233.01 9.24275 232.68 9.80808L231.624 8.92808C232.061 8.20275 232.589 7.65875 233.208 7.29608C233.826 6.92275 234.541 6.73608 235.352 6.73608C236.034 6.73608 236.626 6.86942 237.128 7.13608C237.64 7.40275 238.034 7.77608 238.312 8.25608C238.589 8.73608 238.728 9.29608 238.728 9.93608C238.728 10.3948 238.669 10.8054 238.552 11.1681C238.445 11.5308 238.248 11.9041 237.96 12.2881C237.682 12.6614 237.293 13.1094 236.792 13.6321L233.48 17.0401L231.528 17.0881ZM231.528 18.0001V17.0881L232.808 16.6561H238.984V18.0001H231.528Z" fill="black"/>
<rect x="275.5" y="0.5" width="49" height="24" stroke="#6E6E6E"/>
<path d="M307.405 18V6.896H308.909V18H307.405ZM308.429 18V16.624H314.381V18H308.429Z" fill="black"/>
<path d="M303.745 18L300.257 12.912H299.985L295.601 6.896H297.393L300.849 11.68H301.121L305.505 18H303.745ZM295.409 18L299.713 12.096L300.737 12.992L297.105 18H295.409ZM301.217 12.64L300.209 11.744L303.633 6.896H305.329L301.217 12.64Z" fill="black"/>
<path d="M289.952 18.16C289.227 18.16 288.565 18.0267 287.968 17.76C287.381 17.4827 286.885 17.0827 286.48 16.56L287.504 15.536C287.749 15.9093 288.085 16.208 288.512 16.432C288.939 16.6453 289.413 16.752 289.936 16.752C290.427 16.752 290.848 16.6613 291.2 16.48C291.563 16.288 291.845 16.0213 292.048 15.68C292.261 15.3387 292.368 14.944 292.368 14.496C292.368 14.0373 292.261 13.6427 292.048 13.312C291.845 12.9707 291.557 12.7093 291.184 12.528C290.811 12.3467 290.368 12.256 289.856 12.256C289.664 12.256 289.472 12.272 289.28 12.304C289.088 12.3253 288.901 12.3627 288.72 12.416L289.36 11.552C289.563 11.456 289.781 11.3813 290.016 11.328C290.251 11.2747 290.485 11.248 290.72 11.248C291.317 11.248 291.851 11.3867 292.32 11.664C292.8 11.9413 293.179 12.3307 293.456 12.832C293.744 13.3333 293.888 13.9147 293.888 14.576C293.888 15.28 293.717 15.904 293.376 16.448C293.045 16.9813 292.587 17.4027 292 17.712C291.413 18.0107 290.731 18.16 289.952 18.16ZM288.72 12.416V11.504L291.968 7.808L293.76 7.792L290.416 11.584L288.72 12.416ZM287.008 8.24V6.896H293.76V7.792L292.448 8.24H287.008Z" fill="black"/>
<path d="M24.4002 18.1601C23.5255 18.1601 22.7789 18.0001 22.1602 17.6801C21.5415 17.3601 20.9922 16.8961 20.5122 16.2881L21.5362 15.2641C21.8882 15.7548 22.2935 16.1281 22.7522 16.3841C23.2109 16.6294 23.7762 16.7521 24.4482 16.7521C25.1095 16.7521 25.6375 16.6081 26.0322 16.3201C26.4375 16.0321 26.6402 15.6374 26.6402 15.1361C26.6402 14.7201 26.5442 14.3841 26.3522 14.1281C26.1602 13.8721 25.8989 13.6641 25.5682 13.5041C25.2482 13.3334 24.8962 13.1841 24.5122 13.0561C24.1282 12.9174 23.7442 12.7734 23.3602 12.6241C22.9762 12.4641 22.6242 12.2721 22.3042 12.0481C21.9842 11.8134 21.7229 11.5094 21.5202 11.1361C21.3282 10.7628 21.2322 10.2934 21.2322 9.72808C21.2322 9.09875 21.3815 8.56542 21.6802 8.12808C21.9895 7.68008 22.4055 7.33875 22.9282 7.10408C23.4615 6.85875 24.0589 6.73608 24.7202 6.73608C25.4455 6.73608 26.0962 6.88008 26.6722 7.16808C27.2482 7.44542 27.7175 7.81342 28.0802 8.27208L27.0562 9.29608C26.7255 8.91208 26.3682 8.62408 25.9842 8.43208C25.6109 8.24008 25.1789 8.14408 24.6882 8.14408C24.0909 8.14408 23.6162 8.27742 23.2642 8.54408C22.9122 8.80008 22.7362 9.16275 22.7362 9.63208C22.7362 10.0054 22.8322 10.3094 23.0242 10.5441C23.2269 10.7681 23.4882 10.9601 23.8082 11.1201C24.1282 11.2801 24.4802 11.4294 24.8642 11.5681C25.2589 11.6961 25.6482 11.8401 26.0322 12.0001C26.4162 12.1601 26.7682 12.3628 27.0882 12.6081C27.4082 12.8534 27.6642 13.1734 27.8562 13.5681C28.0589 13.9521 28.1602 14.4374 28.1602 15.0241C28.1602 16.0054 27.8189 16.7734 27.1362 17.3281C26.4642 17.8828 25.5522 18.1601 24.4002 18.1601Z" fill="black"/>
<rect x="55.5" y="0.5" width="49" height="24" stroke="#6E6E6E"/>
<path d="M74.312 18V6.896H75.368L80.072 14.624H79.352L84.056 6.896H85.112V18H83.608V9.536L83.96 9.632L80.248 15.728H79.192L75.48 9.632L75.816 9.536V18H74.312Z" fill="black"/>
<rect x="110.5" y="0.5" width="49" height="24" stroke="#6E6E6E"/>
<path d="M132.312 18V6.896H133.816V18H132.312ZM133.336 18V16.624H139.288V18H133.336Z" fill="black"/>
<rect x="165.5" y="0.5" width="49" height="24" stroke="#6E6E6E"/>
<path d="M192.476 18V6.896H193.98V18H192.476ZM193.5 18V16.624H199.452V18H193.5Z" fill="black"/>
<path d="M188.816 18L185.328 12.912H185.056L180.672 6.896H182.464L185.92 11.68H186.192L190.576 18H188.816ZM180.48 18L184.784 12.096L185.808 12.992L182.176 18H180.48ZM186.288 12.64L185.28 11.744L188.704 6.896H190.4L186.288 12.64Z" fill="black"/>
<rect x="330.5" y="0.5" width="49" height="24" stroke="#6E6E6E"/>
<path d="M360.142 18.1601C359.267 18.1601 358.521 18.0001 357.902 17.6801C357.283 17.3601 356.734 16.8961 356.254 16.2881L357.278 15.2641C357.63 15.7548 358.035 16.1281 358.494 16.3841C358.953 16.6294 359.518 16.7521 360.19 16.7521C360.851 16.7521 361.379 16.6081 361.774 16.3201C362.179 16.0321 362.382 15.6374 362.382 15.1361C362.382 14.7201 362.286 14.3841 362.094 14.1281C361.902 13.8721 361.641 13.6641 361.31 13.5041C360.99 13.3334 360.638 13.1841 360.254 13.0561C359.87 12.9174 359.486 12.7734 359.102 12.6241C358.718 12.4641 358.366 12.2721 358.046 12.0481C357.726 11.8134 357.465 11.5094 357.262 11.1361C357.07 10.7628 356.974 10.2934 356.974 9.72808C356.974 9.09875 357.123 8.56542 357.422 8.12808C357.731 7.68008 358.147 7.33875 358.67 7.10408C359.203 6.85875 359.801 6.73608 360.462 6.73608C361.187 6.73608 361.838 6.88008 362.414 7.16808C362.99 7.44542 363.459 7.81342 363.822 8.27208L362.798 9.29608C362.467 8.91208 362.11 8.62408 361.726 8.43208C361.353 8.24008 360.921 8.14408 360.43 8.14408C359.833 8.14408 359.358 8.27742 359.006 8.54408C358.654 8.80008 358.478 9.16275 358.478 9.63208C358.478 10.0054 358.574 10.3094 358.766 10.5441C358.969 10.7681 359.23 10.9601 359.55 11.1201C359.87 11.2801 360.222 11.4294 360.606 11.5681C361.001 11.6961 361.39 11.8401 361.774 12.0001C362.158 12.1601 362.51 12.3628 362.83 12.6081C363.15 12.8534 363.406 13.1734 363.598 13.5681C363.801 13.9521 363.902 14.4374 363.902 15.0241C363.902 16.0054 363.561 16.7734 362.878 17.3281C362.206 17.8828 361.294 18.1601 360.142 18.1601Z" fill="black"/>
<path d="M353.816 18L350.328 12.912H350.056L345.672 6.896H347.464L350.92 11.68H351.192L355.576 18H353.816ZM345.48 18L349.784 12.096L350.808 12.992L347.176 18H345.48ZM351.288 12.64L350.28 11.744L353.704 6.896H355.4L351.288 12.64Z" fill="black"/>
</svg>
