<svg width="380" height="25" viewBox="0 0 380 25" fill="none" xmlns="http://www.w3.org/2000/svg">
<rect width="380" height="25" fill="white"/>
<rect x="220.5" y="0.5" width="49" height="24" stroke="#6E6E6E"/>
<rect x="0.5" y="0.5" width="49" height="24" stroke="#6E6E6E"/>
<path d="M253.124 18V6.896H254.628V18H253.124ZM254.148 18V16.624H260.1V18H254.148Z" fill="black"/>
<path d="M249.464 18L245.976 12.912H245.704L241.32 6.896H243.112L246.568 11.68H246.84L251.224 18H249.464ZM241.128 18L245.432 12.096L246.456 12.992L242.824 18H241.128ZM246.936 12.64L245.928 11.744L249.352 6.896H251.048L246.936 12.64Z" fill="black"/>
<path d="M238.816 18L235.328 12.912H235.056L230.672 6.896H232.464L235.92 11.68H236.192L240.576 18H238.816ZM230.48 18L234.784 12.096L235.808 12.992L232.176 18H230.48ZM236.288 12.64L235.28 11.744L238.704 6.896H240.4L236.288 12.64Z" fill="black"/>
<rect x="275.5" y="0.5" width="59" height="24" stroke="#6E6E6E"/>
<path d="M317.772 18V6.896H319.276V18H317.772ZM318.796 18V16.624H324.748V18H318.796Z" fill="black"/>
<path d="M314.112 18L310.624 12.912H310.352L305.968 6.896H307.76L311.216 11.68H311.488L315.872 18H314.112ZM305.776 18L310.08 12.096L311.104 12.992L307.472 18H305.776ZM311.584 12.64L310.576 11.744L314 6.896H315.696L311.584 12.64Z" fill="black"/>
<path d="M303.464 18L299.976 12.912H299.704L295.32 6.896H297.112L300.568 11.68H300.84L305.224 18H303.464ZM295.128 18L299.432 12.096L300.456 12.992L296.824 18H295.128ZM300.936 12.64L299.928 11.744L303.352 6.896H305.048L300.936 12.64Z" fill="black"/>
<path d="M292.816 18L289.328 12.912H289.056L284.672 6.896H286.464L289.92 11.68H290.192L294.576 18H292.816ZM284.48 18L288.784 12.096L289.808 12.992L286.176 18H284.48ZM290.288 12.64L289.28 11.744L292.704 6.896H294.4L290.288 12.64Z" fill="black"/>
<path d="M24.4002 18.1598C23.5255 18.1598 22.7789 17.9998 22.1602 17.6798C21.5415 17.3598 20.9922 16.8958 20.5122 16.2878L21.5362 15.2638C21.8882 15.7545 22.2935 16.1278 22.7522 16.3838C23.2109 16.6292 23.7762 16.7518 24.4482 16.7518C25.1095 16.7518 25.6375 16.6078 26.0322 16.3198C26.4375 16.0318 26.6402 15.6372 26.6402 15.1358C26.6402 14.7198 26.5442 14.3838 26.3522 14.1278C26.1602 13.8718 25.8989 13.6638 25.5682 13.5038C25.2482 13.3332 24.8962 13.1838 24.5122 13.0558C24.1282 12.9172 23.7442 12.7732 23.3602 12.6238C22.9762 12.4638 22.6242 12.2718 22.3042 12.0478C21.9842 11.8132 21.7229 11.5092 21.5202 11.1358C21.3282 10.7625 21.2322 10.2932 21.2322 9.72784C21.2322 9.09851 21.3815 8.56517 21.6802 8.12784C21.9895 7.67984 22.4055 7.33851 22.9282 7.10384C23.4615 6.85851 24.0589 6.73584 24.7202 6.73584C25.4455 6.73584 26.0962 6.87984 26.6722 7.16784C27.2482 7.44517 27.7175 7.81317 28.0802 8.27184L27.0562 9.29584C26.7255 8.91184 26.3682 8.62384 25.9842 8.43184C25.6109 8.23984 25.1789 8.14384 24.6882 8.14384C24.0909 8.14384 23.6162 8.27717 23.2642 8.54384C22.9122 8.79984 22.7362 9.16251 22.7362 9.63184C22.7362 10.0052 22.8322 10.3092 23.0242 10.5438C23.2269 10.7678 23.4882 10.9598 23.8082 11.1198C24.1282 11.2798 24.4802 11.4292 24.8642 11.5678C25.2589 11.6958 25.6482 11.8398 26.0322 11.9998C26.4162 12.1598 26.7682 12.3625 27.0882 12.6078C27.4082 12.8532 27.6642 13.1732 27.8562 13.5678C28.0589 13.9518 28.1602 14.4372 28.1602 15.0238C28.1602 16.0052 27.8189 16.7732 27.1362 17.3278C26.4642 17.8825 25.5522 18.1598 24.4002 18.1598Z" fill="black"/>
<rect x="55.5" y="0.5" width="49" height="24" stroke="#6E6E6E"/>
<path d="M74.312 18V6.896H75.368L80.072 14.624H79.352L84.056 6.896H85.112V18H83.608V9.536L83.96 9.632L80.248 15.728H79.192L75.48 9.632L75.816 9.536V18H74.312Z" fill="black"/>
<rect x="110.5" y="0.5" width="49" height="24" stroke="#6E6E6E"/>
<path d="M132.312 18V6.896H133.816V18H132.312ZM133.336 18V16.624H139.288V18H133.336Z" fill="black"/>
<rect x="165.5" y="0.5" width="49" height="24" stroke="#6E6E6E"/>
<path d="M192.476 18V6.896H193.98V18H192.476ZM193.5 18V16.624H199.452V18H193.5Z" fill="black"/>
<path d="M188.816 18L185.328 12.912H185.056L180.672 6.896H182.464L185.92 11.68H186.192L190.576 18H188.816ZM180.48 18L184.784 12.096L185.808 12.992L182.176 18H180.48ZM186.288 12.64L185.28 11.744L188.704 6.896H190.4L186.288 12.64Z" fill="black"/>
</svg>
