<svg width="380" height="143" viewBox="0 0 380 143" fill="none" xmlns="http://www.w3.org/2000/svg">
<rect x="0.5" y="0.5" width="22.75" height="22.75" fill="white" stroke="#9A9A9A"/>
<rect x="30.1875" y="0.5" width="22.75" height="22.75" fill="black" stroke="#9A9A9A"/>
<rect x="59.875" y="0.5" width="22.75" height="22.75" fill="#C4C6C8" stroke="#9A9A9A"/>
<rect x="89.5625" y="0.5" width="22.75" height="22.75" fill="#9C9C9F" stroke="#9A9A9A"/>
<rect x="119.25" y="0.5" width="22.75" height="22.75" fill="#69615F" stroke="#9A9A9A"/>
<rect x="148.938" y="0.5" width="22.75" height="22.75" fill="#DDD3CB" stroke="#9A9A9A"/>
<rect x="178.625" y="0.5" width="22.75" height="22.75" fill="#AEADAE" stroke="#9A9A9A"/>
<rect x="208.312" y="0.5" width="22.75" height="22.75" fill="#DCD6D1" stroke="#9A9A9A"/>
<rect x="238" y="0.5" width="22.75" height="22.75" fill="#FCE36A" stroke="#9A9A9A"/>
<rect x="267.688" y="0.5" width="22.75" height="22.75" fill="#F5A439" stroke="#9A9A9A"/>
<rect x="297.375" y="0.5" width="22.75" height="22.75" fill="#6DC6CE" stroke="#9A9A9A"/>
<rect x="327.062" y="0.5" width="22.75" height="22.75" fill="#22905B" stroke="#9A9A9A"/>
<rect x="356.75" y="0.5" width="22.75" height="22.75" fill="#736E4B" stroke="#9A9A9A"/>
<rect x="0.5" y="30.1875" width="22.75" height="22.75" fill="#91D0C6" stroke="#9A9A9A"/>
<rect x="30.1875" y="30.1875" width="22.75" height="22.75" fill="#715743" stroke="#9A9A9A"/>
<rect x="59.875" y="30.1875" width="22.75" height="22.75" fill="#DDC8A2" stroke="#9A9A9A"/>
<rect x="89.5625" y="30.1875" width="22.75" height="22.75" fill="#614183" stroke="#9A9A9A"/>
<rect x="119.25" y="30.1875" width="22.75" height="22.75" fill="#EC6938" stroke="#9A9A9A"/>
<path d="M148.938 30.1875H171.688V52.9375H148.938V30.1875Z" fill="#EFBCD6" stroke="#9A9A9A"/>
<rect x="178.625" y="30.1875" width="22.75" height="22.75" fill="#CF000D" stroke="#9A9A9A"/>
<rect x="208.312" y="30.1875" width="22.75" height="22.75" fill="#7E4B58" stroke="#9A9A9A"/>
<rect x="238" y="30.1875" width="22.75" height="22.75" fill="#995D91" stroke="#9A9A9A"/>
<rect x="267.688" y="30.1875" width="22.75" height="22.75" fill="#5E9FD6" stroke="#9A9A9A"/>
<rect x="297.375" y="30.1875" width="22.75" height="22.75" fill="#58BCD8" stroke="#9A9A9A"/>
<rect x="327.062" y="30.1875" width="22.75" height="22.75" fill="#23569D" stroke="#9A9A9A"/>
<rect x="356.75" y="30.1875" width="22.75" height="22.75" fill="#474B59" stroke="#9A9A9A"/>
<rect x="0.5" y="59.875" width="22.75" height="22.75" fill="#424765" stroke="#9A9A9A"/>
<rect x="30.1875" y="59.875" width="22.75" height="22.75" fill="#3D4D54" stroke="#9A9A9A"/>
<rect x="59.875" y="59.875" width="22.75" height="22.75" fill="#4B4948" stroke="#9A9A9A"/>
<rect x="89.5625" y="59.875" width="22.75" height="22.75" fill="#FCD252" stroke="#9A9A9A"/>
<rect x="119.25" y="59.875" width="22.75" height="22.75" fill="#DAD8D6" stroke="#9A9A9A"/>
<rect x="148.938" y="59.875" width="22.75" height="22.75" fill="#E60012" stroke="#9A9A9A"/>
<path d="M178.625 59.875H201.375V82.625H178.625V59.875Z" fill="#A4B0C6" stroke="#9A9A9A"/>
<rect x="208.312" y="59.875" width="22.75" height="22.75" fill="#F8C964" stroke="#9A9A9A"/>
<rect x="238" y="59.875" width="22.75" height="22.75" fill="#E6E494" stroke="#9A9A9A"/>
<rect x="267.688" y="59.875" width="22.75" height="22.75" fill="#A4CEE6" stroke="#9A9A9A"/>
<path d="M297.375 59.875H320.125V82.625H297.375V59.875Z" fill="#C4A5C8" stroke="#9A9A9A"/>
<rect x="327.062" y="59.875" width="22.75" height="22.75" fill="#F0D2E4" stroke="#9A9A9A"/>
<rect x="356.5" y="59.5" width="22.75" height="22.75" fill="#48655B" stroke="#9A9A9A"/>
<rect x="0.5" y="89.875" width="22.75" height="22.75" fill="#D54477" stroke="#9A9A9A"/>
<rect x="30.1875" y="89.875" width="22.75" height="22.75" fill="#9D8F70" stroke="#9A9A9A"/>
<rect x="59.875" y="89.875" width="22.75" height="22.75" fill="#00849F" stroke="#9A9A9A"/>
<rect x="89.5625" y="89.875" width="22.75" height="22.75" fill="#71599D" stroke="#9A9A9A"/>
<rect x="0.5" y="119.5" width="22.75" height="22.75" fill="#003F63" stroke="#9A9A9A"/>
<rect x="30.1875" y="119.5" width="22.75" height="22.75" fill="#4B8286" stroke="#9A9A9A"/>
<rect x="59.875" y="119.5" width="22.75" height="22.75" fill="#8F253F" stroke="#9A9A9A"/>
<rect x="89.5625" y="119.5" width="22.75" height="22.75" fill="#A17E40" stroke="#9A9A9A"/>
<rect x="119.25" y="89.875" width="22.75" height="22.75" fill="#E3D8C4" stroke="#9A9A9A"/>
<rect x="148.938" y="89.875" width="22.75" height="22.75" fill="#F4B4A6" stroke="#9A9A9A"/>
<path d="M178.625 89.875H201.375V112.625H178.625V89.875Z" fill="#0B877F" stroke="#9A9A9A"/>
<rect x="208.312" y="89.875" width="22.75" height="22.75" fill="#FADADF" stroke="#9A9A9A"/>
<path d="M238 89.875H260.75V112.625H238V89.875Z" fill="#464F60" stroke="#9A9A9A"/>
<rect x="267.688" y="89.875" width="22.75" height="22.75" fill="#474F56" stroke="#9A9A9A"/>
<path d="M297.375 89.875H320.125V112.625H297.375V89.875Z" fill="#615D5A" stroke="#9A9A9A"/>
<rect x="327.062" y="89.875" width="22.75" height="22.75" fill="#80825B" stroke="#9A9A9A"/>
<rect x="356.5" y="89.5" width="22.75" height="22.75" fill="#1D261E" stroke="#9A9A9A"/>
</svg>
